<?xml version="1.0" encoding="utf-8" standalone="no"?>
<!DOCTYPE svg PUBLIC "-//W3C//DTD SVG 1.1//EN"
  "http://www.w3.org/Graphics/SVG/1.1/DTD/svg11.dtd">
<svg xmlns:xlink="http://www.w3.org/1999/xlink" width="432pt" height="432pt" viewBox="0 0 432 432" xmlns="http://www.w3.org/2000/svg" version="1.1">
 <metadata>
  <rdf:RDF xmlns:dc="http://purl.org/dc/elements/1.1/" xmlns:cc="http://creativecommons.org/ns#" xmlns:rdf="http://www.w3.org/1999/02/22-rdf-syntax-ns#">
   <cc:Work>
    <dc:type rdf:resource="http://purl.org/dc/dcmitype/StillImage"/>
    <dc:date>2025-08-25T20:52:28.096961</dc:date>
    <dc:format>image/svg+xml</dc:format>
    <dc:creator>
     <cc:Agent>
      <dc:title>Matplotlib v3.8.2, https://matplotlib.org/</dc:title>
     </cc:Agent>
    </dc:creator>
   </cc:Work>
  </rdf:RDF>
 </metadata>
 <defs>
  <style type="text/css">*{stroke-linejoin: round; stroke-linecap: butt}</style>
 </defs>
 <g id="figure_1">
  <g id="patch_1">
   <path d="M 0 432 
L 432 432 
L 432 0 
L 0 0 
z
" style="fill: #ffffff"/>
  </g>
  <g id="axes_1">
   <g id="PolyCollection_1">
    <defs>
     <path id="m9ba0e2a992" d="M 136.472727 -202.119271 
L 136.472727 -39.272727 
L 139.116084 -39.272727 
L 139.116084 -202.119271 
L 139.116084 -202.119271 
L 136.472727 -202.119271 
z
" style="stroke: #db5f57; stroke-opacity: 0.99"/>
    </defs>
    <g clip-path="url(#p20ee0c0d6f)">
     <use xlink:href="#m9ba0e2a992" x="0" y="432" style="fill: #db5f57; fill-opacity: 0.99; stroke: #db5f57; stroke-opacity: 0.99"/>
    </g>
   </g>
   <g id="PolyCollection_2">
    <defs>
     <path id="mf3d59b04a9" d="M 136.472727 -226.484613 
L 136.472727 -208.788225 
L 139.116084 -208.788225 
L 139.116084 -226.484613 
L 139.116084 -226.484613 
L 136.472727 -226.484613 
z
" style="stroke: #91db57; stroke-opacity: 0.99"/>
    </defs>
    <g clip-path="url(#p20ee0c0d6f)">
     <use xlink:href="#mf3d59b04a9" x="0" y="432" style="fill: #91db57; fill-opacity: 0.99; stroke: #91db57; stroke-opacity: 0.99"/>
    </g>
   </g>
   <g id="PolyCollection_3">
    <defs>
     <path id="mf4511e9474" d="M 136.472727 -345.893482 
L 136.472727 -233.153567 
L 139.116084 -233.153567 
L 139.116084 -345.893482 
L 139.116084 -345.893482 
L 136.472727 -345.893482 
z
" style="stroke: #57d3db; stroke-opacity: 0.99"/>
    </defs>
    <g clip-path="url(#p20ee0c0d6f)">
     <use xlink:href="#mf4511e9474" x="0" y="432" style="fill: #57d3db; fill-opacity: 0.99; stroke: #57d3db; stroke-opacity: 0.99"/>
    </g>
   </g>
   <g id="PolyCollection_4">
    <defs>
     <path id="ma5d89fa4ca" d="M 136.472727 -392.727273 
L 136.472727 -352.562435 
L 139.116084 -352.562435 
L 139.116084 -392.727273 
L 139.116084 -392.727273 
L 136.472727 -392.727273 
z
" style="stroke: #a157db; stroke-opacity: 0.99"/>
    </defs>
    <g clip-path="url(#p20ee0c0d6f)">
     <use xlink:href="#ma5d89fa4ca" x="0" y="432" style="fill: #a157db; fill-opacity: 0.99; stroke: #a157db; stroke-opacity: 0.99"/>
    </g>
   </g>
   <g id="PolyCollection_5">
    <defs>
     <path id="m588a17ef78" d="M 271.283916 -182.235688 
L 271.283916 -39.272727 
L 273.927273 -39.272727 
L 273.927273 -182.235688 
L 273.927273 -182.235688 
L 271.283916 -182.235688 
z
" style="stroke: #db5f57; stroke-opacity: 0.99"/>
    </defs>
    <g clip-path="url(#p20ee0c0d6f)">
     <use xlink:href="#m588a17ef78" x="0" y="432" style="fill: #db5f57; fill-opacity: 0.99; stroke: #db5f57; stroke-opacity: 0.99"/>
    </g>
   </g>
   <g id="PolyCollection_6">
    <defs>
     <path id="mbc31a30144" d="M 271.283916 -237.022912 
L 271.283916 -188.904642 
L 273.927273 -188.904642 
L 273.927273 -237.022912 
L 273.927273 -237.022912 
L 271.283916 -237.022912 
z
" style="stroke: #a157db; stroke-opacity: 0.99"/>
    </defs>
    <g clip-path="url(#p20ee0c0d6f)">
     <use xlink:href="#mbc31a30144" x="0" y="432" style="fill: #a157db; fill-opacity: 0.99; stroke: #a157db; stroke-opacity: 0.99"/>
    </g>
   </g>
   <g id="PolyCollection_7">
    <defs>
     <path id="mbdb2c88458" d="M 271.283916 -374.327005 
L 271.283916 -243.691866 
L 273.927273 -243.691866 
L 273.927273 -374.327005 
L 273.927273 -374.327005 
L 271.283916 -374.327005 
z
" style="stroke: #57d3db; stroke-opacity: 0.99"/>
    </defs>
    <g clip-path="url(#p20ee0c0d6f)">
     <use xlink:href="#mbdb2c88458" x="0" y="432" style="fill: #57d3db; fill-opacity: 0.99; stroke: #57d3db; stroke-opacity: 0.99"/>
    </g>
   </g>
   <g id="PolyCollection_8">
    <defs>
     <path id="m598a2cb42c" d="M 271.283916 -392.727273 
L 271.283916 -380.995959 
L 273.927273 -380.995959 
L 273.927273 -392.727273 
L 273.927273 -392.727273 
L 271.283916 -392.727273 
z
" style="stroke: #91db57; stroke-opacity: 0.99"/>
    </defs>
    <g clip-path="url(#p20ee0c0d6f)">
     <use xlink:href="#m598a2cb42c" x="0" y="432" style="fill: #91db57; fill-opacity: 0.99; stroke: #91db57; stroke-opacity: 0.99"/>
    </g>
   </g>
   <g id="PolyCollection_9">
    <defs>
     <path id="mc36b2bf3f4" d="M 139.116084 -176.867121 
L 139.116084 -39.272727 
L 141.28277 -39.272727 
L 143.449455 -39.272727 
L 145.616141 -39.272727 
L 147.782827 -39.272727 
L 149.949513 -39.272727 
L 152.116199 -39.272727 
L 154.282884 -39.272727 
L 156.44957 -39.272727 
L 158.616256 -39.272727 
L 160.782942 -39.272727 
L 162.949627 -39.272727 
L 165.116313 -39.272727 
L 167.282999 -39.272727 
L 169.449685 -39.272727 
L 171.616371 -39.272727 
L 173.783056 -39.272727 
L 175.949742 -39.272727 
L 178.116428 -39.272727 
L 180.283114 -39.272727 
L 182.449799 -39.272727 
L 184.616485 -39.272727 
L 186.783171 -39.272727 
L 188.949857 -39.272727 
L 191.116542 -39.272727 
L 193.283228 -39.272727 
L 195.449914 -39.272727 
L 197.6166 -39.272727 
L 199.783286 -39.272727 
L 201.949971 -39.272727 
L 204.116657 -39.272727 
L 206.283343 -39.272727 
L 208.450029 -39.272727 
L 210.616714 -39.272727 
L 212.7834 -39.272727 
L 214.950086 -39.272727 
L 217.116772 -39.272727 
L 219.283458 -39.272727 
L 221.450143 -39.272727 
L 223.616829 -39.272727 
L 225.783515 -39.272727 
L 227.950201 -39.272727 
L 230.116886 -39.272727 
L 232.283572 -39.272727 
L 234.450258 -39.272727 
L 236.616944 -39.272727 
L 238.783629 -39.272727 
L 240.950315 -39.272727 
L 243.117001 -39.272727 
L 245.283687 -39.272727 
L 247.450373 -39.272727 
L 249.617058 -39.272727 
L 251.783744 -39.272727 
L 253.95043 -39.272727 
L 256.117116 -39.272727 
L 258.283801 -39.272727 
L 260.450487 -39.272727 
L 262.617173 -39.272727 
L 264.783859 -39.272727 
L 266.950545 -39.272727 
L 269.11723 -39.272727 
L 271.283916 -39.272727 
L 271.283916 -176.867121 
L 271.283916 -176.867121 
L 269.11723 -176.867121 
L 266.950545 -176.867121 
L 264.783859 -176.867121 
L 262.617173 -176.867121 
L 260.450487 -176.867121 
L 258.283801 -176.867121 
L 256.117116 -176.867121 
L 253.95043 -176.867121 
L 251.783744 -176.867121 
L 249.617058 -176.867121 
L 247.450373 -176.867121 
L 245.283687 -176.867121 
L 243.117001 -176.867121 
L 240.950315 -176.867121 
L 238.783629 -176.867121 
L 236.616944 -176.867121 
L 234.450258 -176.867121 
L 232.283572 -176.867121 
L 230.116886 -176.867121 
L 227.950201 -176.867121 
L 225.783515 -176.867121 
L 223.616829 -176.867121 
L 221.450143 -176.867121 
L 219.283458 -176.867121 
L 217.116772 -176.867121 
L 214.950086 -176.867121 
L 212.7834 -176.867121 
L 210.616714 -176.867121 
L 208.450029 -176.867121 
L 206.283343 -176.867121 
L 204.116657 -176.867121 
L 201.949971 -176.867121 
L 199.783286 -176.867121 
L 197.6166 -176.867121 
L 195.449914 -176.867121 
L 193.283228 -176.867121 
L 191.116542 -176.867121 
L 188.949857 -176.867121 
L 186.783171 -176.867121 
L 184.616485 -176.867121 
L 182.449799 -176.867121 
L 180.283114 -176.867121 
L 178.116428 -176.867121 
L 175.949742 -176.867121 
L 173.783056 -176.867121 
L 171.616371 -176.867121 
L 169.449685 -176.867121 
L 167.282999 -176.867121 
L 165.116313 -176.867121 
L 162.949627 -176.867121 
L 160.782942 -176.867121 
L 158.616256 -176.867121 
L 156.44957 -176.867121 
L 154.282884 -176.867121 
L 152.116199 -176.867121 
L 149.949513 -176.867121 
L 147.782827 -176.867121 
L 145.616141 -176.867121 
L 143.449455 -176.867121 
L 141.28277 -176.867121 
L 139.116084 -176.867121 
z
" style="stroke: #db5f57; stroke-opacity: 0.65"/>
    </defs>
    <g clip-path="url(#p20ee0c0d6f)">
     <use xlink:href="#mc36b2bf3f4" x="0" y="432" style="fill: #db5f57; fill-opacity: 0.65; stroke: #db5f57; stroke-opacity: 0.65"/>
    </g>
   </g>
   <g id="PolyCollection_10">
    <defs>
     <path id="mebb9707bd3" d="M 139.116084 -177.662464 
L 139.116084 -176.867121 
L 141.28277 -176.867121 
L 143.449455 -176.867121 
L 145.616141 -176.867121 
L 147.782827 -176.867121 
L 149.949513 -176.867121 
L 152.116199 -176.867121 
L 154.282884 -176.867121 
L 156.44957 -176.867121 
L 158.616256 -176.867121 
L 160.782942 -176.867121 
L 162.949627 -176.867121 
L 165.116313 -176.897214 
L 167.282999 -176.957402 
L 169.449685 -177.047683 
L 171.616371 -177.168059 
L 173.783056 -177.318528 
L 175.949742 -177.49909 
L 178.116428 -177.709747 
L 180.283114 -177.950497 
L 182.449799 -178.221342 
L 184.616485 -178.52228 
L 186.783171 -178.853312 
L 188.949857 -179.214437 
L 191.116542 -179.605657 
L 193.283228 -180.02697 
L 195.449914 -180.478377 
L 197.6166 -180.959878 
L 199.783286 -181.471472 
L 201.949971 -182.013161 
L 204.116657 -182.584943 
L 206.283343 -183.186819 
L 208.450029 -183.758601 
L 210.616714 -184.30029 
L 212.7834 -184.811884 
L 214.950086 -185.293385 
L 217.116772 -185.744792 
L 219.283458 -186.166106 
L 221.450143 -186.557325 
L 223.616829 -186.918451 
L 225.783515 -187.249483 
L 227.950201 -187.550421 
L 230.116886 -187.821265 
L 232.283572 -188.062015 
L 234.450258 -188.272672 
L 236.616944 -188.453235 
L 238.783629 -188.603704 
L 240.950315 -188.724079 
L 243.117001 -188.81436 
L 245.283687 -188.874548 
L 247.450373 -188.904642 
L 249.617058 -188.904642 
L 251.783744 -188.904642 
L 253.95043 -188.904642 
L 256.117116 -188.904642 
L 258.283801 -188.904642 
L 260.450487 -188.904642 
L 262.617173 -188.904642 
L 264.783859 -188.904642 
L 266.950545 -188.904642 
L 269.11723 -188.904642 
L 271.283916 -188.904642 
L 271.283916 -189.699985 
L 271.283916 -189.699985 
L 269.11723 -189.699985 
L 266.950545 -189.699985 
L 264.783859 -189.699985 
L 262.617173 -189.699985 
L 260.450487 -189.699985 
L 258.283801 -189.699985 
L 256.117116 -189.699985 
L 253.95043 -189.699985 
L 251.783744 -189.699985 
L 249.617058 -189.699985 
L 247.450373 -189.699985 
L 245.283687 -189.669891 
L 243.117001 -189.609704 
L 240.950315 -189.519422 
L 238.783629 -189.399047 
L 236.616944 -189.248578 
L 234.450258 -189.068015 
L 232.283572 -188.857358 
L 230.116886 -188.616608 
L 227.950201 -188.345764 
L 225.783515 -188.044826 
L 223.616829 -187.713794 
L 221.450143 -187.352668 
L 219.283458 -186.961449 
L 217.116772 -186.540136 
L 214.950086 -186.088729 
L 212.7834 -185.607228 
L 210.616714 -185.095633 
L 208.450029 -184.553945 
L 206.283343 -183.982162 
L 204.116657 -183.380286 
L 201.949971 -182.808504 
L 199.783286 -182.266816 
L 197.6166 -181.755221 
L 195.449914 -181.27372 
L 193.283228 -180.822313 
L 191.116542 -180.401 
L 188.949857 -180.009781 
L 186.783171 -179.648655 
L 184.616485 -179.317623 
L 182.449799 -179.016685 
L 180.283114 -178.745841 
L 178.116428 -178.50509 
L 175.949742 -178.294434 
L 173.783056 -178.113871 
L 171.616371 -177.963402 
L 169.449685 -177.843027 
L 167.282999 -177.752745 
L 165.116313 -177.692558 
L 162.949627 -177.662464 
L 160.782942 -177.662464 
L 158.616256 -177.662464 
L 156.44957 -177.662464 
L 154.282884 -177.662464 
L 152.116199 -177.662464 
L 149.949513 -177.662464 
L 147.782827 -177.662464 
L 145.616141 -177.662464 
L 143.449455 -177.662464 
L 141.28277 -177.662464 
L 139.116084 -177.662464 
z
" style="stroke: #db5f57; stroke-opacity: 0.65"/>
    </defs>
    <g clip-path="url(#p20ee0c0d6f)">
     <use xlink:href="#mebb9707bd3" x="0" y="432" style="fill: #db5f57; fill-opacity: 0.65; stroke: #db5f57; stroke-opacity: 0.65"/>
    </g>
   </g>
   <g id="PolyCollection_11">
    <defs>
     <path id="mfcd049d592" d="M 139.116084 -201.721599 
L 139.116084 -177.662464 
L 141.28277 -177.662464 
L 143.449455 -177.662464 
L 145.616141 -177.662464 
L 147.782827 -177.662464 
L 149.949513 -177.662464 
L 152.116199 -177.662464 
L 154.282884 -177.662464 
L 156.44957 -177.662464 
L 158.616256 -177.662464 
L 160.782942 -177.662464 
L 162.949627 -177.662464 
L 165.116313 -177.827537 
L 167.282999 -178.157684 
L 169.449685 -178.652905 
L 171.616371 -179.313199 
L 173.783056 -180.138566 
L 175.949742 -181.129008 
L 178.116428 -182.284522 
L 180.283114 -183.60511 
L 182.449799 -185.090772 
L 184.616485 -186.741507 
L 186.783171 -188.557315 
L 188.949857 -190.538197 
L 191.116542 -192.684153 
L 193.283228 -194.995182 
L 195.449914 -197.471284 
L 197.6166 -200.112461 
L 199.783286 -202.91871 
L 201.949971 -205.890033 
L 204.116657 -209.02643 
L 206.283343 -212.3279 
L 208.450029 -215.464297 
L 210.616714 -218.43562 
L 212.7834 -221.241869 
L 214.950086 -223.883045 
L 217.116772 -226.359148 
L 219.283458 -228.670177 
L 221.450143 -230.816132 
L 223.616829 -232.797015 
L 225.783515 -234.612823 
L 227.950201 -236.263558 
L 230.116886 -237.74922 
L 232.283572 -239.069808 
L 234.450258 -240.225322 
L 236.616944 -241.215763 
L 238.783629 -242.041131 
L 240.950315 -242.701425 
L 243.117001 -243.196645 
L 245.283687 -243.526792 
L 247.450373 -243.691866 
L 249.617058 -243.691866 
L 251.783744 -243.691866 
L 253.95043 -243.691866 
L 256.117116 -243.691866 
L 258.283801 -243.691866 
L 260.450487 -243.691866 
L 262.617173 -243.691866 
L 264.783859 -243.691866 
L 266.950545 -243.691866 
L 269.11723 -243.691866 
L 271.283916 -243.691866 
L 271.283916 -267.751001 
L 271.283916 -267.751001 
L 269.11723 -267.751001 
L 266.950545 -267.751001 
L 264.783859 -267.751001 
L 262.617173 -267.751001 
L 260.450487 -267.751001 
L 258.283801 -267.751001 
L 256.117116 -267.751001 
L 253.95043 -267.751001 
L 251.783744 -267.751001 
L 249.617058 -267.751001 
L 247.450373 -267.751001 
L 245.283687 -267.585928 
L 243.117001 -267.255781 
L 240.950315 -266.76056 
L 238.783629 -266.100266 
L 236.616944 -265.274899 
L 234.450258 -264.284457 
L 232.283572 -263.128943 
L 230.116886 -261.808355 
L 227.950201 -260.322693 
L 225.783515 -258.671958 
L 223.616829 -256.85615 
L 221.450143 -254.875268 
L 219.283458 -252.729312 
L 217.116772 -250.418283 
L 214.950086 -247.942181 
L 212.7834 -245.301004 
L 210.616714 -242.494755 
L 208.450029 -239.523432 
L 206.283343 -236.387035 
L 204.116657 -233.085565 
L 201.949971 -229.949168 
L 199.783286 -226.977845 
L 197.6166 -224.171596 
L 195.449914 -221.53042 
L 193.283228 -219.054317 
L 191.116542 -216.743288 
L 188.949857 -214.597333 
L 186.783171 -212.61645 
L 184.616485 -210.800642 
L 182.449799 -209.149907 
L 180.283114 -207.664245 
L 178.116428 -206.343657 
L 175.949742 -205.188143 
L 173.783056 -204.197702 
L 171.616371 -203.372334 
L 169.449685 -202.71204 
L 167.282999 -202.21682 
L 165.116313 -201.886673 
L 162.949627 -201.721599 
L 160.782942 -201.721599 
L 158.616256 -201.721599 
L 156.44957 -201.721599 
L 154.282884 -201.721599 
L 152.116199 -201.721599 
L 149.949513 -201.721599 
L 147.782827 -201.721599 
L 145.616141 -201.721599 
L 143.449455 -201.721599 
L 141.28277 -201.721599 
L 139.116084 -201.721599 
z
" style="stroke: #db5f57; stroke-opacity: 0.65"/>
    </defs>
    <g clip-path="url(#p20ee0c0d6f)">
     <use xlink:href="#mfcd049d592" x="0" y="432" style="fill: #db5f57; fill-opacity: 0.65; stroke: #db5f57; stroke-opacity: 0.65"/>
    </g>
   </g>
   <g id="PolyCollection_12">
    <defs>
     <path id="m3cb4a8ce8a" d="M 139.116084 -202.119271 
L 139.116084 -201.721599 
L 141.28277 -201.721599 
L 143.449455 -201.721599 
L 145.616141 -201.721599 
L 147.782827 -201.721599 
L 149.949513 -201.721599 
L 152.116199 -201.721599 
L 154.282884 -201.721599 
L 156.44957 -201.721599 
L 158.616256 -201.721599 
L 160.782942 -201.721599 
L 162.949627 -201.721599 
L 165.116313 -202.169785 
L 167.282999 -203.066157 
L 169.449685 -204.410715 
L 171.616371 -206.203458 
L 173.783056 -208.444388 
L 175.949742 -211.133503 
L 178.116428 -214.270804 
L 180.283114 -217.856292 
L 182.449799 -221.889965 
L 184.616485 -226.371824 
L 186.783171 -231.301869 
L 188.949857 -236.680099 
L 191.116542 -242.506516 
L 193.283228 -248.781119 
L 195.449914 -255.503907 
L 197.6166 -262.674881 
L 199.783286 -270.294042 
L 201.949971 -278.361388 
L 204.116657 -286.87692 
L 206.283343 -295.840638 
L 208.450029 -304.35617 
L 210.616714 -312.423516 
L 212.7834 -320.042677 
L 214.950086 -327.213651 
L 217.116772 -333.936439 
L 219.283458 -340.211042 
L 221.450143 -346.037459 
L 223.616829 -351.415689 
L 225.783515 -356.345734 
L 227.950201 -360.827593 
L 230.116886 -364.861266 
L 232.283572 -368.446754 
L 234.450258 -371.584055 
L 236.616944 -374.27317 
L 238.783629 -376.5141 
L 240.950315 -378.306843 
L 243.117001 -379.651401 
L 245.283687 -380.547773 
L 247.450373 -380.995959 
L 249.617058 -380.995959 
L 251.783744 -380.995959 
L 253.95043 -380.995959 
L 256.117116 -380.995959 
L 258.283801 -380.995959 
L 260.450487 -380.995959 
L 262.617173 -380.995959 
L 264.783859 -380.995959 
L 266.950545 -380.995959 
L 269.11723 -380.995959 
L 271.283916 -380.995959 
L 271.283916 -381.393631 
L 271.283916 -381.393631 
L 269.11723 -381.393631 
L 266.950545 -381.393631 
L 264.783859 -381.393631 
L 262.617173 -381.393631 
L 260.450487 -381.393631 
L 258.283801 -381.393631 
L 256.117116 -381.393631 
L 253.95043 -381.393631 
L 251.783744 -381.393631 
L 249.617058 -381.393631 
L 247.450373 -381.393631 
L 245.283687 -380.945445 
L 243.117001 -380.049073 
L 240.950315 -378.704515 
L 238.783629 -376.911772 
L 236.616944 -374.670842 
L 234.450258 -371.981727 
L 232.283572 -368.844425 
L 230.116886 -365.258938 
L 227.950201 -361.225265 
L 225.783515 -356.743406 
L 223.616829 -351.813361 
L 221.450143 -346.43513 
L 219.283458 -340.608714 
L 217.116772 -334.334111 
L 214.950086 -327.611323 
L 212.7834 -320.440348 
L 210.616714 -312.821188 
L 208.450029 -304.753842 
L 206.283343 -296.23831 
L 204.116657 -287.274592 
L 201.949971 -278.75906 
L 199.783286 -270.691713 
L 197.6166 -263.072553 
L 195.449914 -255.901579 
L 193.283228 -249.17879 
L 191.116542 -242.904188 
L 188.949857 -237.077771 
L 186.783171 -231.69954 
L 184.616485 -226.769495 
L 182.449799 -222.287636 
L 180.283114 -218.253963 
L 178.116428 -214.668476 
L 175.949742 -211.531175 
L 173.783056 -208.842059 
L 171.616371 -206.60113 
L 169.449685 -204.808386 
L 167.282999 -203.463829 
L 165.116313 -202.567457 
L 162.949627 -202.119271 
L 160.782942 -202.119271 
L 158.616256 -202.119271 
L 156.44957 -202.119271 
L 154.282884 -202.119271 
L 152.116199 -202.119271 
L 149.949513 -202.119271 
L 147.782827 -202.119271 
L 145.616141 -202.119271 
L 143.449455 -202.119271 
L 141.28277 -202.119271 
L 139.116084 -202.119271 
z
" style="stroke: #db5f57; stroke-opacity: 0.65"/>
    </defs>
    <g clip-path="url(#p20ee0c0d6f)">
     <use xlink:href="#m3cb4a8ce8a" x="0" y="432" style="fill: #db5f57; fill-opacity: 0.65; stroke: #db5f57; stroke-opacity: 0.65"/>
    </g>
   </g>
   <g id="PolyCollection_13">
    <defs>
     <path id="m234bcd2425" d="M 139.116084 -214.554464 
L 139.116084 -208.788225 
L 141.28277 -208.788225 
L 143.449455 -208.788225 
L 145.616141 -208.788225 
L 147.782827 -208.788225 
L 149.949513 -208.788225 
L 152.116199 -208.788225 
L 154.282884 -208.788225 
L 156.44957 -208.788225 
L 158.616256 -208.788225 
L 160.782942 -208.788225 
L 162.949627 -208.788225 
L 165.116313 -208.740504 
L 167.282999 -208.645063 
L 169.449685 -208.501901 
L 171.616371 -208.311019 
L 173.783056 -208.072416 
L 175.949742 -207.786092 
L 178.116428 -207.452048 
L 180.283114 -207.070283 
L 182.449799 -206.640798 
L 184.616485 -206.163592 
L 186.783171 -205.638665 
L 188.949857 -205.066018 
L 191.116542 -204.44565 
L 193.283228 -203.777562 
L 195.449914 -203.061753 
L 197.6166 -202.298223 
L 199.783286 -201.486973 
L 201.949971 -200.628002 
L 204.116657 -199.721311 
L 206.283343 -198.766899 
L 208.450029 -197.860207 
L 210.616714 -197.001237 
L 212.7834 -196.189986 
L 214.950086 -195.426457 
L 217.116772 -194.710648 
L 219.283458 -194.042559 
L 221.450143 -193.422192 
L 223.616829 -192.849544 
L 225.783515 -192.324618 
L 227.950201 -191.847412 
L 230.116886 -191.417927 
L 232.283572 -191.036162 
L 234.450258 -190.702118 
L 236.616944 -190.415794 
L 238.783629 -190.177191 
L 240.950315 -189.986309 
L 243.117001 -189.843147 
L 245.283687 -189.747706 
L 247.450373 -189.699985 
L 249.617058 -189.699985 
L 251.783744 -189.699985 
L 253.95043 -189.699985 
L 256.117116 -189.699985 
L 258.283801 -189.699985 
L 260.450487 -189.699985 
L 262.617173 -189.699985 
L 264.783859 -189.699985 
L 266.950545 -189.699985 
L 269.11723 -189.699985 
L 271.283916 -189.699985 
L 271.283916 -195.466224 
L 271.283916 -195.466224 
L 269.11723 -195.466224 
L 266.950545 -195.466224 
L 264.783859 -195.466224 
L 262.617173 -195.466224 
L 260.450487 -195.466224 
L 258.283801 -195.466224 
L 256.117116 -195.466224 
L 253.95043 -195.466224 
L 251.783744 -195.466224 
L 249.617058 -195.466224 
L 247.450373 -195.466224 
L 245.283687 -195.513945 
L 243.117001 -195.609386 
L 240.950315 -195.752548 
L 238.783629 -195.94343 
L 236.616944 -196.182033 
L 234.450258 -196.468357 
L 232.283572 -196.802401 
L 230.116886 -197.184166 
L 227.950201 -197.613651 
L 225.783515 -198.090857 
L 223.616829 -198.615784 
L 221.450143 -199.188431 
L 219.283458 -199.808798 
L 217.116772 -200.476887 
L 214.950086 -201.192696 
L 212.7834 -201.956225 
L 210.616714 -202.767476 
L 208.450029 -203.626446 
L 206.283343 -204.533138 
L 204.116657 -205.48755 
L 201.949971 -206.394241 
L 199.783286 -207.253212 
L 197.6166 -208.064462 
L 195.449914 -208.827992 
L 193.283228 -209.543801 
L 191.116542 -210.211889 
L 188.949857 -210.832257 
L 186.783171 -211.404904 
L 184.616485 -211.929831 
L 182.449799 -212.407037 
L 180.283114 -212.836522 
L 178.116428 -213.218287 
L 175.949742 -213.552331 
L 173.783056 -213.838655 
L 171.616371 -214.077258 
L 169.449685 -214.26814 
L 167.282999 -214.411302 
L 165.116313 -214.506743 
L 162.949627 -214.554464 
L 160.782942 -214.554464 
L 158.616256 -214.554464 
L 156.44957 -214.554464 
L 154.282884 -214.554464 
L 152.116199 -214.554464 
L 149.949513 -214.554464 
L 147.782827 -214.554464 
L 145.616141 -214.554464 
L 143.449455 -214.554464 
L 141.28277 -214.554464 
L 139.116084 -214.554464 
z
" style="stroke: #91db57; stroke-opacity: 0.65"/>
    </defs>
    <g clip-path="url(#p20ee0c0d6f)">
     <use xlink:href="#m234bcd2425" x="0" y="432" style="fill: #91db57; fill-opacity: 0.65; stroke: #91db57; stroke-opacity: 0.65"/>
    </g>
   </g>
   <g id="PolyCollection_14">
    <defs>
     <path id="m246cafc4cb" d="M 139.116084 -215.150971 
L 139.116084 -214.554464 
L 141.28277 -214.554464 
L 143.449455 -214.554464 
L 145.616141 -214.554464 
L 147.782827 -214.554464 
L 149.949513 -214.554464 
L 152.116199 -214.554464 
L 154.282884 -214.554464 
L 156.44957 -214.554464 
L 158.616256 -214.554464 
L 160.782942 -214.554464 
L 162.949627 -214.554464 
L 165.116313 -214.687455 
L 167.282999 -214.953438 
L 169.449685 -215.352412 
L 171.616371 -215.884377 
L 173.783056 -216.549334 
L 175.949742 -217.347282 
L 178.116428 -218.278221 
L 180.283114 -219.342152 
L 182.449799 -220.539074 
L 184.616485 -221.868987 
L 186.783171 -223.331892 
L 188.949857 -224.927788 
L 191.116542 -226.656676 
L 193.283228 -228.518555 
L 195.449914 -230.513425 
L 197.6166 -232.641286 
L 199.783286 -234.902139 
L 201.949971 -237.295983 
L 204.116657 -239.822819 
L 206.283343 -242.482646 
L 208.450029 -245.009481 
L 210.616714 -247.403325 
L 212.7834 -249.664178 
L 214.950086 -251.79204 
L 217.116772 -253.78691 
L 219.283458 -255.648789 
L 221.450143 -257.377676 
L 223.616829 -258.973572 
L 225.783515 -260.436477 
L 227.950201 -261.766391 
L 230.116886 -262.963313 
L 232.283572 -264.027243 
L 234.450258 -264.958183 
L 236.616944 -265.756131 
L 238.783629 -266.421088 
L 240.950315 -266.953053 
L 243.117001 -267.352027 
L 245.283687 -267.61801 
L 247.450373 -267.751001 
L 249.617058 -267.751001 
L 251.783744 -267.751001 
L 253.95043 -267.751001 
L 256.117116 -267.751001 
L 258.283801 -267.751001 
L 260.450487 -267.751001 
L 262.617173 -267.751001 
L 264.783859 -267.751001 
L 266.950545 -267.751001 
L 269.11723 -267.751001 
L 271.283916 -267.751001 
L 271.283916 -268.347509 
L 271.283916 -268.347509 
L 269.11723 -268.347509 
L 266.950545 -268.347509 
L 264.783859 -268.347509 
L 262.617173 -268.347509 
L 260.450487 -268.347509 
L 258.283801 -268.347509 
L 256.117116 -268.347509 
L 253.95043 -268.347509 
L 251.783744 -268.347509 
L 249.617058 -268.347509 
L 247.450373 -268.347509 
L 245.283687 -268.214517 
L 243.117001 -267.948535 
L 240.950315 -267.549561 
L 238.783629 -267.017595 
L 236.616944 -266.352638 
L 234.450258 -265.55469 
L 232.283572 -264.623751 
L 230.116886 -263.55982 
L 227.950201 -262.362898 
L 225.783515 -261.032985 
L 223.616829 -259.57008 
L 221.450143 -257.974184 
L 219.283458 -256.245296 
L 217.116772 -254.383417 
L 214.950086 -252.388547 
L 212.7834 -250.260686 
L 210.616714 -247.999833 
L 208.450029 -245.605989 
L 206.283343 -243.079153 
L 204.116657 -240.419326 
L 201.949971 -237.892491 
L 199.783286 -235.498647 
L 197.6166 -233.237794 
L 195.449914 -231.109932 
L 193.283228 -229.115062 
L 191.116542 -227.253183 
L 188.949857 -225.524296 
L 186.783171 -223.9284 
L 184.616485 -222.465495 
L 182.449799 -221.135581 
L 180.283114 -219.938659 
L 178.116428 -218.874729 
L 175.949742 -217.943789 
L 173.783056 -217.145841 
L 171.616371 -216.480884 
L 169.449685 -215.948919 
L 167.282999 -215.549945 
L 165.116313 -215.283962 
L 162.949627 -215.150971 
L 160.782942 -215.150971 
L 158.616256 -215.150971 
L 156.44957 -215.150971 
L 154.282884 -215.150971 
L 152.116199 -215.150971 
L 149.949513 -215.150971 
L 147.782827 -215.150971 
L 145.616141 -215.150971 
L 143.449455 -215.150971 
L 141.28277 -215.150971 
L 139.116084 -215.150971 
z
" style="stroke: #91db57; stroke-opacity: 0.65"/>
    </defs>
    <g clip-path="url(#p20ee0c0d6f)">
     <use xlink:href="#m246cafc4cb" x="0" y="432" style="fill: #91db57; fill-opacity: 0.65; stroke: #91db57; stroke-opacity: 0.65"/>
    </g>
   </g>
   <g id="PolyCollection_15">
    <defs>
     <path id="m33f58383a8" d="M 139.116084 -226.484613 
L 139.116084 -215.150971 
L 141.28277 -215.150971 
L 143.449455 -215.150971 
L 145.616141 -215.150971 
L 147.782827 -215.150971 
L 149.949513 -215.150971 
L 152.116199 -215.150971 
L 154.282884 -215.150971 
L 156.44957 -215.150971 
L 158.616256 -215.150971 
L 160.782942 -215.150971 
L 162.949627 -215.150971 
L 165.116313 -215.566578 
L 167.282999 -216.397791 
L 169.449685 -217.644611 
L 171.616371 -219.307037 
L 173.783056 -221.385071 
L 175.949742 -223.878711 
L 178.116428 -226.787957 
L 180.283114 -230.11281 
L 182.449799 -233.85327 
L 184.616485 -238.009337 
L 186.783171 -242.58101 
L 188.949857 -247.56829 
L 191.116542 -252.971176 
L 193.283228 -258.789669 
L 195.449914 -265.023769 
L 197.6166 -271.673475 
L 199.783286 -278.738788 
L 201.949971 -286.219708 
L 204.116657 -294.116234 
L 206.283343 -302.428367 
L 208.450029 -310.324894 
L 210.616714 -317.805813 
L 212.7834 -324.871126 
L 214.950086 -331.520833 
L 217.116772 -337.754932 
L 219.283458 -343.573425 
L 221.450143 -348.976312 
L 223.616829 -353.963592 
L 225.783515 -358.535265 
L 227.950201 -362.691331 
L 230.116886 -366.431791 
L 232.283572 -369.756644 
L 234.450258 -372.665891 
L 236.616944 -375.159531 
L 238.783629 -377.237564 
L 240.950315 -378.899991 
L 243.117001 -380.146811 
L 245.283687 -380.978024 
L 247.450373 -381.393631 
L 249.617058 -381.393631 
L 251.783744 -381.393631 
L 253.95043 -381.393631 
L 256.117116 -381.393631 
L 258.283801 -381.393631 
L 260.450487 -381.393631 
L 262.617173 -381.393631 
L 264.783859 -381.393631 
L 266.950545 -381.393631 
L 269.11723 -381.393631 
L 271.283916 -381.393631 
L 271.283916 -392.727273 
L 271.283916 -392.727273 
L 269.11723 -392.727273 
L 266.950545 -392.727273 
L 264.783859 -392.727273 
L 262.617173 -392.727273 
L 260.450487 -392.727273 
L 258.283801 -392.727273 
L 256.117116 -392.727273 
L 253.95043 -392.727273 
L 251.783744 -392.727273 
L 249.617058 -392.727273 
L 247.450373 -392.727273 
L 245.283687 -392.311666 
L 243.117001 -391.480453 
L 240.950315 -390.233633 
L 238.783629 -388.571206 
L 236.616944 -386.493173 
L 234.450258 -383.999533 
L 232.283572 -381.090287 
L 230.116886 -377.765433 
L 227.950201 -374.024974 
L 225.783515 -369.868907 
L 223.616829 -365.297234 
L 221.450143 -360.309954 
L 219.283458 -354.907068 
L 217.116772 -349.088575 
L 214.950086 -342.854475 
L 212.7834 -336.204769 
L 210.616714 -329.139455 
L 208.450029 -321.658536 
L 206.283343 -313.762009 
L 204.116657 -305.449876 
L 201.949971 -297.55335 
L 199.783286 -290.07243 
L 197.6166 -283.007117 
L 195.449914 -276.357411 
L 193.283228 -270.123311 
L 191.116542 -264.304818 
L 188.949857 -258.901932 
L 186.783171 -253.914652 
L 184.616485 -249.342979 
L 182.449799 -245.186912 
L 180.283114 -241.446453 
L 178.116428 -238.121599 
L 175.949742 -235.212353 
L 173.783056 -232.718713 
L 171.616371 -230.64068 
L 169.449685 -228.978253 
L 167.282999 -227.731433 
L 165.116313 -226.90022 
L 162.949627 -226.484613 
L 160.782942 -226.484613 
L 158.616256 -226.484613 
L 156.44957 -226.484613 
L 154.282884 -226.484613 
L 152.116199 -226.484613 
L 149.949513 -226.484613 
L 147.782827 -226.484613 
L 145.616141 -226.484613 
L 143.449455 -226.484613 
L 141.28277 -226.484613 
L 139.116084 -226.484613 
z
" style="stroke: #91db57; stroke-opacity: 0.65"/>
    </defs>
    <g clip-path="url(#p20ee0c0d6f)">
     <use xlink:href="#m33f58383a8" x="0" y="432" style="fill: #91db57; fill-opacity: 0.65; stroke: #91db57; stroke-opacity: 0.65"/>
    </g>
   </g>
   <g id="PolyCollection_16">
    <defs>
     <path id="m0e9c8c236b" d="M 139.116084 -238.522134 
L 139.116084 -233.153567 
L 141.28277 -233.153567 
L 143.449455 -233.153567 
L 145.616141 -233.153567 
L 147.782827 -233.153567 
L 149.949513 -233.153567 
L 152.116199 -233.153567 
L 154.282884 -233.153567 
L 156.44957 -233.153567 
L 158.616256 -233.153567 
L 160.782942 -233.153567 
L 162.949627 -233.153567 
L 165.116313 -233.012851 
L 167.282999 -232.731419 
L 169.449685 -232.30927 
L 171.616371 -231.746406 
L 173.783056 -231.042825 
L 175.949742 -230.198528 
L 178.116428 -229.213516 
L 180.283114 -228.087787 
L 182.449799 -226.821342 
L 184.616485 -225.414181 
L 186.783171 -223.866303 
L 188.949857 -222.17771 
L 191.116542 -220.3484 
L 193.283228 -218.378375 
L 195.449914 -216.267633 
L 197.6166 -214.016175 
L 199.783286 -211.624001 
L 201.949971 -209.091111 
L 204.116657 -206.417505 
L 206.283343 -203.603183 
L 208.450029 -200.929576 
L 210.616714 -198.396686 
L 212.7834 -196.004512 
L 214.950086 -193.753054 
L 217.116772 -191.642313 
L 219.283458 -189.672287 
L 221.450143 -187.842978 
L 223.616829 -186.154384 
L 225.783515 -184.606507 
L 227.950201 -183.199346 
L 230.116886 -181.932901 
L 232.283572 -180.807172 
L 234.450258 -179.822159 
L 236.616944 -178.977862 
L 238.783629 -178.274282 
L 240.950315 -177.711417 
L 243.117001 -177.289269 
L 245.283687 -177.007837 
L 247.450373 -176.867121 
L 249.617058 -176.867121 
L 251.783744 -176.867121 
L 253.95043 -176.867121 
L 256.117116 -176.867121 
L 258.283801 -176.867121 
L 260.450487 -176.867121 
L 262.617173 -176.867121 
L 264.783859 -176.867121 
L 266.950545 -176.867121 
L 269.11723 -176.867121 
L 271.283916 -176.867121 
L 271.283916 -182.235688 
L 271.283916 -182.235688 
L 269.11723 -182.235688 
L 266.950545 -182.235688 
L 264.783859 -182.235688 
L 262.617173 -182.235688 
L 260.450487 -182.235688 
L 258.283801 -182.235688 
L 256.117116 -182.235688 
L 253.95043 -182.235688 
L 251.783744 -182.235688 
L 249.617058 -182.235688 
L 247.450373 -182.235688 
L 245.283687 -182.376404 
L 243.117001 -182.657836 
L 240.950315 -183.079985 
L 238.783629 -183.642849 
L 236.616944 -184.34643 
L 234.450258 -185.190726 
L 232.283572 -186.175739 
L 230.116886 -187.301468 
L 227.950201 -188.567913 
L 225.783515 -189.975074 
L 223.616829 -191.522952 
L 221.450143 -193.211545 
L 219.283458 -195.040855 
L 217.116772 -197.01088 
L 214.950086 -199.121622 
L 212.7834 -201.37308 
L 210.616714 -203.765254 
L 208.450029 -206.298144 
L 206.283343 -208.97175 
L 204.116657 -211.786072 
L 201.949971 -214.459678 
L 199.783286 -216.992569 
L 197.6166 -219.384743 
L 195.449914 -221.6362 
L 193.283228 -223.746942 
L 191.116542 -225.716968 
L 188.949857 -227.546277 
L 186.783171 -229.234871 
L 184.616485 -230.782748 
L 182.449799 -232.189909 
L 180.283114 -233.456354 
L 178.116428 -234.582083 
L 175.949742 -235.567096 
L 173.783056 -236.411393 
L 171.616371 -237.114973 
L 169.449685 -237.677838 
L 167.282999 -238.099986 
L 165.116313 -238.381418 
L 162.949627 -238.522134 
L 160.782942 -238.522134 
L 158.616256 -238.522134 
L 156.44957 -238.522134 
L 154.282884 -238.522134 
L 152.116199 -238.522134 
L 149.949513 -238.522134 
L 147.782827 -238.522134 
L 145.616141 -238.522134 
L 143.449455 -238.522134 
L 141.28277 -238.522134 
L 139.116084 -238.522134 
z
" style="stroke: #57d3db; stroke-opacity: 0.65"/>
    </defs>
    <g clip-path="url(#p20ee0c0d6f)">
     <use xlink:href="#m0e9c8c236b" x="0" y="432" style="fill: #57d3db; fill-opacity: 0.65; stroke: #57d3db; stroke-opacity: 0.65"/>
    </g>
   </g>
   <g id="PolyCollection_17">
    <defs>
     <path id="md6619c0d59" d="M 139.116084 -243.691866 
L 139.116084 -238.522134 
L 141.28277 -238.522134 
L 143.449455 -238.522134 
L 145.616141 -238.522134 
L 147.782827 -238.522134 
L 149.949513 -238.522134 
L 152.116199 -238.522134 
L 154.282884 -238.522134 
L 156.44957 -238.522134 
L 158.616256 -238.522134 
L 160.782942 -238.522134 
L 162.949627 -238.522134 
L 165.116313 -238.414495 
L 167.282999 -238.199215 
L 169.449685 -237.876296 
L 171.616371 -237.445737 
L 173.783056 -236.907538 
L 175.949742 -236.261699 
L 178.116428 -235.508221 
L 180.283114 -234.647102 
L 182.449799 -233.678344 
L 184.616485 -232.601947 
L 186.783171 -231.417909 
L 188.949857 -230.126232 
L 191.116542 -228.726915 
L 193.283228 -227.219958 
L 195.449914 -225.605361 
L 197.6166 -223.883125 
L 199.783286 -222.053249 
L 201.949971 -220.115733 
L 204.116657 -218.070577 
L 206.283343 -215.917781 
L 208.450029 -213.872626 
L 210.616714 -211.93511 
L 212.7834 -210.105233 
L 214.950086 -208.382997 
L 217.116772 -206.7684 
L 219.283458 -205.261444 
L 221.450143 -203.862127 
L 223.616829 -202.570449 
L 225.783515 -201.386412 
L 227.950201 -200.310014 
L 230.116886 -199.341256 
L 232.283572 -198.480138 
L 234.450258 -197.726659 
L 236.616944 -197.080821 
L 238.783629 -196.542622 
L 240.950315 -196.112063 
L 243.117001 -195.789143 
L 245.283687 -195.573864 
L 247.450373 -195.466224 
L 249.617058 -195.466224 
L 251.783744 -195.466224 
L 253.95043 -195.466224 
L 256.117116 -195.466224 
L 258.283801 -195.466224 
L 260.450487 -195.466224 
L 262.617173 -195.466224 
L 264.783859 -195.466224 
L 266.950545 -195.466224 
L 269.11723 -195.466224 
L 271.283916 -195.466224 
L 271.283916 -200.635956 
L 271.283916 -200.635956 
L 269.11723 -200.635956 
L 266.950545 -200.635956 
L 264.783859 -200.635956 
L 262.617173 -200.635956 
L 260.450487 -200.635956 
L 258.283801 -200.635956 
L 256.117116 -200.635956 
L 253.95043 -200.635956 
L 251.783744 -200.635956 
L 249.617058 -200.635956 
L 247.450373 -200.635956 
L 245.283687 -200.743595 
L 243.117001 -200.958875 
L 240.950315 -201.281794 
L 238.783629 -201.712353 
L 236.616944 -202.250552 
L 234.450258 -202.896391 
L 232.283572 -203.649869 
L 230.116886 -204.510987 
L 227.950201 -205.479745 
L 225.783515 -206.556143 
L 223.616829 -207.740181 
L 221.450143 -209.031858 
L 219.283458 -210.431175 
L 217.116772 -211.938132 
L 214.950086 -213.552729 
L 212.7834 -215.274965 
L 210.616714 -217.104841 
L 208.450029 -219.042357 
L 206.283343 -221.087513 
L 204.116657 -223.240308 
L 201.949971 -225.285464 
L 199.783286 -227.22298 
L 197.6166 -229.052856 
L 195.449914 -230.775093 
L 193.283228 -232.389689 
L 191.116542 -233.896646 
L 188.949857 -235.295963 
L 186.783171 -236.587641 
L 184.616485 -237.771678 
L 182.449799 -238.848076 
L 180.283114 -239.816834 
L 178.116428 -240.677952 
L 175.949742 -241.431431 
L 173.783056 -242.077269 
L 171.616371 -242.615468 
L 169.449685 -243.046027 
L 167.282999 -243.368947 
L 165.116313 -243.584226 
L 162.949627 -243.691866 
L 160.782942 -243.691866 
L 158.616256 -243.691866 
L 156.44957 -243.691866 
L 154.282884 -243.691866 
L 152.116199 -243.691866 
L 149.949513 -243.691866 
L 147.782827 -243.691866 
L 145.616141 -243.691866 
L 143.449455 -243.691866 
L 141.28277 -243.691866 
L 139.116084 -243.691866 
z
" style="stroke: #57d3db; stroke-opacity: 0.65"/>
    </defs>
    <g clip-path="url(#p20ee0c0d6f)">
     <use xlink:href="#md6619c0d59" x="0" y="432" style="fill: #57d3db; fill-opacity: 0.65; stroke: #57d3db; stroke-opacity: 0.65"/>
    </g>
   </g>
   <g id="PolyCollection_18">
    <defs>
     <path id="mb843cb6103" d="M 139.116084 -345.893482 
L 139.116084 -243.691866 
L 141.28277 -243.691866 
L 143.449455 -243.691866 
L 145.616141 -243.691866 
L 147.782827 -243.691866 
L 149.949513 -243.691866 
L 152.116199 -243.691866 
L 154.282884 -243.691866 
L 156.44957 -243.691866 
L 158.616256 -243.691866 
L 160.782942 -243.691866 
L 162.949627 -243.691866 
L 165.116313 -243.753505 
L 167.282999 -243.876783 
L 169.449685 -244.0617 
L 171.616371 -244.308257 
L 173.783056 -244.616452 
L 175.949742 -244.986287 
L 178.116428 -245.417761 
L 180.283114 -245.910874 
L 182.449799 -246.465626 
L 184.616485 -247.082017 
L 186.783171 -247.760047 
L 188.949857 -248.499716 
L 191.116542 -249.301025 
L 193.283228 -250.163972 
L 195.449914 -251.088559 
L 197.6166 -252.074784 
L 199.783286 -253.122649 
L 201.949971 -254.232153 
L 204.116657 -255.403296 
L 206.283343 -256.636078 
L 208.450029 -257.807221 
L 210.616714 -258.916725 
L 212.7834 -259.96459 
L 214.950086 -260.950816 
L 217.116772 -261.875402 
L 219.283458 -262.73835 
L 221.450143 -263.539658 
L 223.616829 -264.279328 
L 225.783515 -264.957358 
L 227.950201 -265.573749 
L 230.116886 -266.128501 
L 232.283572 -266.621614 
L 234.450258 -267.053087 
L 236.616944 -267.422922 
L 238.783629 -267.731118 
L 240.950315 -267.977674 
L 243.117001 -268.162591 
L 245.283687 -268.285869 
L 247.450373 -268.347509 
L 249.617058 -268.347509 
L 251.783744 -268.347509 
L 253.95043 -268.347509 
L 256.117116 -268.347509 
L 258.283801 -268.347509 
L 260.450487 -268.347509 
L 262.617173 -268.347509 
L 264.783859 -268.347509 
L 266.950545 -268.347509 
L 269.11723 -268.347509 
L 271.283916 -268.347509 
L 271.283916 -370.549124 
L 271.283916 -370.549124 
L 269.11723 -370.549124 
L 266.950545 -370.549124 
L 264.783859 -370.549124 
L 262.617173 -370.549124 
L 260.450487 -370.549124 
L 258.283801 -370.549124 
L 256.117116 -370.549124 
L 253.95043 -370.549124 
L 251.783744 -370.549124 
L 249.617058 -370.549124 
L 247.450373 -370.549124 
L 245.283687 -370.487485 
L 243.117001 -370.364207 
L 240.950315 -370.17929 
L 238.783629 -369.932733 
L 236.616944 -369.624538 
L 234.450258 -369.254703 
L 232.283572 -368.823229 
L 230.116886 -368.330117 
L 227.950201 -367.775365 
L 225.783515 -367.158974 
L 223.616829 -366.480943 
L 221.450143 -365.741274 
L 219.283458 -364.939966 
L 217.116772 -364.077018 
L 214.950086 -363.152432 
L 212.7834 -362.166206 
L 210.616714 -361.118341 
L 208.450029 -360.008837 
L 206.283343 -358.837694 
L 204.116657 -357.604912 
L 201.949971 -356.433769 
L 199.783286 -355.324265 
L 197.6166 -354.2764 
L 195.449914 -353.290175 
L 193.283228 -352.365588 
L 191.116542 -351.50264 
L 188.949857 -350.701332 
L 186.783171 -349.961663 
L 184.616485 -349.283633 
L 182.449799 -348.667241 
L 180.283114 -348.11249 
L 178.116428 -347.619377 
L 175.949742 -347.187903 
L 173.783056 -346.818068 
L 171.616371 -346.509873 
L 169.449685 -346.263316 
L 167.282999 -346.078399 
L 165.116313 -345.955121 
L 162.949627 -345.893482 
L 160.782942 -345.893482 
L 158.616256 -345.893482 
L 156.44957 -345.893482 
L 154.282884 -345.893482 
L 152.116199 -345.893482 
L 149.949513 -345.893482 
L 147.782827 -345.893482 
L 145.616141 -345.893482 
L 143.449455 -345.893482 
L 141.28277 -345.893482 
L 139.116084 -345.893482 
z
" style="stroke: #57d3db; stroke-opacity: 0.65"/>
    </defs>
    <g clip-path="url(#p20ee0c0d6f)">
     <use xlink:href="#mb843cb6103" x="0" y="432" style="fill: #57d3db; fill-opacity: 0.65; stroke: #57d3db; stroke-opacity: 0.65"/>
    </g>
   </g>
   <g id="PolyCollection_19">
    <defs>
     <path id="m8a9112c9de" d="M 139.116084 -388.949392 
L 139.116084 -352.562435 
L 141.28277 -352.562435 
L 143.449455 -352.562435 
L 145.616141 -352.562435 
L 147.782827 -352.562435 
L 149.949513 -352.562435 
L 152.116199 -352.562435 
L 154.282884 -352.562435 
L 156.44957 -352.562435 
L 158.616256 -352.562435 
L 160.782942 -352.562435 
L 162.949627 -352.562435 
L 165.116313 -352.182619 
L 167.282999 -351.422987 
L 169.449685 -350.283538 
L 171.616371 -348.764273 
L 173.783056 -346.865192 
L 175.949742 -344.586295 
L 178.116428 -341.927582 
L 180.283114 -338.889052 
L 182.449799 -335.470706 
L 184.616485 -331.672544 
L 186.783171 -327.494566 
L 188.949857 -322.936772 
L 191.116542 -317.999161 
L 193.283228 -312.681734 
L 195.449914 -306.984491 
L 197.6166 -300.907432 
L 199.783286 -294.450557 
L 201.949971 -287.613865 
L 204.116657 -280.397357 
L 206.283343 -272.801033 
L 208.450029 -265.584526 
L 210.616714 -258.747834 
L 212.7834 -252.290959 
L 214.950086 -246.213899 
L 217.116772 -240.516656 
L 219.283458 -235.19923 
L 221.450143 -230.261619 
L 223.616829 -225.703825 
L 225.783515 -221.525847 
L 227.950201 -217.727685 
L 230.116886 -214.309339 
L 232.283572 -211.270809 
L 234.450258 -208.612096 
L 236.616944 -206.333199 
L 238.783629 -204.434118 
L 240.950315 -202.914853 
L 243.117001 -201.775404 
L 245.283687 -201.015772 
L 247.450373 -200.635956 
L 249.617058 -200.635956 
L 251.783744 -200.635956 
L 253.95043 -200.635956 
L 256.117116 -200.635956 
L 258.283801 -200.635956 
L 260.450487 -200.635956 
L 262.617173 -200.635956 
L 264.783859 -200.635956 
L 266.950545 -200.635956 
L 269.11723 -200.635956 
L 271.283916 -200.635956 
L 271.283916 -237.022912 
L 271.283916 -237.022912 
L 269.11723 -237.022912 
L 266.950545 -237.022912 
L 264.783859 -237.022912 
L 262.617173 -237.022912 
L 260.450487 -237.022912 
L 258.283801 -237.022912 
L 256.117116 -237.022912 
L 253.95043 -237.022912 
L 251.783744 -237.022912 
L 249.617058 -237.022912 
L 247.450373 -237.022912 
L 245.283687 -237.402728 
L 243.117001 -238.162361 
L 240.950315 -239.301809 
L 238.783629 -240.821074 
L 236.616944 -242.720155 
L 234.450258 -244.999052 
L 232.283572 -247.657766 
L 230.116886 -250.696295 
L 227.950201 -254.114641 
L 225.783515 -257.912803 
L 223.616829 -262.090781 
L 221.450143 -266.648576 
L 219.283458 -271.586186 
L 217.116772 -276.903613 
L 214.950086 -282.600856 
L 212.7834 -288.677915 
L 210.616714 -295.134791 
L 208.450029 -301.971482 
L 206.283343 -309.18799 
L 204.116657 -316.784314 
L 201.949971 -324.000822 
L 199.783286 -330.837513 
L 197.6166 -337.294389 
L 195.449914 -343.371448 
L 193.283228 -349.068691 
L 191.116542 -354.386118 
L 188.949857 -359.323728 
L 186.783171 -363.881523 
L 184.616485 -368.059501 
L 182.449799 -371.857663 
L 180.283114 -375.276009 
L 178.116428 -378.314538 
L 175.949742 -380.973252 
L 173.783056 -383.252149 
L 171.616371 -385.15123 
L 169.449685 -386.670495 
L 167.282999 -387.809943 
L 165.116313 -388.569576 
L 162.949627 -388.949392 
L 160.782942 -388.949392 
L 158.616256 -388.949392 
L 156.44957 -388.949392 
L 154.282884 -388.949392 
L 152.116199 -388.949392 
L 149.949513 -388.949392 
L 147.782827 -388.949392 
L 145.616141 -388.949392 
L 143.449455 -388.949392 
L 141.28277 -388.949392 
L 139.116084 -388.949392 
z
" style="stroke: #a157db; stroke-opacity: 0.65"/>
    </defs>
    <g clip-path="url(#p20ee0c0d6f)">
     <use xlink:href="#m8a9112c9de" x="0" y="432" style="fill: #a157db; fill-opacity: 0.65; stroke: #a157db; stroke-opacity: 0.65"/>
    </g>
   </g>
   <g id="PolyCollection_20">
    <defs>
     <path id="ma31fe0c338" d="M 139.116084 -392.727273 
L 139.116084 -388.949392 
L 141.28277 -388.949392 
L 143.449455 -388.949392 
L 145.616141 -388.949392 
L 147.782827 -388.949392 
L 149.949513 -388.949392 
L 152.116199 -388.949392 
L 154.282884 -388.949392 
L 156.44957 -388.949392 
L 158.616256 -388.949392 
L 160.782942 -388.949392 
L 162.949627 -388.949392 
L 165.116313 -388.903391 
L 167.282999 -388.81139 
L 169.449685 -388.673388 
L 171.616371 -388.489385 
L 173.783056 -388.259382 
L 175.949742 -387.983378 
L 178.116428 -387.661373 
L 180.283114 -387.293368 
L 182.449799 -386.879362 
L 184.616485 -386.419355 
L 186.783171 -385.913348 
L 188.949857 -385.36134 
L 191.116542 -384.763331 
L 193.283228 -384.119322 
L 195.449914 -383.429312 
L 197.6166 -382.693301 
L 199.783286 -381.91129 
L 201.949971 -381.083278 
L 204.116657 -380.209265 
L 206.283343 -379.289252 
L 208.450029 -378.415239 
L 210.616714 -377.587227 
L 212.7834 -376.805215 
L 214.950086 -376.069205 
L 217.116772 -375.379195 
L 219.283458 -374.735185 
L 221.450143 -374.137177 
L 223.616829 -373.585169 
L 225.783515 -373.079161 
L 227.950201 -372.619155 
L 230.116886 -372.205148 
L 232.283572 -371.837143 
L 234.450258 -371.515138 
L 236.616944 -371.239134 
L 238.783629 -371.009131 
L 240.950315 -370.825128 
L 243.117001 -370.687126 
L 245.283687 -370.595125 
L 247.450373 -370.549124 
L 249.617058 -370.549124 
L 251.783744 -370.549124 
L 253.95043 -370.549124 
L 256.117116 -370.549124 
L 258.283801 -370.549124 
L 260.450487 -370.549124 
L 262.617173 -370.549124 
L 264.783859 -370.549124 
L 266.950545 -370.549124 
L 269.11723 -370.549124 
L 271.283916 -370.549124 
L 271.283916 -374.327005 
L 271.283916 -374.327005 
L 269.11723 -374.327005 
L 266.950545 -374.327005 
L 264.783859 -374.327005 
L 262.617173 -374.327005 
L 260.450487 -374.327005 
L 258.283801 -374.327005 
L 256.117116 -374.327005 
L 253.95043 -374.327005 
L 251.783744 -374.327005 
L 249.617058 -374.327005 
L 247.450373 -374.327005 
L 245.283687 -374.373006 
L 243.117001 -374.465007 
L 240.950315 -374.603009 
L 238.783629 -374.787012 
L 236.616944 -375.017015 
L 234.450258 -375.293019 
L 232.283572 -375.615024 
L 230.116886 -375.983029 
L 227.950201 -376.397035 
L 225.783515 -376.857042 
L 223.616829 -377.363049 
L 221.450143 -377.915057 
L 219.283458 -378.513066 
L 217.116772 -379.157075 
L 214.950086 -379.847085 
L 212.7834 -380.583096 
L 210.616714 -381.365108 
L 208.450029 -382.19312 
L 206.283343 -383.067132 
L 204.116657 -383.987146 
L 201.949971 -384.861158 
L 199.783286 -385.68917 
L 197.6166 -386.471182 
L 195.449914 -387.207192 
L 193.283228 -387.897202 
L 191.116542 -388.541212 
L 188.949857 -389.139221 
L 186.783171 -389.691229 
L 184.616485 -390.197236 
L 182.449799 -390.657243 
L 180.283114 -391.071249 
L 178.116428 -391.439254 
L 175.949742 -391.761259 
L 173.783056 -392.037263 
L 171.616371 -392.267266 
L 169.449685 -392.451269 
L 167.282999 -392.589271 
L 165.116313 -392.681272 
L 162.949627 -392.727273 
L 160.782942 -392.727273 
L 158.616256 -392.727273 
L 156.44957 -392.727273 
L 154.282884 -392.727273 
L 152.116199 -392.727273 
L 149.949513 -392.727273 
L 147.782827 -392.727273 
L 145.616141 -392.727273 
L 143.449455 -392.727273 
L 141.28277 -392.727273 
L 139.116084 -392.727273 
z
" style="stroke: #a157db; stroke-opacity: 0.65"/>
    </defs>
    <g clip-path="url(#p20ee0c0d6f)">
     <use xlink:href="#ma31fe0c338" x="0" y="432" style="fill: #a157db; fill-opacity: 0.65; stroke: #a157db; stroke-opacity: 0.65"/>
    </g>
   </g>
   <g id="text_1">
    <!-- Molecular layer -->
    <g transform="translate(52.46238 313.992282) scale(0.1 -0.1)">
     <defs>
      <path id="DejaVuSerif-4d" d="M 353 0 
L 353 331 
L 947 331 
L 947 4331 
L 319 4331 
L 319 4666 
L 1678 4666 
L 3316 1344 
L 4953 4666 
L 6228 4666 
L 6228 4331 
L 5606 4331 
L 5606 331 
L 6203 331 
L 6203 0 
L 4378 0 
L 4378 331 
L 4972 331 
L 4972 3938 
L 3372 684 
L 2931 684 
L 1331 3938 
L 1331 331 
L 1925 331 
L 1925 0 
L 353 0 
z
" transform="scale(0.015625)"/>
      <path id="DejaVuSerif-6f" d="M 1925 219 
Q 2388 219 2623 584 
Q 2859 950 2859 1663 
Q 2859 2375 2623 2739 
Q 2388 3103 1925 3103 
Q 1463 3103 1227 2739 
Q 991 2375 991 1663 
Q 991 950 1228 584 
Q 1466 219 1925 219 
z
M 1925 -91 
Q 1200 -91 759 389 
Q 319 869 319 1663 
Q 319 2456 758 2934 
Q 1197 3413 1925 3413 
Q 2653 3413 3092 2934 
Q 3531 2456 3531 1663 
Q 3531 869 3092 389 
Q 2653 -91 1925 -91 
z
" transform="scale(0.015625)"/>
      <path id="DejaVuSerif-6c" d="M 1313 331 
L 1856 331 
L 1856 0 
L 184 0 
L 184 331 
L 738 331 
L 738 4531 
L 184 4531 
L 184 4863 
L 1313 4863 
L 1313 331 
z
" transform="scale(0.015625)"/>
      <path id="DejaVuSerif-65" d="M 3469 1600 
L 991 1600 
L 991 1575 
Q 991 903 1244 561 
Q 1497 219 1991 219 
Q 2369 219 2611 417 
Q 2853 616 2950 1006 
L 3413 1006 
Q 3275 459 2904 184 
Q 2534 -91 1931 -91 
Q 1203 -91 761 389 
Q 319 869 319 1663 
Q 319 2450 753 2931 
Q 1188 3413 1894 3413 
Q 2647 3413 3050 2948 
Q 3453 2484 3469 1600 
z
M 2791 1931 
Q 2772 2513 2545 2808 
Q 2319 3103 1894 3103 
Q 1497 3103 1269 2806 
Q 1041 2509 991 1931 
L 2791 1931 
z
" transform="scale(0.015625)"/>
      <path id="DejaVuSerif-63" d="M 3291 997 
Q 3169 466 2822 187 
Q 2475 -91 1925 -91 
Q 1200 -91 759 389 
Q 319 869 319 1663 
Q 319 2459 759 2936 
Q 1200 3413 1925 3413 
Q 2241 3413 2553 3339 
Q 2866 3266 3181 3116 
L 3181 2266 
L 2847 2266 
Q 2781 2703 2561 2903 
Q 2341 3103 1931 3103 
Q 1466 3103 1228 2742 
Q 991 2381 991 1663 
Q 991 944 1227 581 
Q 1463 219 1931 219 
Q 2303 219 2525 412 
Q 2747 606 2828 997 
L 3291 997 
z
" transform="scale(0.015625)"/>
      <path id="DejaVuSerif-75" d="M 2266 3322 
L 3341 3322 
L 3341 331 
L 3884 331 
L 3884 0 
L 2766 0 
L 2766 588 
Q 2606 256 2353 82 
Q 2100 -91 1766 -91 
Q 1213 -91 952 223 
Q 691 538 691 1209 
L 691 2988 
L 172 2988 
L 172 3322 
L 1269 3322 
L 1269 1388 
Q 1269 781 1417 556 
Q 1566 331 1947 331 
Q 2347 331 2556 625 
Q 2766 919 2766 1478 
L 2766 2988 
L 2266 2988 
L 2266 3322 
z
" transform="scale(0.015625)"/>
      <path id="DejaVuSerif-61" d="M 2547 1044 
L 2547 1747 
L 1806 1747 
Q 1378 1747 1168 1562 
Q 959 1378 959 997 
Q 959 650 1171 447 
Q 1384 244 1747 244 
Q 2106 244 2326 466 
Q 2547 688 2547 1044 
z
M 3122 2075 
L 3122 331 
L 3634 331 
L 3634 0 
L 2547 0 
L 2547 359 
Q 2356 128 2106 18 
Q 1856 -91 1522 -91 
Q 969 -91 644 203 
Q 319 497 319 997 
Q 319 1513 691 1797 
Q 1063 2081 1741 2081 
L 2547 2081 
L 2547 2309 
Q 2547 2688 2317 2895 
Q 2088 3103 1672 3103 
Q 1328 3103 1125 2947 
Q 922 2791 872 2484 
L 575 2484 
L 575 3156 
Q 875 3284 1158 3348 
Q 1441 3413 1709 3413 
Q 2400 3413 2761 3070 
Q 3122 2728 3122 2075 
z
" transform="scale(0.015625)"/>
      <path id="DejaVuSerif-72" d="M 3059 3328 
L 3059 2497 
L 2728 2497 
Q 2713 2744 2591 2866 
Q 2469 2988 2234 2988 
Q 1809 2988 1582 2694 
Q 1356 2400 1356 1850 
L 1356 331 
L 2022 331 
L 2022 0 
L 263 0 
L 263 331 
L 781 331 
L 781 2994 
L 231 2994 
L 231 3322 
L 1356 3322 
L 1356 2731 
Q 1525 3078 1790 3245 
Q 2056 3413 2438 3413 
Q 2578 3413 2733 3391 
Q 2888 3369 3059 3328 
z
" transform="scale(0.015625)"/>
      <path id="DejaVuSerif-20" transform="scale(0.015625)"/>
      <path id="DejaVuSerif-79" d="M 1381 -609 
L 1600 -56 
L 359 2988 
L -19 2988 
L -19 3322 
L 1509 3322 
L 1509 2988 
L 978 2988 
L 1913 703 
L 2847 2988 
L 2350 2988 
L 2350 3322 
L 3597 3322 
L 3597 2988 
L 3225 2988 
L 1703 -750 
Q 1547 -1138 1356 -1280 
Q 1166 -1422 819 -1422 
Q 672 -1422 517 -1397 
Q 363 -1372 206 -1325 
L 206 -691 
L 500 -691 
Q 519 -903 608 -995 
Q 697 -1088 884 -1088 
Q 1056 -1088 1161 -992 
Q 1266 -897 1381 -609 
z
" transform="scale(0.015625)"/>
     </defs>
     <use xlink:href="#DejaVuSerif-4d"/>
     <use xlink:href="#DejaVuSerif-6f" x="102.392578"/>
     <use xlink:href="#DejaVuSerif-6c" x="162.597656"/>
     <use xlink:href="#DejaVuSerif-65" x="194.580078"/>
     <use xlink:href="#DejaVuSerif-63" x="253.759766"/>
     <use xlink:href="#DejaVuSerif-75" x="309.765625"/>
     <use xlink:href="#DejaVuSerif-6c" x="374.169922"/>
     <use xlink:href="#DejaVuSerif-61" x="406.152344"/>
     <use xlink:href="#DejaVuSerif-72" x="465.771484"/>
     <use xlink:href="#DejaVuSerif-20" x="513.574219"/>
     <use xlink:href="#DejaVuSerif-6c" x="545.361328"/>
     <use xlink:href="#DejaVuSerif-61" x="577.34375"/>
     <use xlink:href="#DejaVuSerif-79" x="636.962891"/>
     <use xlink:href="#DejaVuSerif-65" x="693.457031"/>
     <use xlink:href="#DejaVuSerif-72" x="752.636719"/>
    </g>
   </g>
   <g id="text_2">
    <!-- Lateral recess -->
    <g transform="translate(60.36863 217.122956) scale(0.1 -0.1)">
     <defs>
      <path id="DejaVuSerif-4c" d="M 353 0 
L 353 331 
L 947 331 
L 947 4331 
L 353 4331 
L 353 4666 
L 2175 4666 
L 2175 4331 
L 1581 4331 
L 1581 384 
L 3713 384 
L 3713 1166 
L 4097 1166 
L 4097 0 
L 353 0 
z
" transform="scale(0.015625)"/>
      <path id="DejaVuSerif-74" d="M 691 2988 
L 184 2988 
L 184 3322 
L 691 3322 
L 691 4353 
L 1269 4353 
L 1269 3322 
L 2350 3322 
L 2350 2988 
L 1269 2988 
L 1269 878 
Q 1269 456 1350 337 
Q 1431 219 1650 219 
Q 1875 219 1978 351 
Q 2081 484 2088 781 
L 2522 781 
Q 2497 328 2275 118 
Q 2053 -91 1600 -91 
Q 1103 -91 897 129 
Q 691 350 691 878 
L 691 2988 
z
" transform="scale(0.015625)"/>
      <path id="DejaVuSerif-73" d="M 359 184 
L 359 959 
L 691 959 
Q 703 588 923 403 
Q 1144 219 1575 219 
Q 1963 219 2166 364 
Q 2369 509 2369 788 
Q 2369 1006 2220 1140 
Q 2072 1275 1594 1428 
L 1178 1569 
Q 750 1706 558 1912 
Q 366 2119 366 2438 
Q 366 2894 700 3153 
Q 1034 3413 1625 3413 
Q 1888 3413 2178 3344 
Q 2469 3275 2778 3144 
L 2778 2419 
L 2447 2419 
Q 2434 2741 2221 2922 
Q 2009 3103 1644 3103 
Q 1281 3103 1095 2975 
Q 909 2847 909 2591 
Q 909 2381 1050 2254 
Q 1191 2128 1613 1997 
L 2069 1856 
Q 2541 1709 2748 1489 
Q 2956 1269 2956 922 
Q 2956 450 2595 179 
Q 2234 -91 1600 -91 
Q 1278 -91 972 -22 
Q 666 47 359 184 
z
" transform="scale(0.015625)"/>
     </defs>
     <use xlink:href="#DejaVuSerif-4c"/>
     <use xlink:href="#DejaVuSerif-61" x="66.40625"/>
     <use xlink:href="#DejaVuSerif-74" x="126.025391"/>
     <use xlink:href="#DejaVuSerif-65" x="166.210938"/>
     <use xlink:href="#DejaVuSerif-72" x="225.390625"/>
     <use xlink:href="#DejaVuSerif-61" x="273.193359"/>
     <use xlink:href="#DejaVuSerif-6c" x="332.8125"/>
     <use xlink:href="#DejaVuSerif-20" x="364.794922"/>
     <use xlink:href="#DejaVuSerif-72" x="396.582031"/>
     <use xlink:href="#DejaVuSerif-65" x="444.384766"/>
     <use xlink:href="#DejaVuSerif-63" x="503.564453"/>
     <use xlink:href="#DejaVuSerif-65" x="559.570312"/>
     <use xlink:href="#DejaVuSerif-73" x="618.75"/>
     <use xlink:href="#DejaVuSerif-73" x="670.068359"/>
    </g>
   </g>
   <g id="text_3">
    <!-- Granular layer -->
    <g transform="translate(58.267067 145.164757) scale(0.1 -0.1)">
     <defs>
      <path id="DejaVuSerif-47" d="M 4097 3272 
Q 3988 3856 3641 4136 
Q 3294 4416 2675 4416 
Q 1869 4416 1472 3897 
Q 1075 3378 1075 2328 
Q 1075 1300 1484 772 
Q 1894 244 2688 244 
Q 3041 244 3362 331 
Q 3684 419 3975 594 
L 3975 1797 
L 3097 1797 
L 3097 2131 
L 4609 2131 
L 4609 391 
Q 4194 150 3714 29 
Q 3234 -91 2688 -91 
Q 1631 -91 995 570 
Q 359 1231 359 2328 
Q 359 3434 996 4092 
Q 1634 4750 2713 4750 
Q 3113 4750 3539 4658 
Q 3966 4566 4447 4378 
L 4447 3272 
L 4097 3272 
z
" transform="scale(0.015625)"/>
      <path id="DejaVuSerif-6e" d="M 263 0 
L 263 331 
L 781 331 
L 781 2988 
L 231 2988 
L 231 3322 
L 1356 3322 
L 1356 2731 
Q 1516 3069 1770 3241 
Q 2025 3413 2363 3413 
Q 2913 3413 3172 3097 
Q 3431 2781 3431 2113 
L 3431 331 
L 3944 331 
L 3944 0 
L 2356 0 
L 2356 331 
L 2853 331 
L 2853 1931 
Q 2853 2541 2703 2767 
Q 2553 2994 2175 2994 
Q 1775 2994 1565 2701 
Q 1356 2409 1356 1850 
L 1356 331 
L 1856 331 
L 1856 0 
L 263 0 
z
" transform="scale(0.015625)"/>
     </defs>
     <use xlink:href="#DejaVuSerif-47"/>
     <use xlink:href="#DejaVuSerif-72" x="79.882812"/>
     <use xlink:href="#DejaVuSerif-61" x="127.685547"/>
     <use xlink:href="#DejaVuSerif-6e" x="187.304688"/>
     <use xlink:href="#DejaVuSerif-75" x="251.708984"/>
     <use xlink:href="#DejaVuSerif-6c" x="316.113281"/>
     <use xlink:href="#DejaVuSerif-61" x="348.095703"/>
     <use xlink:href="#DejaVuSerif-72" x="407.714844"/>
     <use xlink:href="#DejaVuSerif-20" x="455.517578"/>
     <use xlink:href="#DejaVuSerif-6c" x="487.304688"/>
     <use xlink:href="#DejaVuSerif-61" x="519.287109"/>
     <use xlink:href="#DejaVuSerif-79" x="578.90625"/>
     <use xlink:href="#DejaVuSerif-65" x="635.400391"/>
     <use xlink:href="#DejaVuSerif-72" x="694.580078"/>
    </g>
   </g>
   <g id="text_4">
    <!-- Fiber tracts -->
    <g transform="translate(72.58113 62.114521) scale(0.1 -0.1)">
     <defs>
      <path id="DejaVuSerif-46" d="M 353 0 
L 353 331 
L 947 331 
L 947 4331 
L 353 4331 
L 353 4666 
L 4172 4666 
L 4172 3628 
L 3788 3628 
L 3788 4281 
L 1581 4281 
L 1581 2719 
L 3175 2719 
L 3175 3303 
L 3559 3303 
L 3559 1753 
L 3175 1753 
L 3175 2338 
L 1581 2338 
L 1581 331 
L 2328 331 
L 2328 0 
L 353 0 
z
" transform="scale(0.015625)"/>
      <path id="DejaVuSerif-69" d="M 622 4353 
Q 622 4497 726 4603 
Q 831 4709 978 4709 
Q 1122 4709 1226 4603 
Q 1331 4497 1331 4353 
Q 1331 4206 1228 4103 
Q 1125 4000 978 4000 
Q 831 4000 726 4103 
Q 622 4206 622 4353 
z
M 1356 331 
L 1900 331 
L 1900 0 
L 231 0 
L 231 331 
L 781 331 
L 781 2988 
L 231 2988 
L 231 3322 
L 1356 3322 
L 1356 331 
z
" transform="scale(0.015625)"/>
      <path id="DejaVuSerif-62" d="M 738 331 
L 738 4531 
L 184 4531 
L 184 4863 
L 1313 4863 
L 1313 2803 
Q 1481 3116 1742 3264 
Q 2003 3413 2388 3413 
Q 3000 3413 3387 2928 
Q 3775 2444 3775 1663 
Q 3775 881 3387 395 
Q 3000 -91 2388 -91 
Q 2003 -91 1742 57 
Q 1481 206 1313 519 
L 1313 0 
L 184 0 
L 184 331 
L 738 331 
z
M 1313 1497 
Q 1313 897 1542 583 
Q 1772 269 2209 269 
Q 2650 269 2876 622 
Q 3103 975 3103 1663 
Q 3103 2353 2876 2703 
Q 2650 3053 2209 3053 
Q 1772 3053 1542 2737 
Q 1313 2422 1313 1825 
L 1313 1497 
z
" transform="scale(0.015625)"/>
     </defs>
     <use xlink:href="#DejaVuSerif-46"/>
     <use xlink:href="#DejaVuSerif-69" x="69.384766"/>
     <use xlink:href="#DejaVuSerif-62" x="101.367188"/>
     <use xlink:href="#DejaVuSerif-65" x="165.380859"/>
     <use xlink:href="#DejaVuSerif-72" x="224.560547"/>
     <use xlink:href="#DejaVuSerif-20" x="272.363281"/>
     <use xlink:href="#DejaVuSerif-74" x="304.150391"/>
     <use xlink:href="#DejaVuSerif-72" x="344.335938"/>
     <use xlink:href="#DejaVuSerif-61" x="392.138672"/>
     <use xlink:href="#DejaVuSerif-63" x="451.757812"/>
     <use xlink:href="#DejaVuSerif-74" x="507.763672"/>
     <use xlink:href="#DejaVuSerif-73" x="547.949219"/>
    </g>
   </g>
   <g id="text_5">
    <!-- Molecular layer -->
    <g transform="translate(277.892308 323.934074) scale(0.1 -0.1)">
     <use xlink:href="#DejaVuSerif-4d"/>
     <use xlink:href="#DejaVuSerif-6f" x="102.392578"/>
     <use xlink:href="#DejaVuSerif-6c" x="162.597656"/>
     <use xlink:href="#DejaVuSerif-65" x="194.580078"/>
     <use xlink:href="#DejaVuSerif-63" x="253.759766"/>
     <use xlink:href="#DejaVuSerif-75" x="309.765625"/>
     <use xlink:href="#DejaVuSerif-6c" x="374.169922"/>
     <use xlink:href="#DejaVuSerif-61" x="406.152344"/>
     <use xlink:href="#DejaVuSerif-72" x="465.771484"/>
     <use xlink:href="#DejaVuSerif-20" x="513.574219"/>
     <use xlink:href="#DejaVuSerif-6c" x="545.361328"/>
     <use xlink:href="#DejaVuSerif-61" x="577.34375"/>
     <use xlink:href="#DejaVuSerif-79" x="636.962891"/>
     <use xlink:href="#DejaVuSerif-65" x="693.457031"/>
     <use xlink:href="#DejaVuSerif-72" x="752.636719"/>
    </g>
   </g>
   <g id="text_6">
    <!-- Fiber tracts -->
    <g transform="translate(277.892308 221.795598) scale(0.1 -0.1)">
     <use xlink:href="#DejaVuSerif-46"/>
     <use xlink:href="#DejaVuSerif-69" x="69.384766"/>
     <use xlink:href="#DejaVuSerif-62" x="101.367188"/>
     <use xlink:href="#DejaVuSerif-65" x="165.380859"/>
     <use xlink:href="#DejaVuSerif-72" x="224.560547"/>
     <use xlink:href="#DejaVuSerif-20" x="272.363281"/>
     <use xlink:href="#DejaVuSerif-74" x="304.150391"/>
     <use xlink:href="#DejaVuSerif-72" x="344.335938"/>
     <use xlink:href="#DejaVuSerif-61" x="392.138672"/>
     <use xlink:href="#DejaVuSerif-63" x="451.757812"/>
     <use xlink:href="#DejaVuSerif-74" x="507.763672"/>
     <use xlink:href="#DejaVuSerif-73" x="547.949219"/>
    </g>
   </g>
   <g id="text_7">
    <!-- Granular layer -->
    <g transform="translate(277.892308 125.678846) scale(0.1 -0.1)">
     <use xlink:href="#DejaVuSerif-47"/>
     <use xlink:href="#DejaVuSerif-72" x="79.882812"/>
     <use xlink:href="#DejaVuSerif-61" x="127.685547"/>
     <use xlink:href="#DejaVuSerif-6e" x="187.304688"/>
     <use xlink:href="#DejaVuSerif-75" x="251.708984"/>
     <use xlink:href="#DejaVuSerif-6c" x="316.113281"/>
     <use xlink:href="#DejaVuSerif-61" x="348.095703"/>
     <use xlink:href="#DejaVuSerif-72" x="407.714844"/>
     <use xlink:href="#DejaVuSerif-20" x="455.517578"/>
     <use xlink:href="#DejaVuSerif-6c" x="487.304688"/>
     <use xlink:href="#DejaVuSerif-61" x="519.287109"/>
     <use xlink:href="#DejaVuSerif-79" x="578.90625"/>
     <use xlink:href="#DejaVuSerif-65" x="635.400391"/>
     <use xlink:href="#DejaVuSerif-72" x="694.580078"/>
    </g>
   </g>
   <g id="text_8">
    <!-- Lateral recess -->
    <g transform="translate(277.892308 47.897759) scale(0.1 -0.1)">
     <use xlink:href="#DejaVuSerif-4c"/>
     <use xlink:href="#DejaVuSerif-61" x="66.40625"/>
     <use xlink:href="#DejaVuSerif-74" x="126.025391"/>
     <use xlink:href="#DejaVuSerif-65" x="166.210938"/>
     <use xlink:href="#DejaVuSerif-72" x="225.390625"/>
     <use xlink:href="#DejaVuSerif-61" x="273.193359"/>
     <use xlink:href="#DejaVuSerif-6c" x="332.8125"/>
     <use xlink:href="#DejaVuSerif-20" x="364.794922"/>
     <use xlink:href="#DejaVuSerif-72" x="396.582031"/>
     <use xlink:href="#DejaVuSerif-65" x="444.384766"/>
     <use xlink:href="#DejaVuSerif-63" x="503.564453"/>
     <use xlink:href="#DejaVuSerif-65" x="559.570312"/>
     <use xlink:href="#DejaVuSerif-73" x="618.75"/>
     <use xlink:href="#DejaVuSerif-73" x="670.068359"/>
    </g>
   </g>
   <g id="text_9">
    <!-- Matching Number: 1677, Matching Accuracy: 86.23% -->
    <g transform="translate(40.429688 15.6) scale(0.12 -0.12)">
     <defs>
      <path id="DejaVuSerif-68" d="M 263 0 
L 263 331 
L 781 331 
L 781 4531 
L 231 4531 
L 231 4863 
L 1356 4863 
L 1356 2731 
Q 1516 3069 1770 3241 
Q 2025 3413 2363 3413 
Q 2913 3413 3172 3097 
Q 3431 2781 3431 2113 
L 3431 331 
L 3944 331 
L 3944 0 
L 2356 0 
L 2356 331 
L 2853 331 
L 2853 1931 
Q 2853 2541 2704 2764 
Q 2556 2988 2175 2988 
Q 1775 2988 1565 2697 
Q 1356 2406 1356 1850 
L 1356 331 
L 1856 331 
L 1856 0 
L 263 0 
z
" transform="scale(0.015625)"/>
      <path id="DejaVuSerif-67" d="M 3359 2988 
L 3359 72 
Q 3359 -644 2965 -1033 
Q 2572 -1422 1844 -1422 
Q 1516 -1422 1216 -1362 
Q 916 -1303 641 -1184 
L 641 -488 
L 941 -488 
Q 997 -813 1206 -963 
Q 1416 -1113 1806 -1113 
Q 2313 -1113 2548 -827 
Q 2784 -541 2784 72 
L 2784 519 
Q 2616 206 2355 57 
Q 2094 -91 1709 -91 
Q 1097 -91 708 395 
Q 319 881 319 1663 
Q 319 2444 706 2928 
Q 1094 3413 1709 3413 
Q 2094 3413 2355 3264 
Q 2616 3116 2784 2803 
L 2784 3322 
L 3909 3322 
L 3909 2988 
L 3359 2988 
z
M 2784 1825 
Q 2784 2422 2554 2737 
Q 2325 3053 1888 3053 
Q 1444 3053 1217 2703 
Q 991 2353 991 1663 
Q 991 975 1217 622 
Q 1444 269 1888 269 
Q 2325 269 2554 583 
Q 2784 897 2784 1497 
L 2784 1825 
z
" transform="scale(0.015625)"/>
      <path id="DejaVuSerif-4e" d="M 313 0 
L 313 331 
L 941 331 
L 941 4331 
L 313 4331 
L 313 4666 
L 1509 4666 
L 4306 984 
L 4306 4331 
L 3681 4331 
L 3681 4666 
L 5319 4666 
L 5319 4331 
L 4691 4331 
L 4691 -91 
L 4313 -91 
L 1325 3841 
L 1325 331 
L 1953 331 
L 1953 0 
L 313 0 
z
" transform="scale(0.015625)"/>
      <path id="DejaVuSerif-6d" d="M 3316 2675 
Q 3481 3041 3739 3227 
Q 3997 3413 4341 3413 
Q 4863 3413 5119 3089 
Q 5375 2766 5375 2113 
L 5375 331 
L 5894 331 
L 5894 0 
L 4300 0 
L 4300 331 
L 4800 331 
L 4800 2047 
Q 4800 2556 4650 2772 
Q 4500 2988 4153 2988 
Q 3769 2988 3567 2697 
Q 3366 2406 3366 1850 
L 3366 331 
L 3866 331 
L 3866 0 
L 2291 0 
L 2291 331 
L 2791 331 
L 2791 2069 
Q 2791 2566 2641 2777 
Q 2491 2988 2144 2988 
Q 1759 2988 1557 2697 
Q 1356 2406 1356 1850 
L 1356 331 
L 1856 331 
L 1856 0 
L 263 0 
L 263 331 
L 781 331 
L 781 2994 
L 231 2994 
L 231 3322 
L 1356 3322 
L 1356 2731 
Q 1516 3063 1762 3238 
Q 2009 3413 2322 3413 
Q 2709 3413 2968 3220 
Q 3228 3028 3316 2675 
z
" transform="scale(0.015625)"/>
      <path id="DejaVuSerif-3a" d="M 666 325 
Q 666 500 786 622 
Q 906 744 1081 744 
Q 1256 744 1376 622 
Q 1497 500 1497 325 
Q 1497 150 1378 29 
Q 1259 -91 1081 -91 
Q 903 -91 784 29 
Q 666 150 666 325 
z
M 666 2363 
Q 666 2538 786 2658 
Q 906 2778 1081 2778 
Q 1259 2778 1378 2659 
Q 1497 2541 1497 2363 
Q 1497 2184 1378 2065 
Q 1259 1947 1081 1947 
Q 906 1947 786 2067 
Q 666 2188 666 2363 
z
" transform="scale(0.015625)"/>
      <path id="DejaVuSerif-31" d="M 909 0 
L 909 331 
L 1722 331 
L 1722 4213 
L 781 3603 
L 781 4013 
L 1919 4750 
L 2350 4750 
L 2350 331 
L 3163 331 
L 3163 0 
L 909 0 
z
" transform="scale(0.015625)"/>
      <path id="DejaVuSerif-36" d="M 2094 219 
Q 2534 219 2771 542 
Q 3009 866 3009 1472 
Q 3009 2078 2771 2401 
Q 2534 2725 2094 2725 
Q 1647 2725 1412 2412 
Q 1178 2100 1178 1509 
Q 1178 888 1415 553 
Q 1653 219 2094 219 
z
M 1075 2569 
Q 1288 2803 1556 2918 
Q 1825 3034 2163 3034 
Q 2859 3034 3264 2615 
Q 3669 2197 3669 1472 
Q 3669 763 3233 336 
Q 2797 -91 2069 -91 
Q 1278 -91 853 498 
Q 428 1088 428 2181 
Q 428 3406 931 4078 
Q 1434 4750 2350 4750 
Q 2597 4750 2869 4703 
Q 3141 4656 3425 4563 
L 3425 3794 
L 3072 3794 
Q 3034 4109 2831 4275 
Q 2628 4441 2284 4441 
Q 1678 4441 1381 3981 
Q 1084 3522 1075 2569 
z
" transform="scale(0.015625)"/>
      <path id="DejaVuSerif-37" d="M 3609 4347 
L 1784 0 
L 1319 0 
L 3059 4153 
L 903 4153 
L 903 3578 
L 538 3578 
L 538 4666 
L 3609 4666 
L 3609 4347 
z
" transform="scale(0.015625)"/>
      <path id="DejaVuSerif-2c" d="M 231 -622 
Q 525 -406 662 -114 
Q 800 178 800 594 
L 800 709 
L 1416 709 
Q 1391 175 1164 -208 
Q 938 -591 481 -872 
L 231 -622 
z
" transform="scale(0.015625)"/>
      <path id="DejaVuSerif-41" d="M 1281 1691 
L 2994 1691 
L 2138 3909 
L 1281 1691 
z
M -38 0 
L -38 331 
L 372 331 
L 2034 4666 
L 2559 4666 
L 4225 331 
L 4684 331 
L 4684 0 
L 2988 0 
L 2988 331 
L 3506 331 
L 3116 1356 
L 1153 1356 
L 763 331 
L 1275 331 
L 1275 0 
L -38 0 
z
" transform="scale(0.015625)"/>
      <path id="DejaVuSerif-38" d="M 2981 1275 
Q 2981 1775 2732 2051 
Q 2484 2328 2034 2328 
Q 1584 2328 1336 2051 
Q 1088 1775 1088 1275 
Q 1088 772 1336 495 
Q 1584 219 2034 219 
Q 2484 219 2732 495 
Q 2981 772 2981 1275 
z
M 2853 3541 
Q 2853 3966 2637 4203 
Q 2422 4441 2034 4441 
Q 1650 4441 1433 4203 
Q 1216 3966 1216 3541 
Q 1216 3113 1433 2875 
Q 1650 2638 2034 2638 
Q 2422 2638 2637 2875 
Q 2853 3113 2853 3541 
z
M 2516 2484 
Q 3047 2413 3344 2092 
Q 3641 1772 3641 1275 
Q 3641 619 3225 264 
Q 2809 -91 2034 -91 
Q 1263 -91 845 264 
Q 428 619 428 1275 
Q 428 1772 725 2092 
Q 1022 2413 1556 2484 
Q 1084 2569 832 2842 
Q 581 3116 581 3541 
Q 581 4103 968 4426 
Q 1356 4750 2034 4750 
Q 2713 4750 3100 4426 
Q 3488 4103 3488 3541 
Q 3488 3116 3236 2842 
Q 2984 2569 2516 2484 
z
" transform="scale(0.015625)"/>
      <path id="DejaVuSerif-2e" d="M 603 325 
Q 603 500 722 622 
Q 841 744 1019 744 
Q 1191 744 1312 622 
Q 1434 500 1434 325 
Q 1434 153 1312 31 
Q 1191 -91 1019 -91 
Q 841 -91 722 29 
Q 603 150 603 325 
z
" transform="scale(0.015625)"/>
      <path id="DejaVuSerif-32" d="M 819 3553 
L 469 3553 
L 469 4384 
Q 803 4563 1142 4656 
Q 1481 4750 1806 4750 
Q 2534 4750 2956 4397 
Q 3378 4044 3378 3438 
Q 3378 2753 2422 1800 
Q 2347 1728 2309 1691 
L 1131 513 
L 3078 513 
L 3078 1088 
L 3444 1088 
L 3444 0 
L 434 0 
L 434 341 
L 1850 1753 
Q 2319 2222 2519 2614 
Q 2719 3006 2719 3438 
Q 2719 3909 2473 4175 
Q 2228 4441 1797 4441 
Q 1350 4441 1106 4219 
Q 863 3997 819 3553 
z
" transform="scale(0.015625)"/>
      <path id="DejaVuSerif-33" d="M 622 4469 
Q 988 4606 1323 4678 
Q 1659 4750 1953 4750 
Q 2638 4750 3022 4454 
Q 3406 4159 3406 3634 
Q 3406 3213 3140 2930 
Q 2875 2647 2388 2547 
Q 2963 2466 3280 2130 
Q 3597 1794 3597 1259 
Q 3597 606 3158 257 
Q 2719 -91 1894 -91 
Q 1528 -91 1179 -12 
Q 831 66 488 225 
L 488 1131 
L 838 1131 
Q 869 681 1141 450 
Q 1413 219 1906 219 
Q 2384 219 2661 495 
Q 2938 772 2938 1253 
Q 2938 1803 2653 2086 
Q 2369 2369 1819 2369 
L 1522 2369 
L 1522 2688 
L 1678 2688 
Q 2225 2688 2498 2914 
Q 2772 3141 2772 3597 
Q 2772 4006 2547 4223 
Q 2322 4441 1900 4441 
Q 1478 4441 1245 4241 
Q 1013 4041 972 3647 
L 622 3647 
L 622 4469 
z
" transform="scale(0.015625)"/>
      <path id="DejaVuSerif-25" d="M 1434 4459 
Q 1159 4459 1004 4200 
Q 850 3941 850 3475 
Q 850 3016 1008 2753 
Q 1166 2491 1434 2491 
Q 1700 2491 1854 2752 
Q 2009 3013 2009 3475 
Q 2009 3938 1854 4198 
Q 1700 4459 1434 4459 
z
M 4653 2169 
Q 4381 2169 4226 1906 
Q 4072 1644 4072 1178 
Q 4072 719 4228 458 
Q 4384 197 4653 197 
Q 4922 197 5075 458 
Q 5228 719 5228 1178 
Q 5228 1641 5073 1905 
Q 4919 2169 4653 2169 
z
M 4653 2450 
Q 5147 2450 5437 2106 
Q 5728 1763 5728 1178 
Q 5728 594 5436 251 
Q 5144 -91 4653 -91 
Q 4153 -91 3862 251 
Q 3572 594 3572 1178 
Q 3572 1766 3864 2108 
Q 4156 2450 4653 2450 
z
M 4263 4750 
L 4738 4750 
L 1819 -91 
L 1344 -91 
L 4263 4750 
z
M 1428 4750 
Q 1922 4750 2215 4408 
Q 2509 4066 2509 3481 
Q 2509 2891 2217 2550 
Q 1925 2209 1428 2209 
Q 931 2209 642 2551 
Q 353 2894 353 3481 
Q 353 4063 643 4406 
Q 934 4750 1428 4750 
z
" transform="scale(0.015625)"/>
     </defs>
     <use xlink:href="#DejaVuSerif-4d"/>
     <use xlink:href="#DejaVuSerif-61" x="102.392578"/>
     <use xlink:href="#DejaVuSerif-74" x="162.011719"/>
     <use xlink:href="#DejaVuSerif-63" x="202.197266"/>
     <use xlink:href="#DejaVuSerif-68" x="258.203125"/>
     <use xlink:href="#DejaVuSerif-69" x="322.607422"/>
     <use xlink:href="#DejaVuSerif-6e" x="354.589844"/>
     <use xlink:href="#DejaVuSerif-67" x="418.994141"/>
     <use xlink:href="#DejaVuSerif-20" x="483.007812"/>
     <use xlink:href="#DejaVuSerif-4e" x="514.794922"/>
     <use xlink:href="#DejaVuSerif-75" x="602.294922"/>
     <use xlink:href="#DejaVuSerif-6d" x="666.699219"/>
     <use xlink:href="#DejaVuSerif-62" x="761.523438"/>
     <use xlink:href="#DejaVuSerif-65" x="825.537109"/>
     <use xlink:href="#DejaVuSerif-72" x="884.716797"/>
     <use xlink:href="#DejaVuSerif-3a" x="932.519531"/>
     <use xlink:href="#DejaVuSerif-20" x="966.210938"/>
     <use xlink:href="#DejaVuSerif-31" x="997.998047"/>
     <use xlink:href="#DejaVuSerif-36" x="1061.621094"/>
     <use xlink:href="#DejaVuSerif-37" x="1125.244141"/>
     <use xlink:href="#DejaVuSerif-37" x="1188.867188"/>
     <use xlink:href="#DejaVuSerif-2c" x="1252.490234"/>
     <use xlink:href="#DejaVuSerif-20" x="1284.277344"/>
     <use xlink:href="#DejaVuSerif-4d" x="1316.064453"/>
     <use xlink:href="#DejaVuSerif-61" x="1418.457031"/>
     <use xlink:href="#DejaVuSerif-74" x="1478.076172"/>
     <use xlink:href="#DejaVuSerif-63" x="1518.261719"/>
     <use xlink:href="#DejaVuSerif-68" x="1574.267578"/>
     <use xlink:href="#DejaVuSerif-69" x="1638.671875"/>
     <use xlink:href="#DejaVuSerif-6e" x="1670.654297"/>
     <use xlink:href="#DejaVuSerif-67" x="1735.058594"/>
     <use xlink:href="#DejaVuSerif-20" x="1799.072266"/>
     <use xlink:href="#DejaVuSerif-41" x="1830.859375"/>
     <use xlink:href="#DejaVuSerif-63" x="1903.076172"/>
     <use xlink:href="#DejaVuSerif-63" x="1959.082031"/>
     <use xlink:href="#DejaVuSerif-75" x="2015.087891"/>
     <use xlink:href="#DejaVuSerif-72" x="2079.492188"/>
     <use xlink:href="#DejaVuSerif-61" x="2127.294922"/>
     <use xlink:href="#DejaVuSerif-63" x="2186.914062"/>
     <use xlink:href="#DejaVuSerif-79" x="2242.919922"/>
     <use xlink:href="#DejaVuSerif-3a" x="2299.414062"/>
     <use xlink:href="#DejaVuSerif-20" x="2333.105469"/>
     <use xlink:href="#DejaVuSerif-38" x="2364.892578"/>
     <use xlink:href="#DejaVuSerif-36" x="2428.515625"/>
     <use xlink:href="#DejaVuSerif-2e" x="2492.138672"/>
     <use xlink:href="#DejaVuSerif-32" x="2523.925781"/>
     <use xlink:href="#DejaVuSerif-33" x="2587.548828"/>
     <use xlink:href="#DejaVuSerif-25" x="2651.171875"/>
    </g>
   </g>
  </g>
 </g>
 <defs>
  <clipPath id="p20ee0c0d6f">
   <rect x="129.6" y="21.6" width="151.2" height="388.8"/>
  </clipPath>
 </defs>
</svg>
