<?xml version="1.0" encoding="utf-8" standalone="no"?>
<!DOCTYPE svg PUBLIC "-//W3C//DTD SVG 1.1//EN"
  "http://www.w3.org/Graphics/SVG/1.1/DTD/svg11.dtd">
<svg xmlns:xlink="http://www.w3.org/1999/xlink" width="432pt" height="432pt" viewBox="0 0 432 432" xmlns="http://www.w3.org/2000/svg" version="1.1">
 <metadata>
  <rdf:RDF xmlns:dc="http://purl.org/dc/elements/1.1/" xmlns:cc="http://creativecommons.org/ns#" xmlns:rdf="http://www.w3.org/1999/02/22-rdf-syntax-ns#">
   <cc:Work>
    <dc:type rdf:resource="http://purl.org/dc/dcmitype/StillImage"/>
    <dc:date>2025-08-26T01:02:37.416757</dc:date>
    <dc:format>image/svg+xml</dc:format>
    <dc:creator>
     <cc:Agent>
      <dc:title>Matplotlib v3.8.2, https://matplotlib.org/</dc:title>
     </cc:Agent>
    </dc:creator>
   </cc:Work>
  </rdf:RDF>
 </metadata>
 <defs>
  <style type="text/css">*{stroke-linejoin: round; stroke-linecap: butt}</style>
 </defs>
 <g id="figure_1">
  <g id="patch_1">
   <path d="M 0 432 
L 432 432 
L 432 0 
L 0 0 
z
" style="fill: #ffffff"/>
  </g>
  <g id="axes_1">
   <g id="PolyCollection_1">
    <defs>
     <path id="m0927c9efec" d="M 136.472727 -230.272845 
L 136.472727 -39.272727 
L 139.116084 -39.272727 
L 139.116084 -230.272845 
L 139.116084 -230.272845 
L 136.472727 -230.272845 
z
" style="stroke: #db5f57; stroke-opacity: 0.99"/>
    </defs>
    <g clip-path="url(#p8f7047584f)">
     <use xlink:href="#m0927c9efec" x="0" y="432" style="fill: #db5f57; fill-opacity: 0.99; stroke: #db5f57; stroke-opacity: 0.99"/>
    </g>
   </g>
   <g id="PolyCollection_2">
    <defs>
     <path id="m24cf896b1c" d="M 136.472727 -250.785295 
L 136.472727 -236.941799 
L 139.116084 -236.941799 
L 139.116084 -250.785295 
L 139.116084 -250.785295 
L 136.472727 -250.785295 
z
" style="stroke: #91db57; stroke-opacity: 0.99"/>
    </defs>
    <g clip-path="url(#p8f7047584f)">
     <use xlink:href="#m24cf896b1c" x="0" y="432" style="fill: #91db57; fill-opacity: 0.99; stroke: #91db57; stroke-opacity: 0.99"/>
    </g>
   </g>
   <g id="PolyCollection_3">
    <defs>
     <path id="m20493d4d33" d="M 136.472727 -344.728462 
L 136.472727 -257.454248 
L 139.116084 -257.454248 
L 139.116084 -344.728462 
L 139.116084 -344.728462 
L 136.472727 -344.728462 
z
" style="stroke: #57d3db; stroke-opacity: 0.99"/>
    </defs>
    <g clip-path="url(#p8f7047584f)">
     <use xlink:href="#m20493d4d33" x="0" y="432" style="fill: #57d3db; fill-opacity: 0.99; stroke: #57d3db; stroke-opacity: 0.99"/>
    </g>
   </g>
   <g id="PolyCollection_4">
    <defs>
     <path id="m0e14fdca83" d="M 136.472727 -392.727273 
L 136.472727 -351.397415 
L 139.116084 -351.397415 
L 139.116084 -392.727273 
L 139.116084 -392.727273 
L 136.472727 -392.727273 
z
" style="stroke: #a157db; stroke-opacity: 0.99"/>
    </defs>
    <g clip-path="url(#p8f7047584f)">
     <use xlink:href="#m0e14fdca83" x="0" y="432" style="fill: #a157db; fill-opacity: 0.99; stroke: #a157db; stroke-opacity: 0.99"/>
    </g>
   </g>
   <g id="PolyCollection_5">
    <defs>
     <path id="m230dc8b9dd" d="M 271.283916 -201.18144 
L 271.283916 -39.272727 
L 273.927273 -39.272727 
L 273.927273 -201.18144 
L 273.927273 -201.18144 
L 271.283916 -201.18144 
z
" style="stroke: #db5f57; stroke-opacity: 0.99"/>
    </defs>
    <g clip-path="url(#p8f7047584f)">
     <use xlink:href="#m230dc8b9dd" x="0" y="432" style="fill: #db5f57; fill-opacity: 0.99; stroke: #db5f57; stroke-opacity: 0.99"/>
    </g>
   </g>
   <g id="PolyCollection_6">
    <defs>
     <path id="m8e514438ad" d="M 271.283916 -225.505867 
L 271.283916 -207.850394 
L 273.927273 -207.850394 
L 273.927273 -225.505867 
L 273.927273 -225.505867 
L 271.283916 -225.505867 
z
" style="stroke: #91db57; stroke-opacity: 0.99"/>
    </defs>
    <g clip-path="url(#p8f7047584f)">
     <use xlink:href="#m8e514438ad" x="0" y="432" style="fill: #91db57; fill-opacity: 0.99; stroke: #91db57; stroke-opacity: 0.99"/>
    </g>
   </g>
   <g id="PolyCollection_7">
    <defs>
     <path id="m1caa44f66f" d="M 271.283916 -345.932244 
L 271.283916 -232.174821 
L 273.927273 -232.174821 
L 273.927273 -345.932244 
L 273.927273 -345.932244 
L 271.283916 -345.932244 
z
" style="stroke: #57d3db; stroke-opacity: 0.99"/>
    </defs>
    <g clip-path="url(#p8f7047584f)">
     <use xlink:href="#m1caa44f66f" x="0" y="432" style="fill: #57d3db; fill-opacity: 0.99; stroke: #57d3db; stroke-opacity: 0.99"/>
    </g>
   </g>
   <g id="PolyCollection_8">
    <defs>
     <path id="m5ceb227729" d="M 271.283916 -392.727273 
L 271.283916 -352.601198 
L 273.927273 -352.601198 
L 273.927273 -392.727273 
L 273.927273 -392.727273 
L 271.283916 -392.727273 
z
" style="stroke: #a157db; stroke-opacity: 0.99"/>
    </defs>
    <g clip-path="url(#p8f7047584f)">
     <use xlink:href="#m5ceb227729" x="0" y="432" style="fill: #a157db; fill-opacity: 0.99; stroke: #a157db; stroke-opacity: 0.99"/>
    </g>
   </g>
   <g id="PolyCollection_9">
    <defs>
     <path id="m44f95b7b46" d="M 139.116084 -196.366311 
L 139.116084 -39.272727 
L 141.28277 -39.272727 
L 143.449455 -39.272727 
L 145.616141 -39.272727 
L 147.782827 -39.272727 
L 149.949513 -39.272727 
L 152.116199 -39.272727 
L 154.282884 -39.272727 
L 156.44957 -39.272727 
L 158.616256 -39.272727 
L 160.782942 -39.272727 
L 162.949627 -39.272727 
L 165.116313 -39.272727 
L 167.282999 -39.272727 
L 169.449685 -39.272727 
L 171.616371 -39.272727 
L 173.783056 -39.272727 
L 175.949742 -39.272727 
L 178.116428 -39.272727 
L 180.283114 -39.272727 
L 182.449799 -39.272727 
L 184.616485 -39.272727 
L 186.783171 -39.272727 
L 188.949857 -39.272727 
L 191.116542 -39.272727 
L 193.283228 -39.272727 
L 195.449914 -39.272727 
L 197.6166 -39.272727 
L 199.783286 -39.272727 
L 201.949971 -39.272727 
L 204.116657 -39.272727 
L 206.283343 -39.272727 
L 208.450029 -39.272727 
L 210.616714 -39.272727 
L 212.7834 -39.272727 
L 214.950086 -39.272727 
L 217.116772 -39.272727 
L 219.283458 -39.272727 
L 221.450143 -39.272727 
L 223.616829 -39.272727 
L 225.783515 -39.272727 
L 227.950201 -39.272727 
L 230.116886 -39.272727 
L 232.283572 -39.272727 
L 234.450258 -39.272727 
L 236.616944 -39.272727 
L 238.783629 -39.272727 
L 240.950315 -39.272727 
L 243.117001 -39.272727 
L 245.283687 -39.272727 
L 247.450373 -39.272727 
L 249.617058 -39.272727 
L 251.783744 -39.272727 
L 253.95043 -39.272727 
L 256.117116 -39.272727 
L 258.283801 -39.272727 
L 260.450487 -39.272727 
L 262.617173 -39.272727 
L 264.783859 -39.272727 
L 266.950545 -39.272727 
L 269.11723 -39.272727 
L 271.283916 -39.272727 
L 271.283916 -196.366311 
L 271.283916 -196.366311 
L 269.11723 -196.366311 
L 266.950545 -196.366311 
L 264.783859 -196.366311 
L 262.617173 -196.366311 
L 260.450487 -196.366311 
L 258.283801 -196.366311 
L 256.117116 -196.366311 
L 253.95043 -196.366311 
L 251.783744 -196.366311 
L 249.617058 -196.366311 
L 247.450373 -196.366311 
L 245.283687 -196.366311 
L 243.117001 -196.366311 
L 240.950315 -196.366311 
L 238.783629 -196.366311 
L 236.616944 -196.366311 
L 234.450258 -196.366311 
L 232.283572 -196.366311 
L 230.116886 -196.366311 
L 227.950201 -196.366311 
L 225.783515 -196.366311 
L 223.616829 -196.366311 
L 221.450143 -196.366311 
L 219.283458 -196.366311 
L 217.116772 -196.366311 
L 214.950086 -196.366311 
L 212.7834 -196.366311 
L 210.616714 -196.366311 
L 208.450029 -196.366311 
L 206.283343 -196.366311 
L 204.116657 -196.366311 
L 201.949971 -196.366311 
L 199.783286 -196.366311 
L 197.6166 -196.366311 
L 195.449914 -196.366311 
L 193.283228 -196.366311 
L 191.116542 -196.366311 
L 188.949857 -196.366311 
L 186.783171 -196.366311 
L 184.616485 -196.366311 
L 182.449799 -196.366311 
L 180.283114 -196.366311 
L 178.116428 -196.366311 
L 175.949742 -196.366311 
L 173.783056 -196.366311 
L 171.616371 -196.366311 
L 169.449685 -196.366311 
L 167.282999 -196.366311 
L 165.116313 -196.366311 
L 162.949627 -196.366311 
L 160.782942 -196.366311 
L 158.616256 -196.366311 
L 156.44957 -196.366311 
L 154.282884 -196.366311 
L 152.116199 -196.366311 
L 149.949513 -196.366311 
L 147.782827 -196.366311 
L 145.616141 -196.366311 
L 143.449455 -196.366311 
L 141.28277 -196.366311 
L 139.116084 -196.366311 
z
" style="stroke: #db5f57; stroke-opacity: 0.65"/>
    </defs>
    <g clip-path="url(#p8f7047584f)">
     <use xlink:href="#m44f95b7b46" x="0" y="432" style="fill: #db5f57; fill-opacity: 0.65; stroke: #db5f57; stroke-opacity: 0.65"/>
    </g>
   </g>
   <g id="PolyCollection_10">
    <defs>
     <path id="me2f48af81b" d="M 139.116084 -229.871584 
L 139.116084 -196.366311 
L 141.28277 -196.366311 
L 143.449455 -196.366311 
L 145.616141 -196.366311 
L 147.782827 -196.366311 
L 149.949513 -196.366311 
L 152.116199 -196.366311 
L 154.282884 -196.366311 
L 156.44957 -196.366311 
L 158.616256 -196.366311 
L 160.782942 -196.366311 
L 162.949627 -196.366311 
L 165.116313 -196.455833 
L 167.282999 -196.634875 
L 169.449685 -196.903439 
L 171.616371 -197.261524 
L 173.783056 -197.709131 
L 175.949742 -198.246258 
L 178.116428 -198.872907 
L 180.283114 -199.589077 
L 182.449799 -200.394769 
L 184.616485 -201.289981 
L 186.783171 -202.274715 
L 188.949857 -203.348971 
L 191.116542 -204.512747 
L 193.283228 -205.766045 
L 195.449914 -207.108864 
L 197.6166 -208.541205 
L 199.783286 -210.063066 
L 201.949971 -211.674449 
L 204.116657 -213.375353 
L 206.283343 -215.165779 
L 208.450029 -216.866683 
L 210.616714 -218.478066 
L 212.7834 -219.999928 
L 214.950086 -221.432268 
L 217.116772 -222.775087 
L 219.283458 -224.028385 
L 221.450143 -225.192162 
L 223.616829 -226.266417 
L 225.783515 -227.251151 
L 227.950201 -228.146364 
L 230.116886 -228.952055 
L 232.283572 -229.668225 
L 234.450258 -230.294874 
L 236.616944 -230.832002 
L 238.783629 -231.279608 
L 240.950315 -231.637693 
L 243.117001 -231.906257 
L 245.283687 -232.0853 
L 247.450373 -232.174821 
L 249.617058 -232.174821 
L 251.783744 -232.174821 
L 253.95043 -232.174821 
L 256.117116 -232.174821 
L 258.283801 -232.174821 
L 260.450487 -232.174821 
L 262.617173 -232.174821 
L 264.783859 -232.174821 
L 266.950545 -232.174821 
L 269.11723 -232.174821 
L 271.283916 -232.174821 
L 271.283916 -265.680094 
L 271.283916 -265.680094 
L 269.11723 -265.680094 
L 266.950545 -265.680094 
L 264.783859 -265.680094 
L 262.617173 -265.680094 
L 260.450487 -265.680094 
L 258.283801 -265.680094 
L 256.117116 -265.680094 
L 253.95043 -265.680094 
L 251.783744 -265.680094 
L 249.617058 -265.680094 
L 247.450373 -265.680094 
L 245.283687 -265.590572 
L 243.117001 -265.41153 
L 240.950315 -265.142966 
L 238.783629 -264.784881 
L 236.616944 -264.337275 
L 234.450258 -263.800147 
L 232.283572 -263.173498 
L 230.116886 -262.457328 
L 227.950201 -261.651636 
L 225.783515 -260.756424 
L 223.616829 -259.77169 
L 221.450143 -258.697434 
L 219.283458 -257.533658 
L 217.116772 -256.28036 
L 214.950086 -254.937541 
L 212.7834 -253.5052 
L 210.616714 -251.983339 
L 208.450029 -250.371956 
L 206.283343 -248.671052 
L 204.116657 -246.880626 
L 201.949971 -245.179722 
L 199.783286 -243.568339 
L 197.6166 -242.046477 
L 195.449914 -240.614137 
L 193.283228 -239.271318 
L 191.116542 -238.01802 
L 188.949857 -236.854244 
L 186.783171 -235.779988 
L 184.616485 -234.795254 
L 182.449799 -233.900041 
L 180.283114 -233.09435 
L 178.116428 -232.37818 
L 175.949742 -231.751531 
L 173.783056 -231.214403 
L 171.616371 -230.766797 
L 169.449685 -230.408712 
L 167.282999 -230.140148 
L 165.116313 -229.961105 
L 162.949627 -229.871584 
L 160.782942 -229.871584 
L 158.616256 -229.871584 
L 156.44957 -229.871584 
L 154.282884 -229.871584 
L 152.116199 -229.871584 
L 149.949513 -229.871584 
L 147.782827 -229.871584 
L 145.616141 -229.871584 
L 143.449455 -229.871584 
L 141.28277 -229.871584 
L 139.116084 -229.871584 
z
" style="stroke: #db5f57; stroke-opacity: 0.65"/>
    </defs>
    <g clip-path="url(#p8f7047584f)">
     <use xlink:href="#me2f48af81b" x="0" y="432" style="fill: #db5f57; fill-opacity: 0.65; stroke: #db5f57; stroke-opacity: 0.65"/>
    </g>
   </g>
   <g id="PolyCollection_11">
    <defs>
     <path id="mfe210b2770" d="M 139.116084 -230.272845 
L 139.116084 -229.871584 
L 141.28277 -229.871584 
L 143.449455 -229.871584 
L 145.616141 -229.871584 
L 147.782827 -229.871584 
L 149.949513 -229.871584 
L 152.116199 -229.871584 
L 154.282884 -229.871584 
L 156.44957 -229.871584 
L 158.616256 -229.871584 
L 160.782942 -229.871584 
L 162.949627 -229.871584 
L 165.116313 -230.178408 
L 167.282999 -230.792056 
L 169.449685 -231.712528 
L 171.616371 -232.939825 
L 173.783056 -234.473945 
L 175.949742 -236.314889 
L 178.116428 -238.462657 
L 180.283114 -240.917249 
L 182.449799 -243.678666 
L 184.616485 -246.746906 
L 186.783171 -250.12197 
L 188.949857 -253.803859 
L 191.116542 -257.792571 
L 193.283228 -262.088108 
L 195.449914 -266.690468 
L 197.6166 -271.599653 
L 199.783286 -276.815661 
L 201.949971 -282.338494 
L 204.116657 -288.168151 
L 206.283343 -294.304631 
L 208.450029 -300.134288 
L 210.616714 -305.65712 
L 212.7834 -310.873129 
L 214.950086 -315.782314 
L 217.116772 -320.384674 
L 219.283458 -324.680211 
L 221.450143 -328.668923 
L 223.616829 -332.350811 
L 225.783515 -335.725876 
L 227.950201 -338.794116 
L 230.116886 -341.555532 
L 232.283572 -344.010125 
L 234.450258 -346.157893 
L 236.616944 -347.998837 
L 238.783629 -349.532957 
L 240.950315 -350.760253 
L 243.117001 -351.680725 
L 245.283687 -352.294374 
L 247.450373 -352.601198 
L 249.617058 -352.601198 
L 251.783744 -352.601198 
L 253.95043 -352.601198 
L 256.117116 -352.601198 
L 258.283801 -352.601198 
L 260.450487 -352.601198 
L 262.617173 -352.601198 
L 264.783859 -352.601198 
L 266.950545 -352.601198 
L 269.11723 -352.601198 
L 271.283916 -352.601198 
L 271.283916 -353.002458 
L 271.283916 -353.002458 
L 269.11723 -353.002458 
L 266.950545 -353.002458 
L 264.783859 -353.002458 
L 262.617173 -353.002458 
L 260.450487 -353.002458 
L 258.283801 -353.002458 
L 256.117116 -353.002458 
L 253.95043 -353.002458 
L 251.783744 -353.002458 
L 249.617058 -353.002458 
L 247.450373 -353.002458 
L 245.283687 -352.695634 
L 243.117001 -352.081986 
L 240.950315 -351.161514 
L 238.783629 -349.934218 
L 236.616944 -348.400098 
L 234.450258 -346.559154 
L 232.283572 -344.411385 
L 230.116886 -341.956793 
L 227.950201 -339.195377 
L 225.783515 -336.127136 
L 223.616829 -332.752072 
L 221.450143 -329.070184 
L 219.283458 -325.081471 
L 217.116772 -320.785935 
L 214.950086 -316.183574 
L 212.7834 -311.27439 
L 210.616714 -306.058381 
L 208.450029 -300.535549 
L 206.283343 -294.705892 
L 204.116657 -288.569411 
L 201.949971 -282.739755 
L 199.783286 -277.216922 
L 197.6166 -272.000913 
L 195.449914 -267.091729 
L 193.283228 -262.489368 
L 191.116542 -258.193832 
L 188.949857 -254.20512 
L 186.783171 -250.523231 
L 184.616485 -247.148167 
L 182.449799 -244.079926 
L 180.283114 -241.31851 
L 178.116428 -238.863918 
L 175.949742 -236.71615 
L 173.783056 -234.875205 
L 171.616371 -233.341085 
L 169.449685 -232.113789 
L 167.282999 -231.193317 
L 165.116313 -230.579669 
L 162.949627 -230.272845 
L 160.782942 -230.272845 
L 158.616256 -230.272845 
L 156.44957 -230.272845 
L 154.282884 -230.272845 
L 152.116199 -230.272845 
L 149.949513 -230.272845 
L 147.782827 -230.272845 
L 145.616141 -230.272845 
L 143.449455 -230.272845 
L 141.28277 -230.272845 
L 139.116084 -230.272845 
z
" style="stroke: #db5f57; stroke-opacity: 0.65"/>
    </defs>
    <g clip-path="url(#p8f7047584f)">
     <use xlink:href="#mfe210b2770" x="0" y="432" style="fill: #db5f57; fill-opacity: 0.65; stroke: #db5f57; stroke-opacity: 0.65"/>
    </g>
   </g>
   <g id="PolyCollection_12">
    <defs>
     <path id="mdc594c6568" d="M 139.116084 -237.142429 
L 139.116084 -236.941799 
L 141.28277 -236.941799 
L 143.449455 -236.941799 
L 145.616141 -236.941799 
L 147.782827 -236.941799 
L 149.949513 -236.941799 
L 152.116199 -236.941799 
L 154.282884 -236.941799 
L 156.44957 -236.941799 
L 158.616256 -236.941799 
L 160.782942 -236.941799 
L 162.949627 -236.941799 
L 165.116313 -236.84036 
L 167.282999 -236.637482 
L 169.449685 -236.333166 
L 171.616371 -235.927411 
L 173.783056 -235.420218 
L 175.949742 -234.811586 
L 178.116428 -234.101515 
L 180.283114 -233.290005 
L 182.449799 -232.377056 
L 184.616485 -231.362669 
L 186.783171 -230.246843 
L 188.949857 -229.029579 
L 191.116542 -227.710875 
L 193.283228 -226.290733 
L 195.449914 -224.769152 
L 197.6166 -223.146133 
L 199.783286 -221.421675 
L 201.949971 -219.595778 
L 204.116657 -217.668442 
L 206.283343 -215.639668 
L 208.450029 -213.712332 
L 210.616714 -211.886435 
L 212.7834 -210.161977 
L 214.950086 -208.538958 
L 217.116772 -207.017377 
L 219.283458 -205.597235 
L 221.450143 -204.278531 
L 223.616829 -203.061267 
L 225.783515 -201.945441 
L 227.950201 -200.931054 
L 230.116886 -200.018105 
L 232.283572 -199.206596 
L 234.450258 -198.496525 
L 236.616944 -197.887892 
L 238.783629 -197.380699 
L 240.950315 -196.974944 
L 243.117001 -196.670628 
L 245.283687 -196.46775 
L 247.450373 -196.366311 
L 249.617058 -196.366311 
L 251.783744 -196.366311 
L 253.95043 -196.366311 
L 256.117116 -196.366311 
L 258.283801 -196.366311 
L 260.450487 -196.366311 
L 262.617173 -196.366311 
L 264.783859 -196.366311 
L 266.950545 -196.366311 
L 269.11723 -196.366311 
L 271.283916 -196.366311 
L 271.283916 -196.566942 
L 271.283916 -196.566942 
L 269.11723 -196.566942 
L 266.950545 -196.566942 
L 264.783859 -196.566942 
L 262.617173 -196.566942 
L 260.450487 -196.566942 
L 258.283801 -196.566942 
L 256.117116 -196.566942 
L 253.95043 -196.566942 
L 251.783744 -196.566942 
L 249.617058 -196.566942 
L 247.450373 -196.566942 
L 245.283687 -196.668381 
L 243.117001 -196.871258 
L 240.950315 -197.175574 
L 238.783629 -197.581329 
L 236.616944 -198.088523 
L 234.450258 -198.697155 
L 232.283572 -199.407226 
L 230.116886 -200.218736 
L 227.950201 -201.131684 
L 225.783515 -202.146071 
L 223.616829 -203.261897 
L 221.450143 -204.479162 
L 219.283458 -205.797865 
L 217.116772 -207.218007 
L 214.950086 -208.739588 
L 212.7834 -210.362607 
L 210.616714 -212.087066 
L 208.450029 -213.912963 
L 206.283343 -215.840298 
L 204.116657 -217.869073 
L 201.949971 -219.796408 
L 199.783286 -221.622305 
L 197.6166 -223.346763 
L 195.449914 -224.969783 
L 193.283228 -226.491364 
L 191.116542 -227.911506 
L 188.949857 -229.230209 
L 186.783171 -230.447474 
L 184.616485 -231.5633 
L 182.449799 -232.577687 
L 180.283114 -233.490635 
L 178.116428 -234.302145 
L 175.949742 -235.012216 
L 173.783056 -235.620848 
L 171.616371 -236.128042 
L 169.449685 -236.533797 
L 167.282999 -236.838113 
L 165.116313 -237.04099 
L 162.949627 -237.142429 
L 160.782942 -237.142429 
L 158.616256 -237.142429 
L 156.44957 -237.142429 
L 154.282884 -237.142429 
L 152.116199 -237.142429 
L 149.949513 -237.142429 
L 147.782827 -237.142429 
L 145.616141 -237.142429 
L 143.449455 -237.142429 
L 141.28277 -237.142429 
L 139.116084 -237.142429 
z
" style="stroke: #91db57; stroke-opacity: 0.65"/>
    </defs>
    <g clip-path="url(#p8f7047584f)">
     <use xlink:href="#mdc594c6568" x="0" y="432" style="fill: #91db57; fill-opacity: 0.65; stroke: #91db57; stroke-opacity: 0.65"/>
    </g>
   </g>
   <g id="PolyCollection_13">
    <defs>
     <path id="m7897a7cfa0" d="M 139.116084 -250.785295 
L 139.116084 -237.142429 
L 141.28277 -237.142429 
L 143.449455 -237.142429 
L 145.616141 -237.142429 
L 147.782827 -237.142429 
L 149.949513 -237.142429 
L 152.116199 -237.142429 
L 154.282884 -237.142429 
L 156.44957 -237.142429 
L 158.616256 -237.142429 
L 160.782942 -237.142429 
L 162.949627 -237.142429 
L 165.116313 -237.069199 
L 167.282999 -236.922739 
L 169.449685 -236.703048 
L 171.616371 -236.410128 
L 173.783056 -236.043978 
L 175.949742 -235.604597 
L 178.116428 -235.091987 
L 180.283114 -234.506146 
L 182.449799 -233.847075 
L 184.616485 -233.114774 
L 186.783171 -232.309243 
L 188.949857 -231.430482 
L 191.116542 -230.478491 
L 193.283228 -229.45327 
L 195.449914 -228.354819 
L 197.6166 -227.183137 
L 199.783286 -225.938226 
L 201.949971 -224.620084 
L 204.116657 -223.228712 
L 206.283343 -221.764111 
L 208.450029 -220.372739 
L 210.616714 -219.054597 
L 212.7834 -217.809686 
L 214.950086 -216.638005 
L 217.116772 -215.539553 
L 219.283458 -214.514332 
L 221.450143 -213.562341 
L 223.616829 -212.68358 
L 225.783515 -211.878049 
L 227.950201 -211.145748 
L 230.116886 -210.486677 
L 232.283572 -209.900837 
L 234.450258 -209.388226 
L 236.616944 -208.948845 
L 238.783629 -208.582695 
L 240.950315 -208.289775 
L 243.117001 -208.070084 
L 245.283687 -207.923624 
L 247.450373 -207.850394 
L 249.617058 -207.850394 
L 251.783744 -207.850394 
L 253.95043 -207.850394 
L 256.117116 -207.850394 
L 258.283801 -207.850394 
L 260.450487 -207.850394 
L 262.617173 -207.850394 
L 264.783859 -207.850394 
L 266.950545 -207.850394 
L 269.11723 -207.850394 
L 271.283916 -207.850394 
L 271.283916 -221.49326 
L 271.283916 -221.49326 
L 269.11723 -221.49326 
L 266.950545 -221.49326 
L 264.783859 -221.49326 
L 262.617173 -221.49326 
L 260.450487 -221.49326 
L 258.283801 -221.49326 
L 256.117116 -221.49326 
L 253.95043 -221.49326 
L 251.783744 -221.49326 
L 249.617058 -221.49326 
L 247.450373 -221.49326 
L 245.283687 -221.56649 
L 243.117001 -221.71295 
L 240.950315 -221.93264 
L 238.783629 -222.225561 
L 236.616944 -222.591711 
L 234.450258 -223.031092 
L 232.283572 -223.543702 
L 230.116886 -224.129543 
L 227.950201 -224.788614 
L 225.783515 -225.520914 
L 223.616829 -226.326445 
L 221.450143 -227.205206 
L 219.283458 -228.157198 
L 217.116772 -229.182419 
L 214.950086 -230.28087 
L 212.7834 -231.452552 
L 210.616714 -232.697463 
L 208.450029 -234.015605 
L 206.283343 -235.406976 
L 204.116657 -236.871578 
L 201.949971 -238.26295 
L 199.783286 -239.581091 
L 197.6166 -240.826003 
L 195.449914 -241.997684 
L 193.283228 -243.096135 
L 191.116542 -244.121357 
L 188.949857 -245.073348 
L 186.783171 -245.952109 
L 184.616485 -246.75764 
L 182.449799 -247.489941 
L 180.283114 -248.149011 
L 178.116428 -248.734852 
L 175.949742 -249.247463 
L 173.783056 -249.686843 
L 171.616371 -250.052994 
L 169.449685 -250.345914 
L 167.282999 -250.565604 
L 165.116313 -250.712064 
L 162.949627 -250.785295 
L 160.782942 -250.785295 
L 158.616256 -250.785295 
L 156.44957 -250.785295 
L 154.282884 -250.785295 
L 152.116199 -250.785295 
L 149.949513 -250.785295 
L 147.782827 -250.785295 
L 145.616141 -250.785295 
L 143.449455 -250.785295 
L 141.28277 -250.785295 
L 139.116084 -250.785295 
z
" style="stroke: #91db57; stroke-opacity: 0.65"/>
    </defs>
    <g clip-path="url(#p8f7047584f)">
     <use xlink:href="#m7897a7cfa0" x="0" y="432" style="fill: #91db57; fill-opacity: 0.65; stroke: #91db57; stroke-opacity: 0.65"/>
    </g>
   </g>
   <g id="PolyCollection_14">
    <defs>
     <path id="mb3682a3ad6" d="M 139.116084 -261.266225 
L 139.116084 -257.454248 
L 141.28277 -257.454248 
L 143.449455 -257.454248 
L 145.616141 -257.454248 
L 147.782827 -257.454248 
L 149.949513 -257.454248 
L 152.116199 -257.454248 
L 154.282884 -257.454248 
L 156.44957 -257.454248 
L 158.616256 -257.454248 
L 160.782942 -257.454248 
L 162.949627 -257.454248 
L 165.116313 -257.30203 
L 167.282999 -256.997593 
L 169.449685 -256.540939 
L 171.616371 -255.932066 
L 173.783056 -255.170974 
L 175.949742 -254.257665 
L 178.116428 -253.192137 
L 180.283114 -251.974391 
L 182.449799 -250.604426 
L 184.616485 -249.082244 
L 186.783171 -247.407843 
L 188.949857 -245.581223 
L 191.116542 -243.602386 
L 193.283228 -241.47133 
L 195.449914 -239.188056 
L 197.6166 -236.752564 
L 199.783286 -234.164854 
L 201.949971 -231.424925 
L 204.116657 -228.532778 
L 206.283343 -225.488412 
L 208.450029 -222.596265 
L 210.616714 -219.856337 
L 212.7834 -217.268626 
L 214.950086 -214.833134 
L 217.116772 -212.54986 
L 219.283458 -210.418804 
L 221.450143 -208.439967 
L 223.616829 -206.613347 
L 225.783515 -204.938946 
L 227.950201 -203.416764 
L 230.116886 -202.046799 
L 232.283572 -200.829053 
L 234.450258 -199.763525 
L 236.616944 -198.850216 
L 238.783629 -198.089124 
L 240.950315 -197.480251 
L 243.117001 -197.023597 
L 245.283687 -196.71916 
L 247.450373 -196.566942 
L 249.617058 -196.566942 
L 251.783744 -196.566942 
L 253.95043 -196.566942 
L 256.117116 -196.566942 
L 258.283801 -196.566942 
L 260.450487 -196.566942 
L 262.617173 -196.566942 
L 264.783859 -196.566942 
L 266.950545 -196.566942 
L 269.11723 -196.566942 
L 271.283916 -196.566942 
L 271.283916 -200.378919 
L 271.283916 -200.378919 
L 269.11723 -200.378919 
L 266.950545 -200.378919 
L 264.783859 -200.378919 
L 262.617173 -200.378919 
L 260.450487 -200.378919 
L 258.283801 -200.378919 
L 256.117116 -200.378919 
L 253.95043 -200.378919 
L 251.783744 -200.378919 
L 249.617058 -200.378919 
L 247.450373 -200.378919 
L 245.283687 -200.531137 
L 243.117001 -200.835574 
L 240.950315 -201.292229 
L 238.783629 -201.901102 
L 236.616944 -202.662193 
L 234.450258 -203.575503 
L 232.283572 -204.64103 
L 230.116886 -205.858777 
L 227.950201 -207.228741 
L 225.783515 -208.750924 
L 223.616829 -210.425325 
L 221.450143 -212.251944 
L 219.283458 -214.230781 
L 217.116772 -216.361837 
L 214.950086 -218.645111 
L 212.7834 -221.080603 
L 210.616714 -223.668314 
L 208.450029 -226.408242 
L 206.283343 -229.300389 
L 204.116657 -232.344755 
L 201.949971 -235.236902 
L 199.783286 -237.976831 
L 197.6166 -240.564541 
L 195.449914 -243.000033 
L 193.283228 -245.283307 
L 191.116542 -247.414363 
L 188.949857 -249.393201 
L 186.783171 -251.21982 
L 184.616485 -252.894221 
L 182.449799 -254.416403 
L 180.283114 -255.786368 
L 178.116428 -257.004114 
L 175.949742 -258.069642 
L 173.783056 -258.982951 
L 171.616371 -259.744043 
L 169.449685 -260.352916 
L 167.282999 -260.809571 
L 165.116313 -261.114007 
L 162.949627 -261.266225 
L 160.782942 -261.266225 
L 158.616256 -261.266225 
L 156.44957 -261.266225 
L 154.282884 -261.266225 
L 152.116199 -261.266225 
L 149.949513 -261.266225 
L 147.782827 -261.266225 
L 145.616141 -261.266225 
L 143.449455 -261.266225 
L 141.28277 -261.266225 
L 139.116084 -261.266225 
z
" style="stroke: #57d3db; stroke-opacity: 0.65"/>
    </defs>
    <g clip-path="url(#p8f7047584f)">
     <use xlink:href="#mb3682a3ad6" x="0" y="432" style="fill: #57d3db; fill-opacity: 0.65; stroke: #57d3db; stroke-opacity: 0.65"/>
    </g>
   </g>
   <g id="PolyCollection_15">
    <defs>
     <path id="me3d6b46074" d="M 139.116084 -337.907029 
L 139.116084 -261.266225 
L 141.28277 -261.266225 
L 143.449455 -261.266225 
L 145.616141 -261.266225 
L 147.782827 -261.266225 
L 149.949513 -261.266225 
L 152.116199 -261.266225 
L 154.282884 -261.266225 
L 156.44957 -261.266225 
L 158.616256 -261.266225 
L 160.782942 -261.266225 
L 162.949627 -261.266225 
L 165.116313 -261.27726 
L 167.282999 -261.299329 
L 169.449685 -261.332433 
L 171.616371 -261.376572 
L 173.783056 -261.431745 
L 175.949742 -261.497953 
L 178.116428 -261.575196 
L 180.283114 -261.663474 
L 182.449799 -261.762786 
L 184.616485 -261.873132 
L 186.783171 -261.994514 
L 188.949857 -262.12693 
L 191.116542 -262.27038 
L 193.283228 -262.424866 
L 195.449914 -262.590386 
L 197.6166 -262.766941 
L 199.783286 -262.95453 
L 201.949971 -263.153154 
L 204.116657 -263.362813 
L 206.283343 -263.583506 
L 208.450029 -263.793165 
L 210.616714 -263.991789 
L 212.7834 -264.179378 
L 214.950086 -264.355933 
L 217.116772 -264.521453 
L 219.283458 -264.675939 
L 221.450143 -264.819389 
L 223.616829 -264.951805 
L 225.783515 -265.073187 
L 227.950201 -265.183533 
L 230.116886 -265.282845 
L 232.283572 -265.371123 
L 234.450258 -265.448366 
L 236.616944 -265.514574 
L 238.783629 -265.569747 
L 240.950315 -265.613886 
L 243.117001 -265.64699 
L 245.283687 -265.669059 
L 247.450373 -265.680094 
L 249.617058 -265.680094 
L 251.783744 -265.680094 
L 253.95043 -265.680094 
L 256.117116 -265.680094 
L 258.283801 -265.680094 
L 260.450487 -265.680094 
L 262.617173 -265.680094 
L 264.783859 -265.680094 
L 266.950545 -265.680094 
L 269.11723 -265.680094 
L 271.283916 -265.680094 
L 271.283916 -342.320897 
L 271.283916 -342.320897 
L 269.11723 -342.320897 
L 266.950545 -342.320897 
L 264.783859 -342.320897 
L 262.617173 -342.320897 
L 260.450487 -342.320897 
L 258.283801 -342.320897 
L 256.117116 -342.320897 
L 253.95043 -342.320897 
L 251.783744 -342.320897 
L 249.617058 -342.320897 
L 247.450373 -342.320897 
L 245.283687 -342.309862 
L 243.117001 -342.287793 
L 240.950315 -342.254689 
L 238.783629 -342.21055 
L 236.616944 -342.155377 
L 234.450258 -342.089169 
L 232.283572 -342.011926 
L 230.116886 -341.923649 
L 227.950201 -341.824337 
L 225.783515 -341.71399 
L 223.616829 -341.592609 
L 221.450143 -341.460193 
L 219.283458 -341.316742 
L 217.116772 -341.162257 
L 214.950086 -340.996737 
L 212.7834 -340.820182 
L 210.616714 -340.632593 
L 208.450029 -340.433968 
L 206.283343 -340.22431 
L 204.116657 -340.003616 
L 201.949971 -339.793958 
L 199.783286 -339.595333 
L 197.6166 -339.407744 
L 195.449914 -339.231189 
L 193.283228 -339.065669 
L 191.116542 -338.911184 
L 188.949857 -338.767733 
L 186.783171 -338.635317 
L 184.616485 -338.513936 
L 182.449799 -338.403589 
L 180.283114 -338.304277 
L 178.116428 -338.216 
L 175.949742 -338.138757 
L 173.783056 -338.072549 
L 171.616371 -338.017376 
L 169.449685 -337.973237 
L 167.282999 -337.940133 
L 165.116313 -337.918064 
L 162.949627 -337.907029 
L 160.782942 -337.907029 
L 158.616256 -337.907029 
L 156.44957 -337.907029 
L 154.282884 -337.907029 
L 152.116199 -337.907029 
L 149.949513 -337.907029 
L 147.782827 -337.907029 
L 145.616141 -337.907029 
L 143.449455 -337.907029 
L 141.28277 -337.907029 
L 139.116084 -337.907029 
z
" style="stroke: #57d3db; stroke-opacity: 0.65"/>
    </defs>
    <g clip-path="url(#p8f7047584f)">
     <use xlink:href="#me3d6b46074" x="0" y="432" style="fill: #57d3db; fill-opacity: 0.65; stroke: #57d3db; stroke-opacity: 0.65"/>
    </g>
   </g>
   <g id="PolyCollection_16">
    <defs>
     <path id="m0ed1b71d8b" d="M 139.116084 -344.728462 
L 139.116084 -337.907029 
L 141.28277 -337.907029 
L 143.449455 -337.907029 
L 145.616141 -337.907029 
L 147.782827 -337.907029 
L 149.949513 -337.907029 
L 152.116199 -337.907029 
L 154.282884 -337.907029 
L 156.44957 -337.907029 
L 158.616256 -337.907029 
L 160.782942 -337.907029 
L 162.949627 -337.907029 
L 165.116313 -337.944767 
L 167.282999 -338.020245 
L 169.449685 -338.13346 
L 171.616371 -338.284415 
L 173.783056 -338.473107 
L 175.949742 -338.699539 
L 178.116428 -338.963709 
L 180.283114 -339.265618 
L 182.449799 -339.605265 
L 184.616485 -339.98265 
L 186.783171 -340.397775 
L 188.949857 -340.850638 
L 191.116542 -341.341239 
L 193.283228 -341.869579 
L 195.449914 -342.435658 
L 197.6166 -343.039475 
L 199.783286 -343.681031 
L 201.949971 -344.360325 
L 204.116657 -345.077358 
L 206.283343 -345.832129 
L 208.450029 -346.549162 
L 210.616714 -347.228457 
L 212.7834 -347.870012 
L 214.950086 -348.47383 
L 217.116772 -349.039908 
L 219.283458 -349.568248 
L 221.450143 -350.05885 
L 223.616829 -350.511712 
L 225.783515 -350.926837 
L 227.950201 -351.304223 
L 230.116886 -351.64387 
L 232.283572 -351.945778 
L 234.450258 -352.209948 
L 236.616944 -352.43638 
L 238.783629 -352.625073 
L 240.950315 -352.776027 
L 243.117001 -352.889243 
L 245.283687 -352.96472 
L 247.450373 -353.002458 
L 249.617058 -353.002458 
L 251.783744 -353.002458 
L 253.95043 -353.002458 
L 256.117116 -353.002458 
L 258.283801 -353.002458 
L 260.450487 -353.002458 
L 262.617173 -353.002458 
L 264.783859 -353.002458 
L 266.950545 -353.002458 
L 269.11723 -353.002458 
L 271.283916 -353.002458 
L 271.283916 -359.823891 
L 271.283916 -359.823891 
L 269.11723 -359.823891 
L 266.950545 -359.823891 
L 264.783859 -359.823891 
L 262.617173 -359.823891 
L 260.450487 -359.823891 
L 258.283801 -359.823891 
L 256.117116 -359.823891 
L 253.95043 -359.823891 
L 251.783744 -359.823891 
L 249.617058 -359.823891 
L 247.450373 -359.823891 
L 245.283687 -359.786153 
L 243.117001 -359.710675 
L 240.950315 -359.59746 
L 238.783629 -359.446505 
L 236.616944 -359.257813 
L 234.450258 -359.031381 
L 232.283572 -358.767211 
L 230.116886 -358.465302 
L 227.950201 -358.125655 
L 225.783515 -357.74827 
L 223.616829 -357.333145 
L 221.450143 -356.880282 
L 219.283458 -356.389681 
L 217.116772 -355.861341 
L 214.950086 -355.295262 
L 212.7834 -354.691445 
L 210.616714 -354.049889 
L 208.450029 -353.370595 
L 206.283343 -352.653562 
L 204.116657 -351.898791 
L 201.949971 -351.181758 
L 199.783286 -350.502463 
L 197.6166 -349.860908 
L 195.449914 -349.25709 
L 193.283228 -348.691012 
L 191.116542 -348.162672 
L 188.949857 -347.67207 
L 186.783171 -347.219208 
L 184.616485 -346.804083 
L 182.449799 -346.426697 
L 180.283114 -346.08705 
L 178.116428 -345.785142 
L 175.949742 -345.520972 
L 173.783056 -345.29454 
L 171.616371 -345.105847 
L 169.449685 -344.954893 
L 167.282999 -344.841677 
L 165.116313 -344.7662 
L 162.949627 -344.728462 
L 160.782942 -344.728462 
L 158.616256 -344.728462 
L 156.44957 -344.728462 
L 154.282884 -344.728462 
L 152.116199 -344.728462 
L 149.949513 -344.728462 
L 147.782827 -344.728462 
L 145.616141 -344.728462 
L 143.449455 -344.728462 
L 141.28277 -344.728462 
L 139.116084 -344.728462 
z
" style="stroke: #57d3db; stroke-opacity: 0.65"/>
    </defs>
    <g clip-path="url(#p8f7047584f)">
     <use xlink:href="#m0ed1b71d8b" x="0" y="432" style="fill: #57d3db; fill-opacity: 0.65; stroke: #57d3db; stroke-opacity: 0.65"/>
    </g>
   </g>
   <g id="PolyCollection_17">
    <defs>
     <path id="m5a3deff65b" d="M 139.116084 -352.199937 
L 139.116084 -351.397415 
L 141.28277 -351.397415 
L 143.449455 -351.397415 
L 145.616141 -351.397415 
L 147.782827 -351.397415 
L 149.949513 -351.397415 
L 152.116199 -351.397415 
L 154.282884 -351.397415 
L 156.44957 -351.397415 
L 158.616256 -351.397415 
L 160.782942 -351.397415 
L 162.949627 -351.397415 
L 165.116313 -351.019869 
L 167.282999 -350.264777 
L 169.449685 -349.132138 
L 171.616371 -347.621953 
L 173.783056 -345.734222 
L 175.949742 -343.468944 
L 178.116428 -340.826121 
L 180.283114 -337.805751 
L 182.449799 -334.407834 
L 184.616485 -330.632372 
L 186.783171 -326.479363 
L 188.949857 -321.948809 
L 191.116542 -317.040707 
L 193.283228 -311.75506 
L 195.449914 -306.091866 
L 197.6166 -300.051127 
L 199.783286 -293.63284 
L 201.949971 -286.837008 
L 204.116657 -279.66363 
L 206.283343 -272.112705 
L 208.450029 -264.939326 
L 210.616714 -258.143494 
L 212.7834 -251.725208 
L 214.950086 -245.684468 
L 217.116772 -240.021274 
L 219.283458 -234.735627 
L 221.450143 -229.827526 
L 223.616829 -225.296971 
L 225.783515 -221.143962 
L 227.950201 -217.3685 
L 230.116886 -213.970584 
L 232.283572 -210.950214 
L 234.450258 -208.30739 
L 236.616944 -206.042113 
L 238.783629 -204.154381 
L 240.950315 -202.644196 
L 243.117001 -201.511558 
L 245.283687 -200.756465 
L 247.450373 -200.378919 
L 249.617058 -200.378919 
L 251.783744 -200.378919 
L 253.95043 -200.378919 
L 256.117116 -200.378919 
L 258.283801 -200.378919 
L 260.450487 -200.378919 
L 262.617173 -200.378919 
L 264.783859 -200.378919 
L 266.950545 -200.378919 
L 269.11723 -200.378919 
L 271.283916 -200.378919 
L 271.283916 -201.18144 
L 271.283916 -201.18144 
L 269.11723 -201.18144 
L 266.950545 -201.18144 
L 264.783859 -201.18144 
L 262.617173 -201.18144 
L 260.450487 -201.18144 
L 258.283801 -201.18144 
L 256.117116 -201.18144 
L 253.95043 -201.18144 
L 251.783744 -201.18144 
L 249.617058 -201.18144 
L 247.450373 -201.18144 
L 245.283687 -201.558987 
L 243.117001 -202.314079 
L 240.950315 -203.446718 
L 238.783629 -204.956903 
L 236.616944 -206.844634 
L 234.450258 -209.109912 
L 232.283572 -211.752735 
L 230.116886 -214.773105 
L 227.950201 -218.171021 
L 225.783515 -221.946484 
L 223.616829 -226.099492 
L 221.450143 -230.630047 
L 219.283458 -235.538148 
L 217.116772 -240.823796 
L 214.950086 -246.486989 
L 212.7834 -252.527729 
L 210.616714 -258.946015 
L 208.450029 -265.741848 
L 206.283343 -272.915226 
L 204.116657 -280.466151 
L 201.949971 -287.63953 
L 199.783286 -294.435362 
L 197.6166 -300.853648 
L 195.449914 -306.894388 
L 193.283228 -312.557582 
L 191.116542 -317.843229 
L 188.949857 -322.75133 
L 186.783171 -327.281885 
L 184.616485 -331.434894 
L 182.449799 -335.210356 
L 180.283114 -338.608272 
L 178.116428 -341.628642 
L 175.949742 -344.271466 
L 173.783056 -346.536743 
L 171.616371 -348.424474 
L 169.449685 -349.934659 
L 167.282999 -351.067298 
L 165.116313 -351.822391 
L 162.949627 -352.199937 
L 160.782942 -352.199937 
L 158.616256 -352.199937 
L 156.44957 -352.199937 
L 154.282884 -352.199937 
L 152.116199 -352.199937 
L 149.949513 -352.199937 
L 147.782827 -352.199937 
L 145.616141 -352.199937 
L 143.449455 -352.199937 
L 141.28277 -352.199937 
L 139.116084 -352.199937 
z
" style="stroke: #a157db; stroke-opacity: 0.65"/>
    </defs>
    <g clip-path="url(#p8f7047584f)">
     <use xlink:href="#m5a3deff65b" x="0" y="432" style="fill: #a157db; fill-opacity: 0.65; stroke: #a157db; stroke-opacity: 0.65"/>
    </g>
   </g>
   <g id="PolyCollection_18">
    <defs>
     <path id="m7ef826130d" d="M 139.116084 -356.212544 
L 139.116084 -352.199937 
L 141.28277 -352.199937 
L 143.449455 -352.199937 
L 145.616141 -352.199937 
L 147.782827 -352.199937 
L 149.949513 -352.199937 
L 152.116199 -352.199937 
L 154.282884 -352.199937 
L 156.44957 -352.199937 
L 158.616256 -352.199937 
L 160.782942 -352.199937 
L 162.949627 -352.199937 
L 165.116313 -351.87317 
L 167.282999 -351.219637 
L 169.449685 -350.239337 
L 171.616371 -348.93227 
L 173.783056 -347.298436 
L 175.949742 -345.337836 
L 178.116428 -343.050469 
L 180.283114 -340.436336 
L 182.449799 -337.495436 
L 184.616485 -334.227769 
L 186.783171 -330.633335 
L 188.949857 -326.712135 
L 191.116542 -322.464168 
L 193.283228 -317.889434 
L 195.449914 -312.987934 
L 197.6166 -307.759667 
L 199.783286 -302.204633 
L 201.949971 -296.322832 
L 204.116657 -290.114265 
L 206.283343 -283.578931 
L 208.450029 -277.370364 
L 210.616714 -271.488564 
L 212.7834 -265.93353 
L 214.950086 -260.705263 
L 217.116772 -255.803762 
L 219.283458 -251.229029 
L 221.450143 -246.981062 
L 223.616829 -243.059861 
L 225.783515 -239.465428 
L 227.950201 -236.197761 
L 230.116886 -233.256861 
L 232.283572 -230.642727 
L 234.450258 -228.35536 
L 236.616944 -226.39476 
L 238.783629 -224.760927 
L 240.950315 -223.45386 
L 243.117001 -222.47356 
L 245.283687 -221.820026 
L 247.450373 -221.49326 
L 249.617058 -221.49326 
L 251.783744 -221.49326 
L 253.95043 -221.49326 
L 256.117116 -221.49326 
L 258.283801 -221.49326 
L 260.450487 -221.49326 
L 262.617173 -221.49326 
L 264.783859 -221.49326 
L 266.950545 -221.49326 
L 269.11723 -221.49326 
L 271.283916 -221.49326 
L 271.283916 -225.505867 
L 271.283916 -225.505867 
L 269.11723 -225.505867 
L 266.950545 -225.505867 
L 264.783859 -225.505867 
L 262.617173 -225.505867 
L 260.450487 -225.505867 
L 258.283801 -225.505867 
L 256.117116 -225.505867 
L 253.95043 -225.505867 
L 251.783744 -225.505867 
L 249.617058 -225.505867 
L 247.450373 -225.505867 
L 245.283687 -225.832634 
L 243.117001 -226.486167 
L 240.950315 -227.466467 
L 238.783629 -228.773534 
L 236.616944 -230.407368 
L 234.450258 -232.367968 
L 232.283572 -234.655335 
L 230.116886 -237.269468 
L 227.950201 -240.210368 
L 225.783515 -243.478035 
L 223.616829 -247.072469 
L 221.450143 -250.993669 
L 219.283458 -255.241636 
L 217.116772 -259.81637 
L 214.950086 -264.71787 
L 212.7834 -269.946137 
L 210.616714 -275.501171 
L 208.450029 -281.382972 
L 206.283343 -287.591539 
L 204.116657 -294.126873 
L 201.949971 -300.33544 
L 199.783286 -306.21724 
L 197.6166 -311.772274 
L 195.449914 -317.000541 
L 193.283228 -321.902042 
L 191.116542 -326.476775 
L 188.949857 -330.724742 
L 186.783171 -334.645943 
L 184.616485 -338.240376 
L 182.449799 -341.508043 
L 180.283114 -344.448943 
L 178.116428 -347.063077 
L 175.949742 -349.350444 
L 173.783056 -351.311044 
L 171.616371 -352.944877 
L 169.449685 -354.251944 
L 167.282999 -355.232244 
L 165.116313 -355.885778 
L 162.949627 -356.212544 
L 160.782942 -356.212544 
L 158.616256 -356.212544 
L 156.44957 -356.212544 
L 154.282884 -356.212544 
L 152.116199 -356.212544 
L 149.949513 -356.212544 
L 147.782827 -356.212544 
L 145.616141 -356.212544 
L 143.449455 -356.212544 
L 141.28277 -356.212544 
L 139.116084 -356.212544 
z
" style="stroke: #a157db; stroke-opacity: 0.65"/>
    </defs>
    <g clip-path="url(#p8f7047584f)">
     <use xlink:href="#m7ef826130d" x="0" y="432" style="fill: #a157db; fill-opacity: 0.65; stroke: #a157db; stroke-opacity: 0.65"/>
    </g>
   </g>
   <g id="PolyCollection_19">
    <defs>
     <path id="md191aa787d" d="M 139.116084 -359.823891 
L 139.116084 -356.212544 
L 141.28277 -356.212544 
L 143.449455 -356.212544 
L 145.616141 -356.212544 
L 147.782827 -356.212544 
L 149.949513 -356.212544 
L 152.116199 -356.212544 
L 154.282884 -356.212544 
L 156.44957 -356.212544 
L 158.616256 -356.212544 
L 160.782942 -356.212544 
L 162.949627 -356.212544 
L 165.116313 -356.177815 
L 167.282999 -356.108357 
L 169.449685 -356.00417 
L 171.616371 -355.865253 
L 173.783056 -355.691608 
L 175.949742 -355.483233 
L 178.116428 -355.240129 
L 180.283114 -354.962296 
L 182.449799 -354.649734 
L 184.616485 -354.302443 
L 186.783171 -353.920423 
L 188.949857 -353.503673 
L 191.116542 -353.052195 
L 193.283228 -352.565987 
L 195.449914 -352.04505 
L 197.6166 -351.489384 
L 199.783286 -350.898989 
L 201.949971 -350.273865 
L 204.116657 -349.614012 
L 206.283343 -348.91943 
L 208.450029 -348.259576 
L 210.616714 -347.634452 
L 212.7834 -347.044057 
L 214.950086 -346.488391 
L 217.116772 -345.967455 
L 219.283458 -345.481247 
L 221.450143 -345.029768 
L 223.616829 -344.613019 
L 225.783515 -344.230999 
L 227.950201 -343.883707 
L 230.116886 -343.571145 
L 232.283572 -343.293312 
L 234.450258 -343.050209 
L 236.616944 -342.841834 
L 238.783629 -342.668188 
L 240.950315 -342.529272 
L 243.117001 -342.425084 
L 245.283687 -342.355626 
L 247.450373 -342.320897 
L 249.617058 -342.320897 
L 251.783744 -342.320897 
L 253.95043 -342.320897 
L 256.117116 -342.320897 
L 258.283801 -342.320897 
L 260.450487 -342.320897 
L 262.617173 -342.320897 
L 264.783859 -342.320897 
L 266.950545 -342.320897 
L 269.11723 -342.320897 
L 271.283916 -342.320897 
L 271.283916 -345.932244 
L 271.283916 -345.932244 
L 269.11723 -345.932244 
L 266.950545 -345.932244 
L 264.783859 -345.932244 
L 262.617173 -345.932244 
L 260.450487 -345.932244 
L 258.283801 -345.932244 
L 256.117116 -345.932244 
L 253.95043 -345.932244 
L 251.783744 -345.932244 
L 249.617058 -345.932244 
L 247.450373 -345.932244 
L 245.283687 -345.966973 
L 243.117001 -346.036431 
L 240.950315 -346.140619 
L 238.783629 -346.279535 
L 236.616944 -346.453181 
L 234.450258 -346.661555 
L 232.283572 -346.904659 
L 230.116886 -347.182492 
L 227.950201 -347.495054 
L 225.783515 -347.842345 
L 223.616829 -348.224366 
L 221.450143 -348.641115 
L 219.283458 -349.092594 
L 217.116772 -349.578801 
L 214.950086 -350.099738 
L 212.7834 -350.655404 
L 210.616714 -351.245799 
L 208.450029 -351.870923 
L 206.283343 -352.530776 
L 204.116657 -353.225359 
L 201.949971 -353.885212 
L 199.783286 -354.510336 
L 197.6166 -355.100731 
L 195.449914 -355.656397 
L 193.283228 -356.177334 
L 191.116542 -356.663541 
L 188.949857 -357.11502 
L 186.783171 -357.531769 
L 184.616485 -357.91379 
L 182.449799 -358.261081 
L 180.283114 -358.573643 
L 178.116428 -358.851476 
L 175.949742 -359.09458 
L 173.783056 -359.302954 
L 171.616371 -359.4766 
L 169.449685 -359.615516 
L 167.282999 -359.719704 
L 165.116313 -359.789162 
L 162.949627 -359.823891 
L 160.782942 -359.823891 
L 158.616256 -359.823891 
L 156.44957 -359.823891 
L 154.282884 -359.823891 
L 152.116199 -359.823891 
L 149.949513 -359.823891 
L 147.782827 -359.823891 
L 145.616141 -359.823891 
L 143.449455 -359.823891 
L 141.28277 -359.823891 
L 139.116084 -359.823891 
z
" style="stroke: #a157db; stroke-opacity: 0.65"/>
    </defs>
    <g clip-path="url(#p8f7047584f)">
     <use xlink:href="#md191aa787d" x="0" y="432" style="fill: #a157db; fill-opacity: 0.65; stroke: #a157db; stroke-opacity: 0.65"/>
    </g>
   </g>
   <g id="PolyCollection_20">
    <defs>
     <path id="m8baf9c3560" d="M 139.116084 -392.727273 
L 139.116084 -359.823891 
L 141.28277 -359.823891 
L 143.449455 -359.823891 
L 145.616141 -359.823891 
L 147.782827 -359.823891 
L 149.949513 -359.823891 
L 152.116199 -359.823891 
L 154.282884 -359.823891 
L 156.44957 -359.823891 
L 158.616256 -359.823891 
L 160.782942 -359.823891 
L 162.949627 -359.823891 
L 165.116313 -359.823891 
L 167.282999 -359.823891 
L 169.449685 -359.823891 
L 171.616371 -359.823891 
L 173.783056 -359.823891 
L 175.949742 -359.823891 
L 178.116428 -359.823891 
L 180.283114 -359.823891 
L 182.449799 -359.823891 
L 184.616485 -359.823891 
L 186.783171 -359.823891 
L 188.949857 -359.823891 
L 191.116542 -359.823891 
L 193.283228 -359.823891 
L 195.449914 -359.823891 
L 197.6166 -359.823891 
L 199.783286 -359.823891 
L 201.949971 -359.823891 
L 204.116657 -359.823891 
L 206.283343 -359.823891 
L 208.450029 -359.823891 
L 210.616714 -359.823891 
L 212.7834 -359.823891 
L 214.950086 -359.823891 
L 217.116772 -359.823891 
L 219.283458 -359.823891 
L 221.450143 -359.823891 
L 223.616829 -359.823891 
L 225.783515 -359.823891 
L 227.950201 -359.823891 
L 230.116886 -359.823891 
L 232.283572 -359.823891 
L 234.450258 -359.823891 
L 236.616944 -359.823891 
L 238.783629 -359.823891 
L 240.950315 -359.823891 
L 243.117001 -359.823891 
L 245.283687 -359.823891 
L 247.450373 -359.823891 
L 249.617058 -359.823891 
L 251.783744 -359.823891 
L 253.95043 -359.823891 
L 256.117116 -359.823891 
L 258.283801 -359.823891 
L 260.450487 -359.823891 
L 262.617173 -359.823891 
L 264.783859 -359.823891 
L 266.950545 -359.823891 
L 269.11723 -359.823891 
L 271.283916 -359.823891 
L 271.283916 -392.727273 
L 271.283916 -392.727273 
L 269.11723 -392.727273 
L 266.950545 -392.727273 
L 264.783859 -392.727273 
L 262.617173 -392.727273 
L 260.450487 -392.727273 
L 258.283801 -392.727273 
L 256.117116 -392.727273 
L 253.95043 -392.727273 
L 251.783744 -392.727273 
L 249.617058 -392.727273 
L 247.450373 -392.727273 
L 245.283687 -392.727273 
L 243.117001 -392.727273 
L 240.950315 -392.727273 
L 238.783629 -392.727273 
L 236.616944 -392.727273 
L 234.450258 -392.727273 
L 232.283572 -392.727273 
L 230.116886 -392.727273 
L 227.950201 -392.727273 
L 225.783515 -392.727273 
L 223.616829 -392.727273 
L 221.450143 -392.727273 
L 219.283458 -392.727273 
L 217.116772 -392.727273 
L 214.950086 -392.727273 
L 212.7834 -392.727273 
L 210.616714 -392.727273 
L 208.450029 -392.727273 
L 206.283343 -392.727273 
L 204.116657 -392.727273 
L 201.949971 -392.727273 
L 199.783286 -392.727273 
L 197.6166 -392.727273 
L 195.449914 -392.727273 
L 193.283228 -392.727273 
L 191.116542 -392.727273 
L 188.949857 -392.727273 
L 186.783171 -392.727273 
L 184.616485 -392.727273 
L 182.449799 -392.727273 
L 180.283114 -392.727273 
L 178.116428 -392.727273 
L 175.949742 -392.727273 
L 173.783056 -392.727273 
L 171.616371 -392.727273 
L 169.449685 -392.727273 
L 167.282999 -392.727273 
L 165.116313 -392.727273 
L 162.949627 -392.727273 
L 160.782942 -392.727273 
L 158.616256 -392.727273 
L 156.44957 -392.727273 
L 154.282884 -392.727273 
L 152.116199 -392.727273 
L 149.949513 -392.727273 
L 147.782827 -392.727273 
L 145.616141 -392.727273 
L 143.449455 -392.727273 
L 141.28277 -392.727273 
L 139.116084 -392.727273 
z
" style="stroke: #a157db; stroke-opacity: 0.65"/>
    </defs>
    <g clip-path="url(#p8f7047584f)">
     <use xlink:href="#m8baf9c3560" x="0" y="432" style="fill: #a157db; fill-opacity: 0.65; stroke: #a157db; stroke-opacity: 0.65"/>
    </g>
   </g>
   <g id="text_1">
    <!-- Molecular layer -->
    <g transform="translate(52.46238 299.915495) scale(0.1 -0.1)">
     <defs>
      <path id="DejaVuSerif-4d" d="M 353 0 
L 353 331 
L 947 331 
L 947 4331 
L 319 4331 
L 319 4666 
L 1678 4666 
L 3316 1344 
L 4953 4666 
L 6228 4666 
L 6228 4331 
L 5606 4331 
L 5606 331 
L 6203 331 
L 6203 0 
L 4378 0 
L 4378 331 
L 4972 331 
L 4972 3938 
L 3372 684 
L 2931 684 
L 1331 3938 
L 1331 331 
L 1925 331 
L 1925 0 
L 353 0 
z
" transform="scale(0.015625)"/>
      <path id="DejaVuSerif-6f" d="M 1925 219 
Q 2388 219 2623 584 
Q 2859 950 2859 1663 
Q 2859 2375 2623 2739 
Q 2388 3103 1925 3103 
Q 1463 3103 1227 2739 
Q 991 2375 991 1663 
Q 991 950 1228 584 
Q 1466 219 1925 219 
z
M 1925 -91 
Q 1200 -91 759 389 
Q 319 869 319 1663 
Q 319 2456 758 2934 
Q 1197 3413 1925 3413 
Q 2653 3413 3092 2934 
Q 3531 2456 3531 1663 
Q 3531 869 3092 389 
Q 2653 -91 1925 -91 
z
" transform="scale(0.015625)"/>
      <path id="DejaVuSerif-6c" d="M 1313 331 
L 1856 331 
L 1856 0 
L 184 0 
L 184 331 
L 738 331 
L 738 4531 
L 184 4531 
L 184 4863 
L 1313 4863 
L 1313 331 
z
" transform="scale(0.015625)"/>
      <path id="DejaVuSerif-65" d="M 3469 1600 
L 991 1600 
L 991 1575 
Q 991 903 1244 561 
Q 1497 219 1991 219 
Q 2369 219 2611 417 
Q 2853 616 2950 1006 
L 3413 1006 
Q 3275 459 2904 184 
Q 2534 -91 1931 -91 
Q 1203 -91 761 389 
Q 319 869 319 1663 
Q 319 2450 753 2931 
Q 1188 3413 1894 3413 
Q 2647 3413 3050 2948 
Q 3453 2484 3469 1600 
z
M 2791 1931 
Q 2772 2513 2545 2808 
Q 2319 3103 1894 3103 
Q 1497 3103 1269 2806 
Q 1041 2509 991 1931 
L 2791 1931 
z
" transform="scale(0.015625)"/>
      <path id="DejaVuSerif-63" d="M 3291 997 
Q 3169 466 2822 187 
Q 2475 -91 1925 -91 
Q 1200 -91 759 389 
Q 319 869 319 1663 
Q 319 2459 759 2936 
Q 1200 3413 1925 3413 
Q 2241 3413 2553 3339 
Q 2866 3266 3181 3116 
L 3181 2266 
L 2847 2266 
Q 2781 2703 2561 2903 
Q 2341 3103 1931 3103 
Q 1466 3103 1228 2742 
Q 991 2381 991 1663 
Q 991 944 1227 581 
Q 1463 219 1931 219 
Q 2303 219 2525 412 
Q 2747 606 2828 997 
L 3291 997 
z
" transform="scale(0.015625)"/>
      <path id="DejaVuSerif-75" d="M 2266 3322 
L 3341 3322 
L 3341 331 
L 3884 331 
L 3884 0 
L 2766 0 
L 2766 588 
Q 2606 256 2353 82 
Q 2100 -91 1766 -91 
Q 1213 -91 952 223 
Q 691 538 691 1209 
L 691 2988 
L 172 2988 
L 172 3322 
L 1269 3322 
L 1269 1388 
Q 1269 781 1417 556 
Q 1566 331 1947 331 
Q 2347 331 2556 625 
Q 2766 919 2766 1478 
L 2766 2988 
L 2266 2988 
L 2266 3322 
z
" transform="scale(0.015625)"/>
      <path id="DejaVuSerif-61" d="M 2547 1044 
L 2547 1747 
L 1806 1747 
Q 1378 1747 1168 1562 
Q 959 1378 959 997 
Q 959 650 1171 447 
Q 1384 244 1747 244 
Q 2106 244 2326 466 
Q 2547 688 2547 1044 
z
M 3122 2075 
L 3122 331 
L 3634 331 
L 3634 0 
L 2547 0 
L 2547 359 
Q 2356 128 2106 18 
Q 1856 -91 1522 -91 
Q 969 -91 644 203 
Q 319 497 319 997 
Q 319 1513 691 1797 
Q 1063 2081 1741 2081 
L 2547 2081 
L 2547 2309 
Q 2547 2688 2317 2895 
Q 2088 3103 1672 3103 
Q 1328 3103 1125 2947 
Q 922 2791 872 2484 
L 575 2484 
L 575 3156 
Q 875 3284 1158 3348 
Q 1441 3413 1709 3413 
Q 2400 3413 2761 3070 
Q 3122 2728 3122 2075 
z
" transform="scale(0.015625)"/>
      <path id="DejaVuSerif-72" d="M 3059 3328 
L 3059 2497 
L 2728 2497 
Q 2713 2744 2591 2866 
Q 2469 2988 2234 2988 
Q 1809 2988 1582 2694 
Q 1356 2400 1356 1850 
L 1356 331 
L 2022 331 
L 2022 0 
L 263 0 
L 263 331 
L 781 331 
L 781 2994 
L 231 2994 
L 231 3322 
L 1356 3322 
L 1356 2731 
Q 1525 3078 1790 3245 
Q 2056 3413 2438 3413 
Q 2578 3413 2733 3391 
Q 2888 3369 3059 3328 
z
" transform="scale(0.015625)"/>
      <path id="DejaVuSerif-20" transform="scale(0.015625)"/>
      <path id="DejaVuSerif-79" d="M 1381 -609 
L 1600 -56 
L 359 2988 
L -19 2988 
L -19 3322 
L 1509 3322 
L 1509 2988 
L 978 2988 
L 1913 703 
L 2847 2988 
L 2350 2988 
L 2350 3322 
L 3597 3322 
L 3597 2988 
L 3225 2988 
L 1703 -750 
Q 1547 -1138 1356 -1280 
Q 1166 -1422 819 -1422 
Q 672 -1422 517 -1397 
Q 363 -1372 206 -1325 
L 206 -691 
L 500 -691 
Q 519 -903 608 -995 
Q 697 -1088 884 -1088 
Q 1056 -1088 1161 -992 
Q 1266 -897 1381 -609 
z
" transform="scale(0.015625)"/>
     </defs>
     <use xlink:href="#DejaVuSerif-4d"/>
     <use xlink:href="#DejaVuSerif-6f" x="102.392578"/>
     <use xlink:href="#DejaVuSerif-6c" x="162.597656"/>
     <use xlink:href="#DejaVuSerif-65" x="194.580078"/>
     <use xlink:href="#DejaVuSerif-63" x="253.759766"/>
     <use xlink:href="#DejaVuSerif-75" x="309.765625"/>
     <use xlink:href="#DejaVuSerif-6c" x="374.169922"/>
     <use xlink:href="#DejaVuSerif-61" x="406.152344"/>
     <use xlink:href="#DejaVuSerif-72" x="465.771484"/>
     <use xlink:href="#DejaVuSerif-20" x="513.574219"/>
     <use xlink:href="#DejaVuSerif-6c" x="545.361328"/>
     <use xlink:href="#DejaVuSerif-61" x="577.34375"/>
     <use xlink:href="#DejaVuSerif-79" x="636.962891"/>
     <use xlink:href="#DejaVuSerif-65" x="693.457031"/>
     <use xlink:href="#DejaVuSerif-72" x="752.636719"/>
    </g>
   </g>
   <g id="text_2">
    <!-- Lateral recess -->
    <g transform="translate(60.36863 190.895828) scale(0.1 -0.1)">
     <defs>
      <path id="DejaVuSerif-4c" d="M 353 0 
L 353 331 
L 947 331 
L 947 4331 
L 353 4331 
L 353 4666 
L 2175 4666 
L 2175 4331 
L 1581 4331 
L 1581 384 
L 3713 384 
L 3713 1166 
L 4097 1166 
L 4097 0 
L 353 0 
z
" transform="scale(0.015625)"/>
      <path id="DejaVuSerif-74" d="M 691 2988 
L 184 2988 
L 184 3322 
L 691 3322 
L 691 4353 
L 1269 4353 
L 1269 3322 
L 2350 3322 
L 2350 2988 
L 1269 2988 
L 1269 878 
Q 1269 456 1350 337 
Q 1431 219 1650 219 
Q 1875 219 1978 351 
Q 2081 484 2088 781 
L 2522 781 
Q 2497 328 2275 118 
Q 2053 -91 1600 -91 
Q 1103 -91 897 129 
Q 691 350 691 878 
L 691 2988 
z
" transform="scale(0.015625)"/>
      <path id="DejaVuSerif-73" d="M 359 184 
L 359 959 
L 691 959 
Q 703 588 923 403 
Q 1144 219 1575 219 
Q 1963 219 2166 364 
Q 2369 509 2369 788 
Q 2369 1006 2220 1140 
Q 2072 1275 1594 1428 
L 1178 1569 
Q 750 1706 558 1912 
Q 366 2119 366 2438 
Q 366 2894 700 3153 
Q 1034 3413 1625 3413 
Q 1888 3413 2178 3344 
Q 2469 3275 2778 3144 
L 2778 2419 
L 2447 2419 
Q 2434 2741 2221 2922 
Q 2009 3103 1644 3103 
Q 1281 3103 1095 2975 
Q 909 2847 909 2591 
Q 909 2381 1050 2254 
Q 1191 2128 1613 1997 
L 2069 1856 
Q 2541 1709 2748 1489 
Q 2956 1269 2956 922 
Q 2956 450 2595 179 
Q 2234 -91 1600 -91 
Q 1278 -91 972 -22 
Q 666 47 359 184 
z
" transform="scale(0.015625)"/>
     </defs>
     <use xlink:href="#DejaVuSerif-4c"/>
     <use xlink:href="#DejaVuSerif-61" x="66.40625"/>
     <use xlink:href="#DejaVuSerif-74" x="126.025391"/>
     <use xlink:href="#DejaVuSerif-65" x="166.210938"/>
     <use xlink:href="#DejaVuSerif-72" x="225.390625"/>
     <use xlink:href="#DejaVuSerif-61" x="273.193359"/>
     <use xlink:href="#DejaVuSerif-6c" x="332.8125"/>
     <use xlink:href="#DejaVuSerif-20" x="364.794922"/>
     <use xlink:href="#DejaVuSerif-72" x="396.582031"/>
     <use xlink:href="#DejaVuSerif-65" x="444.384766"/>
     <use xlink:href="#DejaVuSerif-63" x="503.564453"/>
     <use xlink:href="#DejaVuSerif-65" x="559.570312"/>
     <use xlink:href="#DejaVuSerif-73" x="618.75"/>
     <use xlink:href="#DejaVuSerif-73" x="670.068359"/>
    </g>
   </g>
   <g id="text_3">
    <!-- Granular layer -->
    <g transform="translate(58.267067 133.596926) scale(0.1 -0.1)">
     <defs>
      <path id="DejaVuSerif-47" d="M 4097 3272 
Q 3988 3856 3641 4136 
Q 3294 4416 2675 4416 
Q 1869 4416 1472 3897 
Q 1075 3378 1075 2328 
Q 1075 1300 1484 772 
Q 1894 244 2688 244 
Q 3041 244 3362 331 
Q 3684 419 3975 594 
L 3975 1797 
L 3097 1797 
L 3097 2131 
L 4609 2131 
L 4609 391 
Q 4194 150 3714 29 
Q 3234 -91 2688 -91 
Q 1631 -91 995 570 
Q 359 1231 359 2328 
Q 359 3434 996 4092 
Q 1634 4750 2713 4750 
Q 3113 4750 3539 4658 
Q 3966 4566 4447 4378 
L 4447 3272 
L 4097 3272 
z
" transform="scale(0.015625)"/>
      <path id="DejaVuSerif-6e" d="M 263 0 
L 263 331 
L 781 331 
L 781 2988 
L 231 2988 
L 231 3322 
L 1356 3322 
L 1356 2731 
Q 1516 3069 1770 3241 
Q 2025 3413 2363 3413 
Q 2913 3413 3172 3097 
Q 3431 2781 3431 2113 
L 3431 331 
L 3944 331 
L 3944 0 
L 2356 0 
L 2356 331 
L 2853 331 
L 2853 1931 
Q 2853 2541 2703 2767 
Q 2553 2994 2175 2994 
Q 1775 2994 1565 2701 
Q 1356 2409 1356 1850 
L 1356 331 
L 1856 331 
L 1856 0 
L 263 0 
z
" transform="scale(0.015625)"/>
     </defs>
     <use xlink:href="#DejaVuSerif-47"/>
     <use xlink:href="#DejaVuSerif-72" x="79.882812"/>
     <use xlink:href="#DejaVuSerif-61" x="127.685547"/>
     <use xlink:href="#DejaVuSerif-6e" x="187.304688"/>
     <use xlink:href="#DejaVuSerif-75" x="251.708984"/>
     <use xlink:href="#DejaVuSerif-6c" x="316.113281"/>
     <use xlink:href="#DejaVuSerif-61" x="348.095703"/>
     <use xlink:href="#DejaVuSerif-72" x="407.714844"/>
     <use xlink:href="#DejaVuSerif-20" x="455.517578"/>
     <use xlink:href="#DejaVuSerif-6c" x="487.304688"/>
     <use xlink:href="#DejaVuSerif-61" x="519.287109"/>
     <use xlink:href="#DejaVuSerif-79" x="578.90625"/>
     <use xlink:href="#DejaVuSerif-65" x="635.400391"/>
     <use xlink:href="#DejaVuSerif-72" x="694.580078"/>
    </g>
   </g>
   <g id="text_4">
    <!-- Fiber tracts -->
    <g transform="translate(72.58113 62.697031) scale(0.1 -0.1)">
     <defs>
      <path id="DejaVuSerif-46" d="M 353 0 
L 353 331 
L 947 331 
L 947 4331 
L 353 4331 
L 353 4666 
L 4172 4666 
L 4172 3628 
L 3788 3628 
L 3788 4281 
L 1581 4281 
L 1581 2719 
L 3175 2719 
L 3175 3303 
L 3559 3303 
L 3559 1753 
L 3175 1753 
L 3175 2338 
L 1581 2338 
L 1581 331 
L 2328 331 
L 2328 0 
L 353 0 
z
" transform="scale(0.015625)"/>
      <path id="DejaVuSerif-69" d="M 622 4353 
Q 622 4497 726 4603 
Q 831 4709 978 4709 
Q 1122 4709 1226 4603 
Q 1331 4497 1331 4353 
Q 1331 4206 1228 4103 
Q 1125 4000 978 4000 
Q 831 4000 726 4103 
Q 622 4206 622 4353 
z
M 1356 331 
L 1900 331 
L 1900 0 
L 231 0 
L 231 331 
L 781 331 
L 781 2988 
L 231 2988 
L 231 3322 
L 1356 3322 
L 1356 331 
z
" transform="scale(0.015625)"/>
      <path id="DejaVuSerif-62" d="M 738 331 
L 738 4531 
L 184 4531 
L 184 4863 
L 1313 4863 
L 1313 2803 
Q 1481 3116 1742 3264 
Q 2003 3413 2388 3413 
Q 3000 3413 3387 2928 
Q 3775 2444 3775 1663 
Q 3775 881 3387 395 
Q 3000 -91 2388 -91 
Q 2003 -91 1742 57 
Q 1481 206 1313 519 
L 1313 0 
L 184 0 
L 184 331 
L 738 331 
z
M 1313 1497 
Q 1313 897 1542 583 
Q 1772 269 2209 269 
Q 2650 269 2876 622 
Q 3103 975 3103 1663 
Q 3103 2353 2876 2703 
Q 2650 3053 2209 3053 
Q 1772 3053 1542 2737 
Q 1313 2422 1313 1825 
L 1313 1497 
z
" transform="scale(0.015625)"/>
     </defs>
     <use xlink:href="#DejaVuSerif-46"/>
     <use xlink:href="#DejaVuSerif-69" x="69.384766"/>
     <use xlink:href="#DejaVuSerif-62" x="101.367188"/>
     <use xlink:href="#DejaVuSerif-65" x="165.380859"/>
     <use xlink:href="#DejaVuSerif-72" x="224.560547"/>
     <use xlink:href="#DejaVuSerif-20" x="272.363281"/>
     <use xlink:href="#DejaVuSerif-74" x="304.150391"/>
     <use xlink:href="#DejaVuSerif-72" x="344.335938"/>
     <use xlink:href="#DejaVuSerif-61" x="392.138672"/>
     <use xlink:href="#DejaVuSerif-63" x="451.757812"/>
     <use xlink:href="#DejaVuSerif-74" x="507.763672"/>
     <use xlink:href="#DejaVuSerif-73" x="547.949219"/>
    </g>
   </g>
   <g id="text_5">
    <!-- Molecular layer -->
    <g transform="translate(277.892308 314.461197) scale(0.1 -0.1)">
     <use xlink:href="#DejaVuSerif-4d"/>
     <use xlink:href="#DejaVuSerif-6f" x="102.392578"/>
     <use xlink:href="#DejaVuSerif-6c" x="162.597656"/>
     <use xlink:href="#DejaVuSerif-65" x="194.580078"/>
     <use xlink:href="#DejaVuSerif-63" x="253.759766"/>
     <use xlink:href="#DejaVuSerif-75" x="309.765625"/>
     <use xlink:href="#DejaVuSerif-6c" x="374.169922"/>
     <use xlink:href="#DejaVuSerif-61" x="406.152344"/>
     <use xlink:href="#DejaVuSerif-72" x="465.771484"/>
     <use xlink:href="#DejaVuSerif-20" x="513.574219"/>
     <use xlink:href="#DejaVuSerif-6c" x="545.361328"/>
     <use xlink:href="#DejaVuSerif-61" x="577.34375"/>
     <use xlink:href="#DejaVuSerif-79" x="636.962891"/>
     <use xlink:href="#DejaVuSerif-65" x="693.457031"/>
     <use xlink:href="#DejaVuSerif-72" x="752.636719"/>
    </g>
   </g>
   <g id="text_6">
    <!-- Lateral recess -->
    <g transform="translate(277.892308 218.081244) scale(0.1 -0.1)">
     <use xlink:href="#DejaVuSerif-4c"/>
     <use xlink:href="#DejaVuSerif-61" x="66.40625"/>
     <use xlink:href="#DejaVuSerif-74" x="126.025391"/>
     <use xlink:href="#DejaVuSerif-65" x="166.210938"/>
     <use xlink:href="#DejaVuSerif-72" x="225.390625"/>
     <use xlink:href="#DejaVuSerif-61" x="273.193359"/>
     <use xlink:href="#DejaVuSerif-6c" x="332.8125"/>
     <use xlink:href="#DejaVuSerif-20" x="364.794922"/>
     <use xlink:href="#DejaVuSerif-72" x="396.582031"/>
     <use xlink:href="#DejaVuSerif-65" x="444.384766"/>
     <use xlink:href="#DejaVuSerif-63" x="503.564453"/>
     <use xlink:href="#DejaVuSerif-65" x="559.570312"/>
     <use xlink:href="#DejaVuSerif-73" x="618.75"/>
     <use xlink:href="#DejaVuSerif-73" x="670.068359"/>
    </g>
   </g>
   <g id="text_7">
    <!-- Granular layer -->
    <g transform="translate(277.892308 145.634749) scale(0.1 -0.1)">
     <use xlink:href="#DejaVuSerif-47"/>
     <use xlink:href="#DejaVuSerif-72" x="79.882812"/>
     <use xlink:href="#DejaVuSerif-61" x="127.685547"/>
     <use xlink:href="#DejaVuSerif-6e" x="187.304688"/>
     <use xlink:href="#DejaVuSerif-75" x="251.708984"/>
     <use xlink:href="#DejaVuSerif-6c" x="316.113281"/>
     <use xlink:href="#DejaVuSerif-61" x="348.095703"/>
     <use xlink:href="#DejaVuSerif-72" x="407.714844"/>
     <use xlink:href="#DejaVuSerif-20" x="455.517578"/>
     <use xlink:href="#DejaVuSerif-6c" x="487.304688"/>
     <use xlink:href="#DejaVuSerif-61" x="519.287109"/>
     <use xlink:href="#DejaVuSerif-79" x="578.90625"/>
     <use xlink:href="#DejaVuSerif-65" x="635.400391"/>
     <use xlink:href="#DejaVuSerif-72" x="694.580078"/>
    </g>
   </g>
   <g id="text_8">
    <!-- Fiber tracts -->
    <g transform="translate(277.892308 62.09514) scale(0.1 -0.1)">
     <use xlink:href="#DejaVuSerif-46"/>
     <use xlink:href="#DejaVuSerif-69" x="69.384766"/>
     <use xlink:href="#DejaVuSerif-62" x="101.367188"/>
     <use xlink:href="#DejaVuSerif-65" x="165.380859"/>
     <use xlink:href="#DejaVuSerif-72" x="224.560547"/>
     <use xlink:href="#DejaVuSerif-20" x="272.363281"/>
     <use xlink:href="#DejaVuSerif-74" x="304.150391"/>
     <use xlink:href="#DejaVuSerif-72" x="344.335938"/>
     <use xlink:href="#DejaVuSerif-61" x="392.138672"/>
     <use xlink:href="#DejaVuSerif-63" x="451.757812"/>
     <use xlink:href="#DejaVuSerif-74" x="507.763672"/>
     <use xlink:href="#DejaVuSerif-73" x="547.949219"/>
    </g>
   </g>
   <g id="text_9">
    <!-- Matching Number: 1662, Matching Accuracy: 84.06% -->
    <g transform="translate(40.429688 15.6) scale(0.12 -0.12)">
     <defs>
      <path id="DejaVuSerif-68" d="M 263 0 
L 263 331 
L 781 331 
L 781 4531 
L 231 4531 
L 231 4863 
L 1356 4863 
L 1356 2731 
Q 1516 3069 1770 3241 
Q 2025 3413 2363 3413 
Q 2913 3413 3172 3097 
Q 3431 2781 3431 2113 
L 3431 331 
L 3944 331 
L 3944 0 
L 2356 0 
L 2356 331 
L 2853 331 
L 2853 1931 
Q 2853 2541 2704 2764 
Q 2556 2988 2175 2988 
Q 1775 2988 1565 2697 
Q 1356 2406 1356 1850 
L 1356 331 
L 1856 331 
L 1856 0 
L 263 0 
z
" transform="scale(0.015625)"/>
      <path id="DejaVuSerif-67" d="M 3359 2988 
L 3359 72 
Q 3359 -644 2965 -1033 
Q 2572 -1422 1844 -1422 
Q 1516 -1422 1216 -1362 
Q 916 -1303 641 -1184 
L 641 -488 
L 941 -488 
Q 997 -813 1206 -963 
Q 1416 -1113 1806 -1113 
Q 2313 -1113 2548 -827 
Q 2784 -541 2784 72 
L 2784 519 
Q 2616 206 2355 57 
Q 2094 -91 1709 -91 
Q 1097 -91 708 395 
Q 319 881 319 1663 
Q 319 2444 706 2928 
Q 1094 3413 1709 3413 
Q 2094 3413 2355 3264 
Q 2616 3116 2784 2803 
L 2784 3322 
L 3909 3322 
L 3909 2988 
L 3359 2988 
z
M 2784 1825 
Q 2784 2422 2554 2737 
Q 2325 3053 1888 3053 
Q 1444 3053 1217 2703 
Q 991 2353 991 1663 
Q 991 975 1217 622 
Q 1444 269 1888 269 
Q 2325 269 2554 583 
Q 2784 897 2784 1497 
L 2784 1825 
z
" transform="scale(0.015625)"/>
      <path id="DejaVuSerif-4e" d="M 313 0 
L 313 331 
L 941 331 
L 941 4331 
L 313 4331 
L 313 4666 
L 1509 4666 
L 4306 984 
L 4306 4331 
L 3681 4331 
L 3681 4666 
L 5319 4666 
L 5319 4331 
L 4691 4331 
L 4691 -91 
L 4313 -91 
L 1325 3841 
L 1325 331 
L 1953 331 
L 1953 0 
L 313 0 
z
" transform="scale(0.015625)"/>
      <path id="DejaVuSerif-6d" d="M 3316 2675 
Q 3481 3041 3739 3227 
Q 3997 3413 4341 3413 
Q 4863 3413 5119 3089 
Q 5375 2766 5375 2113 
L 5375 331 
L 5894 331 
L 5894 0 
L 4300 0 
L 4300 331 
L 4800 331 
L 4800 2047 
Q 4800 2556 4650 2772 
Q 4500 2988 4153 2988 
Q 3769 2988 3567 2697 
Q 3366 2406 3366 1850 
L 3366 331 
L 3866 331 
L 3866 0 
L 2291 0 
L 2291 331 
L 2791 331 
L 2791 2069 
Q 2791 2566 2641 2777 
Q 2491 2988 2144 2988 
Q 1759 2988 1557 2697 
Q 1356 2406 1356 1850 
L 1356 331 
L 1856 331 
L 1856 0 
L 263 0 
L 263 331 
L 781 331 
L 781 2994 
L 231 2994 
L 231 3322 
L 1356 3322 
L 1356 2731 
Q 1516 3063 1762 3238 
Q 2009 3413 2322 3413 
Q 2709 3413 2968 3220 
Q 3228 3028 3316 2675 
z
" transform="scale(0.015625)"/>
      <path id="DejaVuSerif-3a" d="M 666 325 
Q 666 500 786 622 
Q 906 744 1081 744 
Q 1256 744 1376 622 
Q 1497 500 1497 325 
Q 1497 150 1378 29 
Q 1259 -91 1081 -91 
Q 903 -91 784 29 
Q 666 150 666 325 
z
M 666 2363 
Q 666 2538 786 2658 
Q 906 2778 1081 2778 
Q 1259 2778 1378 2659 
Q 1497 2541 1497 2363 
Q 1497 2184 1378 2065 
Q 1259 1947 1081 1947 
Q 906 1947 786 2067 
Q 666 2188 666 2363 
z
" transform="scale(0.015625)"/>
      <path id="DejaVuSerif-31" d="M 909 0 
L 909 331 
L 1722 331 
L 1722 4213 
L 781 3603 
L 781 4013 
L 1919 4750 
L 2350 4750 
L 2350 331 
L 3163 331 
L 3163 0 
L 909 0 
z
" transform="scale(0.015625)"/>
      <path id="DejaVuSerif-36" d="M 2094 219 
Q 2534 219 2771 542 
Q 3009 866 3009 1472 
Q 3009 2078 2771 2401 
Q 2534 2725 2094 2725 
Q 1647 2725 1412 2412 
Q 1178 2100 1178 1509 
Q 1178 888 1415 553 
Q 1653 219 2094 219 
z
M 1075 2569 
Q 1288 2803 1556 2918 
Q 1825 3034 2163 3034 
Q 2859 3034 3264 2615 
Q 3669 2197 3669 1472 
Q 3669 763 3233 336 
Q 2797 -91 2069 -91 
Q 1278 -91 853 498 
Q 428 1088 428 2181 
Q 428 3406 931 4078 
Q 1434 4750 2350 4750 
Q 2597 4750 2869 4703 
Q 3141 4656 3425 4563 
L 3425 3794 
L 3072 3794 
Q 3034 4109 2831 4275 
Q 2628 4441 2284 4441 
Q 1678 4441 1381 3981 
Q 1084 3522 1075 2569 
z
" transform="scale(0.015625)"/>
      <path id="DejaVuSerif-32" d="M 819 3553 
L 469 3553 
L 469 4384 
Q 803 4563 1142 4656 
Q 1481 4750 1806 4750 
Q 2534 4750 2956 4397 
Q 3378 4044 3378 3438 
Q 3378 2753 2422 1800 
Q 2347 1728 2309 1691 
L 1131 513 
L 3078 513 
L 3078 1088 
L 3444 1088 
L 3444 0 
L 434 0 
L 434 341 
L 1850 1753 
Q 2319 2222 2519 2614 
Q 2719 3006 2719 3438 
Q 2719 3909 2473 4175 
Q 2228 4441 1797 4441 
Q 1350 4441 1106 4219 
Q 863 3997 819 3553 
z
" transform="scale(0.015625)"/>
      <path id="DejaVuSerif-2c" d="M 231 -622 
Q 525 -406 662 -114 
Q 800 178 800 594 
L 800 709 
L 1416 709 
Q 1391 175 1164 -208 
Q 938 -591 481 -872 
L 231 -622 
z
" transform="scale(0.015625)"/>
      <path id="DejaVuSerif-41" d="M 1281 1691 
L 2994 1691 
L 2138 3909 
L 1281 1691 
z
M -38 0 
L -38 331 
L 372 331 
L 2034 4666 
L 2559 4666 
L 4225 331 
L 4684 331 
L 4684 0 
L 2988 0 
L 2988 331 
L 3506 331 
L 3116 1356 
L 1153 1356 
L 763 331 
L 1275 331 
L 1275 0 
L -38 0 
z
" transform="scale(0.015625)"/>
      <path id="DejaVuSerif-38" d="M 2981 1275 
Q 2981 1775 2732 2051 
Q 2484 2328 2034 2328 
Q 1584 2328 1336 2051 
Q 1088 1775 1088 1275 
Q 1088 772 1336 495 
Q 1584 219 2034 219 
Q 2484 219 2732 495 
Q 2981 772 2981 1275 
z
M 2853 3541 
Q 2853 3966 2637 4203 
Q 2422 4441 2034 4441 
Q 1650 4441 1433 4203 
Q 1216 3966 1216 3541 
Q 1216 3113 1433 2875 
Q 1650 2638 2034 2638 
Q 2422 2638 2637 2875 
Q 2853 3113 2853 3541 
z
M 2516 2484 
Q 3047 2413 3344 2092 
Q 3641 1772 3641 1275 
Q 3641 619 3225 264 
Q 2809 -91 2034 -91 
Q 1263 -91 845 264 
Q 428 619 428 1275 
Q 428 1772 725 2092 
Q 1022 2413 1556 2484 
Q 1084 2569 832 2842 
Q 581 3116 581 3541 
Q 581 4103 968 4426 
Q 1356 4750 2034 4750 
Q 2713 4750 3100 4426 
Q 3488 4103 3488 3541 
Q 3488 3116 3236 2842 
Q 2984 2569 2516 2484 
z
" transform="scale(0.015625)"/>
      <path id="DejaVuSerif-34" d="M 2234 1581 
L 2234 4063 
L 641 1581 
L 2234 1581 
z
M 3609 0 
L 1484 0 
L 1484 331 
L 2234 331 
L 2234 1247 
L 197 1247 
L 197 1588 
L 2241 4750 
L 2859 4750 
L 2859 1581 
L 3750 1581 
L 3750 1247 
L 2859 1247 
L 2859 331 
L 3609 331 
L 3609 0 
z
" transform="scale(0.015625)"/>
      <path id="DejaVuSerif-2e" d="M 603 325 
Q 603 500 722 622 
Q 841 744 1019 744 
Q 1191 744 1312 622 
Q 1434 500 1434 325 
Q 1434 153 1312 31 
Q 1191 -91 1019 -91 
Q 841 -91 722 29 
Q 603 150 603 325 
z
" transform="scale(0.015625)"/>
      <path id="DejaVuSerif-30" d="M 2034 219 
Q 2513 219 2750 744 
Q 2988 1269 2988 2328 
Q 2988 3391 2750 3916 
Q 2513 4441 2034 4441 
Q 1556 4441 1318 3916 
Q 1081 3391 1081 2328 
Q 1081 1269 1318 744 
Q 1556 219 2034 219 
z
M 2034 -91 
Q 1275 -91 848 546 
Q 422 1184 422 2328 
Q 422 3475 848 4112 
Q 1275 4750 2034 4750 
Q 2797 4750 3222 4112 
Q 3647 3475 3647 2328 
Q 3647 1184 3222 546 
Q 2797 -91 2034 -91 
z
" transform="scale(0.015625)"/>
      <path id="DejaVuSerif-25" d="M 1434 4459 
Q 1159 4459 1004 4200 
Q 850 3941 850 3475 
Q 850 3016 1008 2753 
Q 1166 2491 1434 2491 
Q 1700 2491 1854 2752 
Q 2009 3013 2009 3475 
Q 2009 3938 1854 4198 
Q 1700 4459 1434 4459 
z
M 4653 2169 
Q 4381 2169 4226 1906 
Q 4072 1644 4072 1178 
Q 4072 719 4228 458 
Q 4384 197 4653 197 
Q 4922 197 5075 458 
Q 5228 719 5228 1178 
Q 5228 1641 5073 1905 
Q 4919 2169 4653 2169 
z
M 4653 2450 
Q 5147 2450 5437 2106 
Q 5728 1763 5728 1178 
Q 5728 594 5436 251 
Q 5144 -91 4653 -91 
Q 4153 -91 3862 251 
Q 3572 594 3572 1178 
Q 3572 1766 3864 2108 
Q 4156 2450 4653 2450 
z
M 4263 4750 
L 4738 4750 
L 1819 -91 
L 1344 -91 
L 4263 4750 
z
M 1428 4750 
Q 1922 4750 2215 4408 
Q 2509 4066 2509 3481 
Q 2509 2891 2217 2550 
Q 1925 2209 1428 2209 
Q 931 2209 642 2551 
Q 353 2894 353 3481 
Q 353 4063 643 4406 
Q 934 4750 1428 4750 
z
" transform="scale(0.015625)"/>
     </defs>
     <use xlink:href="#DejaVuSerif-4d"/>
     <use xlink:href="#DejaVuSerif-61" x="102.392578"/>
     <use xlink:href="#DejaVuSerif-74" x="162.011719"/>
     <use xlink:href="#DejaVuSerif-63" x="202.197266"/>
     <use xlink:href="#DejaVuSerif-68" x="258.203125"/>
     <use xlink:href="#DejaVuSerif-69" x="322.607422"/>
     <use xlink:href="#DejaVuSerif-6e" x="354.589844"/>
     <use xlink:href="#DejaVuSerif-67" x="418.994141"/>
     <use xlink:href="#DejaVuSerif-20" x="483.007812"/>
     <use xlink:href="#DejaVuSerif-4e" x="514.794922"/>
     <use xlink:href="#DejaVuSerif-75" x="602.294922"/>
     <use xlink:href="#DejaVuSerif-6d" x="666.699219"/>
     <use xlink:href="#DejaVuSerif-62" x="761.523438"/>
     <use xlink:href="#DejaVuSerif-65" x="825.537109"/>
     <use xlink:href="#DejaVuSerif-72" x="884.716797"/>
     <use xlink:href="#DejaVuSerif-3a" x="932.519531"/>
     <use xlink:href="#DejaVuSerif-20" x="966.210938"/>
     <use xlink:href="#DejaVuSerif-31" x="997.998047"/>
     <use xlink:href="#DejaVuSerif-36" x="1061.621094"/>
     <use xlink:href="#DejaVuSerif-36" x="1125.244141"/>
     <use xlink:href="#DejaVuSerif-32" x="1188.867188"/>
     <use xlink:href="#DejaVuSerif-2c" x="1252.490234"/>
     <use xlink:href="#DejaVuSerif-20" x="1284.277344"/>
     <use xlink:href="#DejaVuSerif-4d" x="1316.064453"/>
     <use xlink:href="#DejaVuSerif-61" x="1418.457031"/>
     <use xlink:href="#DejaVuSerif-74" x="1478.076172"/>
     <use xlink:href="#DejaVuSerif-63" x="1518.261719"/>
     <use xlink:href="#DejaVuSerif-68" x="1574.267578"/>
     <use xlink:href="#DejaVuSerif-69" x="1638.671875"/>
     <use xlink:href="#DejaVuSerif-6e" x="1670.654297"/>
     <use xlink:href="#DejaVuSerif-67" x="1735.058594"/>
     <use xlink:href="#DejaVuSerif-20" x="1799.072266"/>
     <use xlink:href="#DejaVuSerif-41" x="1830.859375"/>
     <use xlink:href="#DejaVuSerif-63" x="1903.076172"/>
     <use xlink:href="#DejaVuSerif-63" x="1959.082031"/>
     <use xlink:href="#DejaVuSerif-75" x="2015.087891"/>
     <use xlink:href="#DejaVuSerif-72" x="2079.492188"/>
     <use xlink:href="#DejaVuSerif-61" x="2127.294922"/>
     <use xlink:href="#DejaVuSerif-63" x="2186.914062"/>
     <use xlink:href="#DejaVuSerif-79" x="2242.919922"/>
     <use xlink:href="#DejaVuSerif-3a" x="2299.414062"/>
     <use xlink:href="#DejaVuSerif-20" x="2333.105469"/>
     <use xlink:href="#DejaVuSerif-38" x="2364.892578"/>
     <use xlink:href="#DejaVuSerif-34" x="2428.515625"/>
     <use xlink:href="#DejaVuSerif-2e" x="2492.138672"/>
     <use xlink:href="#DejaVuSerif-30" x="2523.925781"/>
     <use xlink:href="#DejaVuSerif-36" x="2587.548828"/>
     <use xlink:href="#DejaVuSerif-25" x="2651.171875"/>
    </g>
   </g>
  </g>
 </g>
 <defs>
  <clipPath id="p8f7047584f">
   <rect x="129.6" y="21.6" width="151.2" height="388.8"/>
  </clipPath>
 </defs>
</svg>
