<?xml version="1.0" encoding="utf-8" standalone="no"?>
<!DOCTYPE svg PUBLIC "-//W3C//DTD SVG 1.1//EN"
  "http://www.w3.org/Graphics/SVG/1.1/DTD/svg11.dtd">
<svg xmlns:xlink="http://www.w3.org/1999/xlink" width="432pt" height="432pt" viewBox="0 0 432 432" xmlns="http://www.w3.org/2000/svg" version="1.1">
 <metadata>
  <rdf:RDF xmlns:dc="http://purl.org/dc/elements/1.1/" xmlns:cc="http://creativecommons.org/ns#" xmlns:rdf="http://www.w3.org/1999/02/22-rdf-syntax-ns#">
   <cc:Work>
    <dc:type rdf:resource="http://purl.org/dc/dcmitype/StillImage"/>
    <dc:date>2025-08-26T03:23:03.780071</dc:date>
    <dc:format>image/svg+xml</dc:format>
    <dc:creator>
     <cc:Agent>
      <dc:title>Matplotlib v3.8.2, https://matplotlib.org/</dc:title>
     </cc:Agent>
    </dc:creator>
   </cc:Work>
  </rdf:RDF>
 </metadata>
 <defs>
  <style type="text/css">*{stroke-linejoin: round; stroke-linecap: butt}</style>
 </defs>
 <g id="figure_1">
  <g id="patch_1">
   <path d="M 0 432 
L 432 432 
L 432 0 
L 0 0 
z
" style="fill: #ffffff"/>
  </g>
  <g id="axes_1">
   <g id="PolyCollection_1">
    <defs>
     <path id="m3a5f19cd66" d="M 136.472727 -229.956287 
L 136.472727 -39.272727 
L 139.116084 -39.272727 
L 139.116084 -229.956287 
L 139.116084 -229.956287 
L 136.472727 -229.956287 
z
" style="stroke: #db5f57; stroke-opacity: 0.99"/>
    </defs>
    <g clip-path="url(#peb2d3822ed)">
     <use xlink:href="#m3a5f19cd66" x="0" y="432" style="fill: #db5f57; fill-opacity: 0.99; stroke: #db5f57; stroke-opacity: 0.99"/>
    </g>
   </g>
   <g id="PolyCollection_2">
    <defs>
     <path id="m20e9d66ae3" d="M 136.472727 -250.543748 
L 136.472727 -236.62524 
L 139.116084 -236.62524 
L 139.116084 -250.543748 
L 139.116084 -250.543748 
L 136.472727 -250.543748 
z
" style="stroke: #91db57; stroke-opacity: 0.99"/>
    </defs>
    <g clip-path="url(#peb2d3822ed)">
     <use xlink:href="#m20e9d66ae3" x="0" y="432" style="fill: #91db57; fill-opacity: 0.99; stroke: #91db57; stroke-opacity: 0.99"/>
    </g>
   </g>
   <g id="PolyCollection_3">
    <defs>
     <path id="m322a3c5970" d="M 136.472727 -344.899303 
L 136.472727 -257.212702 
L 139.116084 -257.212702 
L 139.116084 -344.899303 
L 139.116084 -344.899303 
L 136.472727 -344.899303 
z
" style="stroke: #57d3db; stroke-opacity: 0.99"/>
    </defs>
    <g clip-path="url(#peb2d3822ed)">
     <use xlink:href="#m322a3c5970" x="0" y="432" style="fill: #57d3db; fill-opacity: 0.99; stroke: #57d3db; stroke-opacity: 0.99"/>
    </g>
   </g>
   <g id="PolyCollection_4">
    <defs>
     <path id="mc4798f3bd3" d="M 136.472727 -392.727273 
L 136.472727 -351.568256 
L 139.116084 -351.568256 
L 139.116084 -392.727273 
L 139.116084 -392.727273 
L 136.472727 -392.727273 
z
" style="stroke: #a157db; stroke-opacity: 0.99"/>
    </defs>
    <g clip-path="url(#peb2d3822ed)">
     <use xlink:href="#mc4798f3bd3" x="0" y="432" style="fill: #a157db; fill-opacity: 0.99; stroke: #a157db; stroke-opacity: 0.99"/>
    </g>
   </g>
   <g id="PolyCollection_5">
    <defs>
     <path id="m5f357a93ba" d="M 271.283916 -172.691568 
L 271.283916 -39.272727 
L 273.927273 -39.272727 
L 273.927273 -172.691568 
L 273.927273 -172.691568 
L 271.283916 -172.691568 
z
" style="stroke: #db5f57; stroke-opacity: 0.99"/>
    </defs>
    <g clip-path="url(#peb2d3822ed)">
     <use xlink:href="#m5f357a93ba" x="0" y="432" style="fill: #db5f57; fill-opacity: 0.99; stroke: #db5f57; stroke-opacity: 0.99"/>
    </g>
   </g>
   <g id="PolyCollection_6">
    <defs>
     <path id="m9506a9cbe3" d="M 271.283916 -191.091836 
L 271.283916 -179.360522 
L 273.927273 -179.360522 
L 273.927273 -191.091836 
L 273.927273 -191.091836 
L 271.283916 -191.091836 
z
" style="stroke: #91db57; stroke-opacity: 0.99"/>
    </defs>
    <g clip-path="url(#peb2d3822ed)">
     <use xlink:href="#m9506a9cbe3" x="0" y="432" style="fill: #91db57; fill-opacity: 0.99; stroke: #91db57; stroke-opacity: 0.99"/>
    </g>
   </g>
   <g id="PolyCollection_7">
    <defs>
     <path id="m4debd6d57b" d="M 271.283916 -330.781959 
L 271.283916 -197.760789 
L 273.927273 -197.760789 
L 273.927273 -330.781959 
L 273.927273 -330.781959 
L 271.283916 -330.781959 
z
" style="stroke: #57d3db; stroke-opacity: 0.99"/>
    </defs>
    <g clip-path="url(#peb2d3822ed)">
     <use xlink:href="#m4debd6d57b" x="0" y="432" style="fill: #57d3db; fill-opacity: 0.99; stroke: #57d3db; stroke-opacity: 0.99"/>
    </g>
   </g>
   <g id="PolyCollection_8">
    <defs>
     <path id="m0cc47f4f77" d="M 271.283916 -392.727273 
L 271.283916 -337.450912 
L 273.927273 -337.450912 
L 273.927273 -392.727273 
L 273.927273 -392.727273 
L 271.283916 -392.727273 
z
" style="stroke: #a157db; stroke-opacity: 0.99"/>
    </defs>
    <g clip-path="url(#peb2d3822ed)">
     <use xlink:href="#m0cc47f4f77" x="0" y="432" style="fill: #a157db; fill-opacity: 0.99; stroke: #a157db; stroke-opacity: 0.99"/>
    </g>
   </g>
   <g id="PolyCollection_9">
    <defs>
     <path id="m3860575abc" d="M 139.116084 -169.907867 
L 139.116084 -39.272727 
L 141.28277 -39.272727 
L 143.449455 -39.272727 
L 145.616141 -39.272727 
L 147.782827 -39.272727 
L 149.949513 -39.272727 
L 152.116199 -39.272727 
L 154.282884 -39.272727 
L 156.44957 -39.272727 
L 158.616256 -39.272727 
L 160.782942 -39.272727 
L 162.949627 -39.272727 
L 165.116313 -39.272727 
L 167.282999 -39.272727 
L 169.449685 -39.272727 
L 171.616371 -39.272727 
L 173.783056 -39.272727 
L 175.949742 -39.272727 
L 178.116428 -39.272727 
L 180.283114 -39.272727 
L 182.449799 -39.272727 
L 184.616485 -39.272727 
L 186.783171 -39.272727 
L 188.949857 -39.272727 
L 191.116542 -39.272727 
L 193.283228 -39.272727 
L 195.449914 -39.272727 
L 197.6166 -39.272727 
L 199.783286 -39.272727 
L 201.949971 -39.272727 
L 204.116657 -39.272727 
L 206.283343 -39.272727 
L 208.450029 -39.272727 
L 210.616714 -39.272727 
L 212.7834 -39.272727 
L 214.950086 -39.272727 
L 217.116772 -39.272727 
L 219.283458 -39.272727 
L 221.450143 -39.272727 
L 223.616829 -39.272727 
L 225.783515 -39.272727 
L 227.950201 -39.272727 
L 230.116886 -39.272727 
L 232.283572 -39.272727 
L 234.450258 -39.272727 
L 236.616944 -39.272727 
L 238.783629 -39.272727 
L 240.950315 -39.272727 
L 243.117001 -39.272727 
L 245.283687 -39.272727 
L 247.450373 -39.272727 
L 249.617058 -39.272727 
L 251.783744 -39.272727 
L 253.95043 -39.272727 
L 256.117116 -39.272727 
L 258.283801 -39.272727 
L 260.450487 -39.272727 
L 262.617173 -39.272727 
L 264.783859 -39.272727 
L 266.950545 -39.272727 
L 269.11723 -39.272727 
L 271.283916 -39.272727 
L 271.283916 -169.907867 
L 271.283916 -169.907867 
L 269.11723 -169.907867 
L 266.950545 -169.907867 
L 264.783859 -169.907867 
L 262.617173 -169.907867 
L 260.450487 -169.907867 
L 258.283801 -169.907867 
L 256.117116 -169.907867 
L 253.95043 -169.907867 
L 251.783744 -169.907867 
L 249.617058 -169.907867 
L 247.450373 -169.907867 
L 245.283687 -169.907867 
L 243.117001 -169.907867 
L 240.950315 -169.907867 
L 238.783629 -169.907867 
L 236.616944 -169.907867 
L 234.450258 -169.907867 
L 232.283572 -169.907867 
L 230.116886 -169.907867 
L 227.950201 -169.907867 
L 225.783515 -169.907867 
L 223.616829 -169.907867 
L 221.450143 -169.907867 
L 219.283458 -169.907867 
L 217.116772 -169.907867 
L 214.950086 -169.907867 
L 212.7834 -169.907867 
L 210.616714 -169.907867 
L 208.450029 -169.907867 
L 206.283343 -169.907867 
L 204.116657 -169.907867 
L 201.949971 -169.907867 
L 199.783286 -169.907867 
L 197.6166 -169.907867 
L 195.449914 -169.907867 
L 193.283228 -169.907867 
L 191.116542 -169.907867 
L 188.949857 -169.907867 
L 186.783171 -169.907867 
L 184.616485 -169.907867 
L 182.449799 -169.907867 
L 180.283114 -169.907867 
L 178.116428 -169.907867 
L 175.949742 -169.907867 
L 173.783056 -169.907867 
L 171.616371 -169.907867 
L 169.449685 -169.907867 
L 167.282999 -169.907867 
L 165.116313 -169.907867 
L 162.949627 -169.907867 
L 160.782942 -169.907867 
L 158.616256 -169.907867 
L 156.44957 -169.907867 
L 154.282884 -169.907867 
L 152.116199 -169.907867 
L 149.949513 -169.907867 
L 147.782827 -169.907867 
L 145.616141 -169.907867 
L 143.449455 -169.907867 
L 141.28277 -169.907867 
L 139.116084 -169.907867 
z
" style="stroke: #db5f57; stroke-opacity: 0.65"/>
    </defs>
    <g clip-path="url(#peb2d3822ed)">
     <use xlink:href="#m3860575abc" x="0" y="432" style="fill: #db5f57; fill-opacity: 0.65; stroke: #db5f57; stroke-opacity: 0.65"/>
    </g>
   </g>
   <g id="PolyCollection_10">
    <defs>
     <path id="md1a81a0aad" d="M 139.116084 -170.305538 
L 139.116084 -169.907867 
L 141.28277 -169.907867 
L 143.449455 -169.907867 
L 145.616141 -169.907867 
L 147.782827 -169.907867 
L 149.949513 -169.907867 
L 152.116199 -169.907867 
L 154.282884 -169.907867 
L 156.44957 -169.907867 
L 158.616256 -169.907867 
L 160.782942 -169.907867 
L 162.949627 -169.907867 
L 165.116313 -169.931498 
L 167.282999 -169.978762 
L 169.449685 -170.049656 
L 171.616371 -170.144183 
L 173.783056 -170.262341 
L 175.949742 -170.404131 
L 178.116428 -170.569552 
L 180.283114 -170.758606 
L 182.449799 -170.97129 
L 184.616485 -171.207607 
L 186.783171 -171.467555 
L 188.949857 -171.751134 
L 191.116542 -172.058346 
L 193.283228 -172.389189 
L 195.449914 -172.743663 
L 197.6166 -173.121769 
L 199.783286 -173.523507 
L 201.949971 -173.948877 
L 204.116657 -174.397878 
L 206.283343 -174.870511 
L 208.450029 -175.319512 
L 210.616714 -175.744881 
L 212.7834 -176.146619 
L 214.950086 -176.524725 
L 217.116772 -176.8792 
L 219.283458 -177.210043 
L 221.450143 -177.517254 
L 223.616829 -177.800834 
L 225.783515 -178.060782 
L 227.950201 -178.297098 
L 230.116886 -178.509783 
L 232.283572 -178.698836 
L 234.450258 -178.864257 
L 236.616944 -179.006047 
L 238.783629 -179.124206 
L 240.950315 -179.218732 
L 243.117001 -179.289627 
L 245.283687 -179.33689 
L 247.450373 -179.360522 
L 249.617058 -179.360522 
L 251.783744 -179.360522 
L 253.95043 -179.360522 
L 256.117116 -179.360522 
L 258.283801 -179.360522 
L 260.450487 -179.360522 
L 262.617173 -179.360522 
L 264.783859 -179.360522 
L 266.950545 -179.360522 
L 269.11723 -179.360522 
L 271.283916 -179.360522 
L 271.283916 -179.758194 
L 271.283916 -179.758194 
L 269.11723 -179.758194 
L 266.950545 -179.758194 
L 264.783859 -179.758194 
L 262.617173 -179.758194 
L 260.450487 -179.758194 
L 258.283801 -179.758194 
L 256.117116 -179.758194 
L 253.95043 -179.758194 
L 251.783744 -179.758194 
L 249.617058 -179.758194 
L 247.450373 -179.758194 
L 245.283687 -179.734562 
L 243.117001 -179.687299 
L 240.950315 -179.616404 
L 238.783629 -179.521877 
L 236.616944 -179.403719 
L 234.450258 -179.261929 
L 232.283572 -179.096508 
L 230.116886 -178.907455 
L 227.950201 -178.69477 
L 225.783515 -178.458453 
L 223.616829 -178.198505 
L 221.450143 -177.914926 
L 219.283458 -177.607714 
L 217.116772 -177.276872 
L 214.950086 -176.922397 
L 212.7834 -176.544291 
L 210.616714 -176.142553 
L 208.450029 -175.717183 
L 206.283343 -175.268182 
L 204.116657 -174.79555 
L 201.949971 -174.346548 
L 199.783286 -173.921179 
L 197.6166 -173.519441 
L 195.449914 -173.141335 
L 193.283228 -172.78686 
L 191.116542 -172.456017 
L 188.949857 -172.148806 
L 186.783171 -171.865226 
L 184.616485 -171.605278 
L 182.449799 -171.368962 
L 180.283114 -171.156277 
L 178.116428 -170.967224 
L 175.949742 -170.801803 
L 173.783056 -170.660013 
L 171.616371 -170.541855 
L 169.449685 -170.447328 
L 167.282999 -170.376433 
L 165.116313 -170.32917 
L 162.949627 -170.305538 
L 160.782942 -170.305538 
L 158.616256 -170.305538 
L 156.44957 -170.305538 
L 154.282884 -170.305538 
L 152.116199 -170.305538 
L 149.949513 -170.305538 
L 147.782827 -170.305538 
L 145.616141 -170.305538 
L 143.449455 -170.305538 
L 141.28277 -170.305538 
L 139.116084 -170.305538 
z
" style="stroke: #db5f57; stroke-opacity: 0.65"/>
    </defs>
    <g clip-path="url(#peb2d3822ed)">
     <use xlink:href="#md1a81a0aad" x="0" y="432" style="fill: #db5f57; fill-opacity: 0.65; stroke: #db5f57; stroke-opacity: 0.65"/>
    </g>
   </g>
   <g id="PolyCollection_11">
    <defs>
     <path id="m6b0d8d6cb7" d="M 139.116084 -229.558615 
L 139.116084 -170.305538 
L 141.28277 -170.305538 
L 143.449455 -170.305538 
L 145.616141 -170.305538 
L 147.782827 -170.305538 
L 149.949513 -170.305538 
L 152.116199 -170.305538 
L 154.282884 -170.305538 
L 156.44957 -170.305538 
L 158.616256 -170.305538 
L 160.782942 -170.305538 
L 162.949627 -170.305538 
L 165.116313 -170.374176 
L 167.282999 -170.511453 
L 169.449685 -170.717367 
L 171.616371 -170.99192 
L 173.783056 -171.33511 
L 175.949742 -171.746939 
L 178.116428 -172.227406 
L 180.283114 -172.776511 
L 182.449799 -173.394254 
L 184.616485 -174.080635 
L 186.783171 -174.835655 
L 188.949857 -175.659312 
L 191.116542 -176.551608 
L 193.283228 -177.512542 
L 195.449914 -178.542114 
L 197.6166 -179.640324 
L 199.783286 -180.807172 
L 201.949971 -182.042658 
L 204.116657 -183.346783 
L 206.283343 -184.719545 
L 208.450029 -186.02367 
L 210.616714 -187.259156 
L 212.7834 -188.426004 
L 214.950086 -189.524214 
L 217.116772 -190.553786 
L 219.283458 -191.51472 
L 221.450143 -192.407015 
L 223.616829 -193.230673 
L 225.783515 -193.985692 
L 227.950201 -194.672074 
L 230.116886 -195.289817 
L 232.283572 -195.838922 
L 234.450258 -196.319389 
L 236.616944 -196.731218 
L 238.783629 -197.074408 
L 240.950315 -197.348961 
L 243.117001 -197.554875 
L 245.283687 -197.692151 
L 247.450373 -197.760789 
L 249.617058 -197.760789 
L 251.783744 -197.760789 
L 253.95043 -197.760789 
L 256.117116 -197.760789 
L 258.283801 -197.760789 
L 260.450487 -197.760789 
L 262.617173 -197.760789 
L 264.783859 -197.760789 
L 266.950545 -197.760789 
L 269.11723 -197.760789 
L 271.283916 -197.760789 
L 271.283916 -257.013866 
L 271.283916 -257.013866 
L 269.11723 -257.013866 
L 266.950545 -257.013866 
L 264.783859 -257.013866 
L 262.617173 -257.013866 
L 260.450487 -257.013866 
L 258.283801 -257.013866 
L 256.117116 -257.013866 
L 253.95043 -257.013866 
L 251.783744 -257.013866 
L 249.617058 -257.013866 
L 247.450373 -257.013866 
L 245.283687 -256.945228 
L 243.117001 -256.807952 
L 240.950315 -256.602038 
L 238.783629 -256.327485 
L 236.616944 -255.984294 
L 234.450258 -255.572466 
L 232.283572 -255.091999 
L 230.116886 -254.542894 
L 227.950201 -253.925151 
L 225.783515 -253.238769 
L 223.616829 -252.48375 
L 221.450143 -251.660092 
L 219.283458 -250.767797 
L 217.116772 -249.806863 
L 214.950086 -248.777291 
L 212.7834 -247.679081 
L 210.616714 -246.512233 
L 208.450029 -245.276746 
L 206.283343 -243.972622 
L 204.116657 -242.599859 
L 201.949971 -241.295735 
L 199.783286 -240.060249 
L 197.6166 -238.893401 
L 195.449914 -237.795191 
L 193.283228 -236.765619 
L 191.116542 -235.804685 
L 188.949857 -234.912389 
L 186.783171 -234.088732 
L 184.616485 -233.333712 
L 182.449799 -232.647331 
L 180.283114 -232.029588 
L 178.116428 -231.480483 
L 175.949742 -231.000016 
L 173.783056 -230.588187 
L 171.616371 -230.244996 
L 169.449685 -229.970444 
L 167.282999 -229.76453 
L 165.116313 -229.627253 
L 162.949627 -229.558615 
L 160.782942 -229.558615 
L 158.616256 -229.558615 
L 156.44957 -229.558615 
L 154.282884 -229.558615 
L 152.116199 -229.558615 
L 149.949513 -229.558615 
L 147.782827 -229.558615 
L 145.616141 -229.558615 
L 143.449455 -229.558615 
L 141.28277 -229.558615 
L 139.116084 -229.558615 
z
" style="stroke: #db5f57; stroke-opacity: 0.65"/>
    </defs>
    <g clip-path="url(#peb2d3822ed)">
     <use xlink:href="#m6b0d8d6cb7" x="0" y="432" style="fill: #db5f57; fill-opacity: 0.65; stroke: #db5f57; stroke-opacity: 0.65"/>
    </g>
   </g>
   <g id="PolyCollection_12">
    <defs>
     <path id="me0a7774f80" d="M 139.116084 -229.956287 
L 139.116084 -229.558615 
L 141.28277 -229.558615 
L 143.449455 -229.558615 
L 145.616141 -229.558615 
L 147.782827 -229.558615 
L 149.949513 -229.558615 
L 152.116199 -229.558615 
L 154.282884 -229.558615 
L 156.44957 -229.558615 
L 158.616256 -229.558615 
L 160.782942 -229.558615 
L 162.949627 -229.558615 
L 165.116313 -229.828346 
L 167.282999 -230.367807 
L 169.449685 -231.177 
L 171.616371 -232.255923 
L 173.783056 -233.604576 
L 175.949742 -235.222961 
L 178.116428 -237.111076 
L 180.283114 -239.268922 
L 182.449799 -241.696499 
L 184.616485 -244.393806 
L 186.783171 -247.360844 
L 188.949857 -250.597613 
L 191.116542 -254.104113 
L 193.283228 -257.880343 
L 195.449914 -261.926304 
L 197.6166 -266.241996 
L 199.783286 -270.827419 
L 201.949971 -275.682572 
L 204.116657 -280.807456 
L 206.283343 -286.202071 
L 208.450029 -291.326955 
L 210.616714 -296.182109 
L 212.7834 -300.767531 
L 214.950086 -305.083223 
L 217.116772 -309.129184 
L 219.283458 -312.905415 
L 221.450143 -316.411914 
L 223.616829 -319.648683 
L 225.783515 -322.615722 
L 227.950201 -325.313029 
L 230.116886 -327.740606 
L 232.283572 -329.898452 
L 234.450258 -331.786567 
L 236.616944 -333.404951 
L 238.783629 -334.753605 
L 240.950315 -335.832528 
L 243.117001 -336.64172 
L 245.283687 -337.181182 
L 247.450373 -337.450912 
L 249.617058 -337.450912 
L 251.783744 -337.450912 
L 253.95043 -337.450912 
L 256.117116 -337.450912 
L 258.283801 -337.450912 
L 260.450487 -337.450912 
L 262.617173 -337.450912 
L 264.783859 -337.450912 
L 266.950545 -337.450912 
L 269.11723 -337.450912 
L 271.283916 -337.450912 
L 271.283916 -337.848584 
L 271.283916 -337.848584 
L 269.11723 -337.848584 
L 266.950545 -337.848584 
L 264.783859 -337.848584 
L 262.617173 -337.848584 
L 260.450487 -337.848584 
L 258.283801 -337.848584 
L 256.117116 -337.848584 
L 253.95043 -337.848584 
L 251.783744 -337.848584 
L 249.617058 -337.848584 
L 247.450373 -337.848584 
L 245.283687 -337.578853 
L 243.117001 -337.039392 
L 240.950315 -336.2302 
L 238.783629 -335.151277 
L 236.616944 -333.802623 
L 234.450258 -332.184238 
L 232.283572 -330.296123 
L 230.116886 -328.138277 
L 227.950201 -325.710701 
L 225.783515 -323.013393 
L 223.616829 -320.046355 
L 221.450143 -316.809586 
L 219.283458 -313.303086 
L 217.116772 -309.526856 
L 214.950086 -305.480895 
L 212.7834 -301.165203 
L 210.616714 -296.57978 
L 208.450029 -291.724627 
L 206.283343 -286.599743 
L 204.116657 -281.205128 
L 201.949971 -276.080244 
L 199.783286 -271.225091 
L 197.6166 -266.639668 
L 195.449914 -262.323976 
L 193.283228 -258.278015 
L 191.116542 -254.501784 
L 188.949857 -250.995285 
L 186.783171 -247.758516 
L 184.616485 -244.791478 
L 182.449799 -242.09417 
L 180.283114 -239.666594 
L 178.116428 -237.508748 
L 175.949742 -235.620632 
L 173.783056 -234.002248 
L 171.616371 -232.653594 
L 169.449685 -231.574671 
L 167.282999 -230.765479 
L 165.116313 -230.226018 
L 162.949627 -229.956287 
L 160.782942 -229.956287 
L 158.616256 -229.956287 
L 156.44957 -229.956287 
L 154.282884 -229.956287 
L 152.116199 -229.956287 
L 149.949513 -229.956287 
L 147.782827 -229.956287 
L 145.616141 -229.956287 
L 143.449455 -229.956287 
L 141.28277 -229.956287 
L 139.116084 -229.956287 
z
" style="stroke: #db5f57; stroke-opacity: 0.65"/>
    </defs>
    <g clip-path="url(#peb2d3822ed)">
     <use xlink:href="#me0a7774f80" x="0" y="432" style="fill: #db5f57; fill-opacity: 0.65; stroke: #db5f57; stroke-opacity: 0.65"/>
    </g>
   </g>
   <g id="PolyCollection_13">
    <defs>
     <path id="m9d08a239fc" d="M 139.116084 -247.958883 
L 139.116084 -236.62524 
L 141.28277 -236.62524 
L 143.449455 -236.62524 
L 145.616141 -236.62524 
L 147.782827 -236.62524 
L 149.949513 -236.62524 
L 152.116199 -236.62524 
L 154.282884 -236.62524 
L 156.44957 -236.62524 
L 158.616256 -236.62524 
L 160.782942 -236.62524 
L 162.949627 -236.62524 
L 165.116313 -236.483073 
L 167.282999 -236.198738 
L 169.449685 -235.772235 
L 171.616371 -235.203564 
L 173.783056 -234.492726 
L 175.949742 -233.639721 
L 178.116428 -232.644547 
L 180.283114 -231.507206 
L 182.449799 -230.227698 
L 184.616485 -228.806022 
L 186.783171 -227.242178 
L 188.949857 -225.536166 
L 191.116542 -223.687987 
L 193.283228 -221.697641 
L 195.449914 -219.565126 
L 197.6166 -217.290445 
L 199.783286 -214.873595 
L 201.949971 -212.314578 
L 204.116657 -209.613393 
L 206.283343 -206.770041 
L 208.450029 -204.068856 
L 210.616714 -201.509839 
L 212.7834 -199.09299 
L 214.950086 -196.818308 
L 217.116772 -194.685793 
L 219.283458 -192.695447 
L 221.450143 -190.847268 
L 223.616829 -189.141256 
L 225.783515 -187.577412 
L 227.950201 -186.155736 
L 230.116886 -184.876228 
L 232.283572 -183.738887 
L 234.450258 -182.743714 
L 236.616944 -181.890708 
L 238.783629 -181.17987 
L 240.950315 -180.611199 
L 243.117001 -180.184696 
L 245.283687 -179.900361 
L 247.450373 -179.758194 
L 249.617058 -179.758194 
L 251.783744 -179.758194 
L 253.95043 -179.758194 
L 256.117116 -179.758194 
L 258.283801 -179.758194 
L 260.450487 -179.758194 
L 262.617173 -179.758194 
L 264.783859 -179.758194 
L 266.950545 -179.758194 
L 269.11723 -179.758194 
L 271.283916 -179.758194 
L 271.283916 -191.091836 
L 271.283916 -191.091836 
L 269.11723 -191.091836 
L 266.950545 -191.091836 
L 264.783859 -191.091836 
L 262.617173 -191.091836 
L 260.450487 -191.091836 
L 258.283801 -191.091836 
L 256.117116 -191.091836 
L 253.95043 -191.091836 
L 251.783744 -191.091836 
L 249.617058 -191.091836 
L 247.450373 -191.091836 
L 245.283687 -191.234003 
L 243.117001 -191.518339 
L 240.950315 -191.944841 
L 238.783629 -192.513512 
L 236.616944 -193.22435 
L 234.450258 -194.077356 
L 232.283572 -195.072529 
L 230.116886 -196.20987 
L 227.950201 -197.489379 
L 225.783515 -198.911055 
L 223.616829 -200.474899 
L 221.450143 -202.18091 
L 219.283458 -204.029089 
L 217.116772 -206.019436 
L 214.950086 -208.15195 
L 212.7834 -210.426632 
L 210.616714 -212.843481 
L 208.450029 -215.402498 
L 206.283343 -218.103683 
L 204.116657 -220.947035 
L 201.949971 -223.64822 
L 199.783286 -226.207237 
L 197.6166 -228.624087 
L 195.449914 -230.898769 
L 193.283228 -233.031283 
L 191.116542 -235.02163 
L 188.949857 -236.869809 
L 186.783171 -238.57582 
L 184.616485 -240.139664 
L 182.449799 -241.56134 
L 180.283114 -242.840848 
L 178.116428 -243.978189 
L 175.949742 -244.973363 
L 173.783056 -245.826368 
L 171.616371 -246.537207 
L 169.449685 -247.105877 
L 167.282999 -247.53238 
L 165.116313 -247.816715 
L 162.949627 -247.958883 
L 160.782942 -247.958883 
L 158.616256 -247.958883 
L 156.44957 -247.958883 
L 154.282884 -247.958883 
L 152.116199 -247.958883 
L 149.949513 -247.958883 
L 147.782827 -247.958883 
L 145.616141 -247.958883 
L 143.449455 -247.958883 
L 141.28277 -247.958883 
L 139.116084 -247.958883 
z
" style="stroke: #91db57; stroke-opacity: 0.65"/>
    </defs>
    <g clip-path="url(#peb2d3822ed)">
     <use xlink:href="#m9d08a239fc" x="0" y="432" style="fill: #91db57; fill-opacity: 0.65; stroke: #91db57; stroke-opacity: 0.65"/>
    </g>
   </g>
   <g id="PolyCollection_14">
    <defs>
     <path id="m06423a6742" d="M 139.116084 -248.55539 
L 139.116084 -247.958883 
L 141.28277 -247.958883 
L 143.449455 -247.958883 
L 145.616141 -247.958883 
L 147.782827 -247.958883 
L 149.949513 -247.958883 
L 152.116199 -247.958883 
L 154.282884 -247.958883 
L 156.44957 -247.958883 
L 158.616256 -247.958883 
L 160.782942 -247.958883 
L 162.949627 -247.958883 
L 165.116313 -247.98152 
L 167.282999 -248.026795 
L 169.449685 -248.094707 
L 171.616371 -248.185257 
L 173.783056 -248.298445 
L 175.949742 -248.434269 
L 178.116428 -248.592732 
L 180.283114 -248.773831 
L 182.449799 -248.977568 
L 184.616485 -249.203943 
L 186.783171 -249.452955 
L 188.949857 -249.724605 
L 191.116542 -250.018891 
L 193.283228 -250.335816 
L 195.449914 -250.675378 
L 197.6166 -251.037577 
L 199.783286 -251.422414 
L 201.949971 -251.829888 
L 204.116657 -252.26 
L 206.283343 -252.712749 
L 208.450029 -253.142861 
L 210.616714 -253.550335 
L 212.7834 -253.935172 
L 214.950086 -254.297371 
L 217.116772 -254.636933 
L 219.283458 -254.953858 
L 221.450143 -255.248145 
L 223.616829 -255.519794 
L 225.783515 -255.768806 
L 227.950201 -255.995181 
L 230.116886 -256.198918 
L 232.283572 -256.380017 
L 234.450258 -256.53848 
L 236.616944 -256.674304 
L 238.783629 -256.787492 
L 240.950315 -256.878042 
L 243.117001 -256.945954 
L 245.283687 -256.991229 
L 247.450373 -257.013866 
L 249.617058 -257.013866 
L 251.783744 -257.013866 
L 253.95043 -257.013866 
L 256.117116 -257.013866 
L 258.283801 -257.013866 
L 260.450487 -257.013866 
L 262.617173 -257.013866 
L 264.783859 -257.013866 
L 266.950545 -257.013866 
L 269.11723 -257.013866 
L 271.283916 -257.013866 
L 271.283916 -257.610374 
L 271.283916 -257.610374 
L 269.11723 -257.610374 
L 266.950545 -257.610374 
L 264.783859 -257.610374 
L 262.617173 -257.610374 
L 260.450487 -257.610374 
L 258.283801 -257.610374 
L 256.117116 -257.610374 
L 253.95043 -257.610374 
L 251.783744 -257.610374 
L 249.617058 -257.610374 
L 247.450373 -257.610374 
L 245.283687 -257.587736 
L 243.117001 -257.542461 
L 240.950315 -257.474549 
L 238.783629 -257.383999 
L 236.616944 -257.270812 
L 234.450258 -257.134987 
L 232.283572 -256.976525 
L 230.116886 -256.795425 
L 227.950201 -256.591688 
L 225.783515 -256.365314 
L 223.616829 -256.116302 
L 221.450143 -255.844652 
L 219.283458 -255.550365 
L 217.116772 -255.233441 
L 214.950086 -254.893879 
L 212.7834 -254.531679 
L 210.616714 -254.146843 
L 208.450029 -253.739368 
L 206.283343 -253.309257 
L 204.116657 -252.856507 
L 201.949971 -252.426396 
L 199.783286 -252.018921 
L 197.6166 -251.634085 
L 195.449914 -251.271885 
L 193.283228 -250.932323 
L 191.116542 -250.615399 
L 188.949857 -250.321112 
L 186.783171 -250.049462 
L 184.616485 -249.80045 
L 182.449799 -249.574076 
L 180.283114 -249.370339 
L 178.116428 -249.189239 
L 175.949742 -249.030777 
L 173.783056 -248.894952 
L 171.616371 -248.781765 
L 169.449685 -248.691215 
L 167.282999 -248.623303 
L 165.116313 -248.578028 
L 162.949627 -248.55539 
L 160.782942 -248.55539 
L 158.616256 -248.55539 
L 156.44957 -248.55539 
L 154.282884 -248.55539 
L 152.116199 -248.55539 
L 149.949513 -248.55539 
L 147.782827 -248.55539 
L 145.616141 -248.55539 
L 143.449455 -248.55539 
L 141.28277 -248.55539 
L 139.116084 -248.55539 
z
" style="stroke: #91db57; stroke-opacity: 0.65"/>
    </defs>
    <g clip-path="url(#peb2d3822ed)">
     <use xlink:href="#m06423a6742" x="0" y="432" style="fill: #91db57; fill-opacity: 0.65; stroke: #91db57; stroke-opacity: 0.65"/>
    </g>
   </g>
   <g id="PolyCollection_15">
    <defs>
     <path id="ma26ff80870" d="M 139.116084 -250.543748 
L 139.116084 -248.55539 
L 141.28277 -248.55539 
L 143.449455 -248.55539 
L 145.616141 -248.55539 
L 147.782827 -248.55539 
L 149.949513 -248.55539 
L 152.116199 -248.55539 
L 154.282884 -248.55539 
L 156.44957 -248.55539 
L 158.616256 -248.55539 
L 160.782942 -248.55539 
L 162.949627 -248.55539 
L 165.116313 -248.778623 
L 167.282999 -249.225089 
L 169.449685 -249.894788 
L 171.616371 -250.78772 
L 173.783056 -251.903885 
L 175.949742 -253.243283 
L 178.116428 -254.805914 
L 180.283114 -256.591778 
L 182.449799 -258.600875 
L 184.616485 -260.833204 
L 186.783171 -263.288767 
L 188.949857 -265.967563 
L 191.116542 -268.869592 
L 193.283228 -271.994854 
L 195.449914 -275.343348 
L 197.6166 -278.915076 
L 199.783286 -282.710037 
L 201.949971 -286.728231 
L 204.116657 -290.969657 
L 206.283343 -295.434317 
L 208.450029 -299.675744 
L 210.616714 -303.693937 
L 212.7834 -307.488898 
L 214.950086 -311.060626 
L 217.116772 -314.409121 
L 219.283458 -317.534382 
L 221.450143 -320.436411 
L 223.616829 -323.115207 
L 225.783515 -325.57077 
L 227.950201 -327.8031 
L 230.116886 -329.812197 
L 232.283572 -331.59806 
L 234.450258 -333.160691 
L 236.616944 -334.500089 
L 238.783629 -335.616254 
L 240.950315 -336.509186 
L 243.117001 -337.178885 
L 245.283687 -337.625351 
L 247.450373 -337.848584 
L 249.617058 -337.848584 
L 251.783744 -337.848584 
L 253.95043 -337.848584 
L 256.117116 -337.848584 
L 258.283801 -337.848584 
L 260.450487 -337.848584 
L 262.617173 -337.848584 
L 264.783859 -337.848584 
L 266.950545 -337.848584 
L 269.11723 -337.848584 
L 271.283916 -337.848584 
L 271.283916 -339.836942 
L 271.283916 -339.836942 
L 269.11723 -339.836942 
L 266.950545 -339.836942 
L 264.783859 -339.836942 
L 262.617173 -339.836942 
L 260.450487 -339.836942 
L 258.283801 -339.836942 
L 256.117116 -339.836942 
L 253.95043 -339.836942 
L 251.783744 -339.836942 
L 249.617058 -339.836942 
L 247.450373 -339.836942 
L 245.283687 -339.613709 
L 243.117001 -339.167243 
L 240.950315 -338.497544 
L 238.783629 -337.604613 
L 236.616944 -336.488448 
L 234.450258 -335.14905 
L 232.283572 -333.586419 
L 230.116886 -331.800555 
L 227.950201 -329.791458 
L 225.783515 -327.559128 
L 223.616829 -325.103565 
L 221.450143 -322.42477 
L 219.283458 -319.522741 
L 217.116772 -316.397479 
L 214.950086 -313.048984 
L 212.7834 -309.477256 
L 210.616714 -305.682296 
L 208.450029 -301.664102 
L 206.283343 -297.422675 
L 204.116657 -292.958016 
L 201.949971 -288.716589 
L 199.783286 -284.698395 
L 197.6166 -280.903434 
L 195.449914 -277.331707 
L 193.283228 -273.983212 
L 191.116542 -270.85795 
L 188.949857 -267.955921 
L 186.783171 -265.277125 
L 184.616485 -262.821563 
L 182.449799 -260.589233 
L 180.283114 -258.580136 
L 178.116428 -256.794272 
L 175.949742 -255.231641 
L 173.783056 -253.892243 
L 171.616371 -252.776078 
L 169.449685 -251.883146 
L 167.282999 -251.213447 
L 165.116313 -250.766981 
L 162.949627 -250.543748 
L 160.782942 -250.543748 
L 158.616256 -250.543748 
L 156.44957 -250.543748 
L 154.282884 -250.543748 
L 152.116199 -250.543748 
L 149.949513 -250.543748 
L 147.782827 -250.543748 
L 145.616141 -250.543748 
L 143.449455 -250.543748 
L 141.28277 -250.543748 
L 139.116084 -250.543748 
z
" style="stroke: #91db57; stroke-opacity: 0.65"/>
    </defs>
    <g clip-path="url(#peb2d3822ed)">
     <use xlink:href="#ma26ff80870" x="0" y="432" style="fill: #91db57; fill-opacity: 0.65; stroke: #91db57; stroke-opacity: 0.65"/>
    </g>
   </g>
   <g id="PolyCollection_16">
    <defs>
     <path id="m97f9314112" d="M 139.116084 -259.399896 
L 139.116084 -257.212702 
L 141.28277 -257.212702 
L 143.449455 -257.212702 
L 145.616141 -257.212702 
L 147.782827 -257.212702 
L 149.949513 -257.212702 
L 152.116199 -257.212702 
L 154.282884 -257.212702 
L 156.44957 -257.212702 
L 158.616256 -257.212702 
L 160.782942 -257.212702 
L 162.949627 -257.212702 
L 165.116313 -256.99444 
L 167.282999 -256.557916 
L 169.449685 -255.90313 
L 171.616371 -255.030081 
L 173.783056 -253.938771 
L 175.949742 -252.629198 
L 178.116428 -251.101364 
L 180.283114 -249.355267 
L 182.449799 -247.390908 
L 184.616485 -245.208287 
L 186.783171 -242.807404 
L 188.949857 -240.188259 
L 191.116542 -237.350852 
L 193.283228 -234.295183 
L 195.449914 -231.021251 
L 197.6166 -227.529058 
L 199.783286 -223.818603 
L 201.949971 -219.889885 
L 204.116657 -215.742905 
L 206.283343 -211.377663 
L 208.450029 -207.230684 
L 210.616714 -203.301966 
L 212.7834 -199.591511 
L 214.950086 -196.099317 
L 217.116772 -192.825386 
L 219.283458 -189.769717 
L 221.450143 -186.93231 
L 223.616829 -184.313164 
L 225.783515 -181.912281 
L 227.950201 -179.729661 
L 230.116886 -177.765302 
L 232.283572 -176.019205 
L 234.450258 -174.49137 
L 236.616944 -173.181798 
L 238.783629 -172.090487 
L 240.950315 -171.217439 
L 243.117001 -170.562653 
L 245.283687 -170.126129 
L 247.450373 -169.907867 
L 249.617058 -169.907867 
L 251.783744 -169.907867 
L 253.95043 -169.907867 
L 256.117116 -169.907867 
L 258.283801 -169.907867 
L 260.450487 -169.907867 
L 262.617173 -169.907867 
L 264.783859 -169.907867 
L 266.950545 -169.907867 
L 269.11723 -169.907867 
L 271.283916 -169.907867 
L 271.283916 -172.095061 
L 271.283916 -172.095061 
L 269.11723 -172.095061 
L 266.950545 -172.095061 
L 264.783859 -172.095061 
L 262.617173 -172.095061 
L 260.450487 -172.095061 
L 258.283801 -172.095061 
L 256.117116 -172.095061 
L 253.95043 -172.095061 
L 251.783744 -172.095061 
L 249.617058 -172.095061 
L 247.450373 -172.095061 
L 245.283687 -172.313323 
L 243.117001 -172.749847 
L 240.950315 -173.404633 
L 238.783629 -174.277682 
L 236.616944 -175.368992 
L 234.450258 -176.678565 
L 232.283572 -178.206399 
L 230.116886 -179.952496 
L 227.950201 -181.916855 
L 225.783515 -184.099476 
L 223.616829 -186.500359 
L 221.450143 -189.119504 
L 219.283458 -191.956911 
L 217.116772 -195.01258 
L 214.950086 -198.286511 
L 212.7834 -201.778705 
L 210.616714 -205.48916 
L 208.450029 -209.417878 
L 206.283343 -213.564858 
L 204.116657 -217.930099 
L 201.949971 -222.077079 
L 199.783286 -226.005797 
L 197.6166 -229.716252 
L 195.449914 -233.208446 
L 193.283228 -236.482377 
L 191.116542 -239.538046 
L 188.949857 -242.375453 
L 186.783171 -244.994598 
L 184.616485 -247.395481 
L 182.449799 -249.578102 
L 180.283114 -251.542461 
L 178.116428 -253.288558 
L 175.949742 -254.816392 
L 173.783056 -256.125965 
L 171.616371 -257.217275 
L 169.449685 -258.090324 
L 167.282999 -258.74511 
L 165.116313 -259.181634 
L 162.949627 -259.399896 
L 160.782942 -259.399896 
L 158.616256 -259.399896 
L 156.44957 -259.399896 
L 154.282884 -259.399896 
L 152.116199 -259.399896 
L 149.949513 -259.399896 
L 147.782827 -259.399896 
L 145.616141 -259.399896 
L 143.449455 -259.399896 
L 141.28277 -259.399896 
L 139.116084 -259.399896 
z
" style="stroke: #57d3db; stroke-opacity: 0.65"/>
    </defs>
    <g clip-path="url(#peb2d3822ed)">
     <use xlink:href="#m97f9314112" x="0" y="432" style="fill: #57d3db; fill-opacity: 0.65; stroke: #57d3db; stroke-opacity: 0.65"/>
    </g>
   </g>
   <g id="PolyCollection_17">
    <defs>
     <path id="ma918684790" d="M 139.116084 -329.588944 
L 139.116084 -259.399896 
L 141.28277 -259.399896 
L 143.449455 -259.399896 
L 145.616141 -259.399896 
L 147.782827 -259.399896 
L 149.949513 -259.399896 
L 152.116199 -259.399896 
L 154.282884 -259.399896 
L 156.44957 -259.399896 
L 158.616256 -259.399896 
L 160.782942 -259.399896 
L 162.949627 -259.399896 
L 165.116313 -259.395422 
L 167.282999 -259.386475 
L 169.449685 -259.373053 
L 171.616371 -259.355158 
L 173.783056 -259.332789 
L 175.949742 -259.305946 
L 178.116428 -259.27463 
L 180.283114 -259.238839 
L 182.449799 -259.198575 
L 184.616485 -259.153837 
L 186.783171 -259.104625 
L 188.949857 -259.050939 
L 191.116542 -258.99278 
L 193.283228 -258.930147 
L 195.449914 -258.86304 
L 197.6166 -258.791459 
L 199.783286 -258.715404 
L 201.949971 -258.634875 
L 204.116657 -258.549873 
L 206.283343 -258.460397 
L 208.450029 -258.375395 
L 210.616714 -258.294866 
L 212.7834 -258.218811 
L 214.950086 -258.147231 
L 217.116772 -258.080123 
L 219.283458 -258.01749 
L 221.450143 -257.959331 
L 223.616829 -257.905645 
L 225.783515 -257.856433 
L 227.950201 -257.811695 
L 230.116886 -257.771431 
L 232.283572 -257.73564 
L 234.450258 -257.704324 
L 236.616944 -257.677481 
L 238.783629 -257.655112 
L 240.950315 -257.637217 
L 243.117001 -257.623795 
L 245.283687 -257.614848 
L 247.450373 -257.610374 
L 249.617058 -257.610374 
L 251.783744 -257.610374 
L 253.95043 -257.610374 
L 256.117116 -257.610374 
L 258.283801 -257.610374 
L 260.450487 -257.610374 
L 262.617173 -257.610374 
L 264.783859 -257.610374 
L 266.950545 -257.610374 
L 269.11723 -257.610374 
L 271.283916 -257.610374 
L 271.283916 -327.799421 
L 271.283916 -327.799421 
L 269.11723 -327.799421 
L 266.950545 -327.799421 
L 264.783859 -327.799421 
L 262.617173 -327.799421 
L 260.450487 -327.799421 
L 258.283801 -327.799421 
L 256.117116 -327.799421 
L 253.95043 -327.799421 
L 251.783744 -327.799421 
L 249.617058 -327.799421 
L 247.450373 -327.799421 
L 245.283687 -327.803895 
L 243.117001 -327.812843 
L 240.950315 -327.826264 
L 238.783629 -327.844159 
L 236.616944 -327.866528 
L 234.450258 -327.893371 
L 232.283572 -327.924688 
L 230.116886 -327.960478 
L 227.950201 -328.000743 
L 225.783515 -328.045481 
L 223.616829 -328.094692 
L 221.450143 -328.148378 
L 219.283458 -328.206538 
L 217.116772 -328.269171 
L 214.950086 -328.336278 
L 212.7834 -328.407859 
L 210.616714 -328.483914 
L 208.450029 -328.564442 
L 206.283343 -328.649444 
L 204.116657 -328.738921 
L 201.949971 -328.823923 
L 199.783286 -328.904451 
L 197.6166 -328.980506 
L 195.449914 -329.052087 
L 193.283228 -329.119194 
L 191.116542 -329.181827 
L 188.949857 -329.239987 
L 186.783171 -329.293673 
L 184.616485 -329.342884 
L 182.449799 -329.387622 
L 180.283114 -329.427887 
L 178.116428 -329.463677 
L 175.949742 -329.494994 
L 173.783056 -329.521837 
L 171.616371 -329.544206 
L 169.449685 -329.562101 
L 167.282999 -329.575522 
L 165.116313 -329.58447 
L 162.949627 -329.588944 
L 160.782942 -329.588944 
L 158.616256 -329.588944 
L 156.44957 -329.588944 
L 154.282884 -329.588944 
L 152.116199 -329.588944 
L 149.949513 -329.588944 
L 147.782827 -329.588944 
L 145.616141 -329.588944 
L 143.449455 -329.588944 
L 141.28277 -329.588944 
L 139.116084 -329.588944 
z
" style="stroke: #57d3db; stroke-opacity: 0.65"/>
    </defs>
    <g clip-path="url(#peb2d3822ed)">
     <use xlink:href="#ma918684790" x="0" y="432" style="fill: #57d3db; fill-opacity: 0.65; stroke: #57d3db; stroke-opacity: 0.65"/>
    </g>
   </g>
   <g id="PolyCollection_18">
    <defs>
     <path id="m0585777a7a" d="M 139.116084 -344.899303 
L 139.116084 -329.588944 
L 141.28277 -329.588944 
L 143.449455 -329.588944 
L 145.616141 -329.588944 
L 147.782827 -329.588944 
L 149.949513 -329.588944 
L 152.116199 -329.588944 
L 154.282884 -329.588944 
L 156.44957 -329.588944 
L 158.616256 -329.588944 
L 160.782942 -329.588944 
L 162.949627 -329.588944 
L 165.116313 -329.614564 
L 167.282999 -329.665804 
L 169.449685 -329.742664 
L 171.616371 -329.845144 
L 173.783056 -329.973244 
L 175.949742 -330.126964 
L 178.116428 -330.306304 
L 180.283114 -330.511264 
L 182.449799 -330.741844 
L 184.616485 -330.998044 
L 186.783171 -331.279864 
L 188.949857 -331.587303 
L 191.116542 -331.920363 
L 193.283228 -332.279043 
L 195.449914 -332.663343 
L 197.6166 -333.073263 
L 199.783286 -333.508803 
L 201.949971 -333.969963 
L 204.116657 -334.456743 
L 206.283343 -334.969143 
L 208.450029 -335.455923 
L 210.616714 -335.917083 
L 212.7834 -336.352623 
L 214.950086 -336.762543 
L 217.116772 -337.146843 
L 219.283458 -337.505523 
L 221.450143 -337.838583 
L 223.616829 -338.146023 
L 225.783515 -338.427843 
L 227.950201 -338.684043 
L 230.116886 -338.914622 
L 232.283572 -339.119582 
L 234.450258 -339.298922 
L 236.616944 -339.452642 
L 238.783629 -339.580742 
L 240.950315 -339.683222 
L 243.117001 -339.760082 
L 245.283687 -339.811322 
L 247.450373 -339.836942 
L 249.617058 -339.836942 
L 251.783744 -339.836942 
L 253.95043 -339.836942 
L 256.117116 -339.836942 
L 258.283801 -339.836942 
L 260.450487 -339.836942 
L 262.617173 -339.836942 
L 264.783859 -339.836942 
L 266.950545 -339.836942 
L 269.11723 -339.836942 
L 271.283916 -339.836942 
L 271.283916 -355.147301 
L 271.283916 -355.147301 
L 269.11723 -355.147301 
L 266.950545 -355.147301 
L 264.783859 -355.147301 
L 262.617173 -355.147301 
L 260.450487 -355.147301 
L 258.283801 -355.147301 
L 256.117116 -355.147301 
L 253.95043 -355.147301 
L 251.783744 -355.147301 
L 249.617058 -355.147301 
L 247.450373 -355.147301 
L 245.283687 -355.121681 
L 243.117001 -355.070441 
L 240.950315 -354.993581 
L 238.783629 -354.891101 
L 236.616944 -354.763001 
L 234.450258 -354.609281 
L 232.283572 -354.429941 
L 230.116886 -354.224981 
L 227.950201 -353.994401 
L 225.783515 -353.738201 
L 223.616829 -353.456381 
L 221.450143 -353.148941 
L 219.283458 -352.815881 
L 217.116772 -352.457202 
L 214.950086 -352.072902 
L 212.7834 -351.662982 
L 210.616714 -351.227442 
L 208.450029 -350.766282 
L 206.283343 -350.279502 
L 204.116657 -349.767102 
L 201.949971 -349.280322 
L 199.783286 -348.819162 
L 197.6166 -348.383622 
L 195.449914 -347.973702 
L 193.283228 -347.589402 
L 191.116542 -347.230722 
L 188.949857 -346.897662 
L 186.783171 -346.590222 
L 184.616485 -346.308402 
L 182.449799 -346.052202 
L 180.283114 -345.821622 
L 178.116428 -345.616662 
L 175.949742 -345.437322 
L 173.783056 -345.283602 
L 171.616371 -345.155503 
L 169.449685 -345.053023 
L 167.282999 -344.976163 
L 165.116313 -344.924923 
L 162.949627 -344.899303 
L 160.782942 -344.899303 
L 158.616256 -344.899303 
L 156.44957 -344.899303 
L 154.282884 -344.899303 
L 152.116199 -344.899303 
L 149.949513 -344.899303 
L 147.782827 -344.899303 
L 145.616141 -344.899303 
L 143.449455 -344.899303 
L 141.28277 -344.899303 
L 139.116084 -344.899303 
z
" style="stroke: #57d3db; stroke-opacity: 0.65"/>
    </defs>
    <g clip-path="url(#peb2d3822ed)">
     <use xlink:href="#m0585777a7a" x="0" y="432" style="fill: #57d3db; fill-opacity: 0.65; stroke: #57d3db; stroke-opacity: 0.65"/>
    </g>
   </g>
   <g id="PolyCollection_19">
    <defs>
     <path id="m0def7bb47f" d="M 139.116084 -352.164764 
L 139.116084 -351.568256 
L 141.28277 -351.568256 
L 143.449455 -351.568256 
L 145.616141 -351.568256 
L 147.782827 -351.568256 
L 149.949513 -351.568256 
L 152.116199 -351.568256 
L 154.282884 -351.568256 
L 156.44957 -351.568256 
L 158.616256 -351.568256 
L 160.782942 -351.568256 
L 162.949627 -351.568256 
L 165.116313 -351.119573 
L 167.282999 -350.222207 
L 169.449685 -348.876158 
L 171.616371 -347.081426 
L 173.783056 -344.838011 
L 175.949742 -342.145913 
L 178.116428 -339.005133 
L 180.283114 -335.415669 
L 182.449799 -331.377522 
L 184.616485 -326.890692 
L 186.783171 -321.955179 
L 188.949857 -316.570983 
L 191.116542 -310.738104 
L 193.283228 -304.456542 
L 195.449914 -297.726298 
L 197.6166 -290.54737 
L 199.783286 -282.919759 
L 201.949971 -274.843465 
L 204.116657 -266.318488 
L 206.283343 -257.344829 
L 208.450029 -248.819852 
L 210.616714 -240.743558 
L 212.7834 -233.115947 
L 214.950086 -225.937019 
L 217.116772 -219.206775 
L 219.283458 -212.925213 
L 221.450143 -207.092334 
L 223.616829 -201.708138 
L 225.783515 -196.772625 
L 227.950201 -192.285795 
L 230.116886 -188.247648 
L 232.283572 -184.658184 
L 234.450258 -181.517403 
L 236.616944 -178.825306 
L 238.783629 -176.581891 
L 240.950315 -174.787159 
L 243.117001 -173.44111 
L 245.283687 -172.543744 
L 247.450373 -172.095061 
L 249.617058 -172.095061 
L 251.783744 -172.095061 
L 253.95043 -172.095061 
L 256.117116 -172.095061 
L 258.283801 -172.095061 
L 260.450487 -172.095061 
L 262.617173 -172.095061 
L 264.783859 -172.095061 
L 266.950545 -172.095061 
L 269.11723 -172.095061 
L 271.283916 -172.095061 
L 271.283916 -172.691568 
L 271.283916 -172.691568 
L 269.11723 -172.691568 
L 266.950545 -172.691568 
L 264.783859 -172.691568 
L 262.617173 -172.691568 
L 260.450487 -172.691568 
L 258.283801 -172.691568 
L 256.117116 -172.691568 
L 253.95043 -172.691568 
L 251.783744 -172.691568 
L 249.617058 -172.691568 
L 247.450373 -172.691568 
L 245.283687 -173.140251 
L 243.117001 -174.037617 
L 240.950315 -175.383666 
L 238.783629 -177.178398 
L 236.616944 -179.421813 
L 234.450258 -182.113911 
L 232.283572 -185.254692 
L 230.116886 -188.844156 
L 227.950201 -192.882303 
L 225.783515 -197.369133 
L 223.616829 -202.304645 
L 221.450143 -207.688841 
L 219.283458 -213.52172 
L 217.116772 -219.803282 
L 214.950086 -226.533527 
L 212.7834 -233.712455 
L 210.616714 -241.340065 
L 208.450029 -249.416359 
L 206.283343 -257.941336 
L 204.116657 -266.914996 
L 201.949971 -275.439973 
L 199.783286 -283.516266 
L 197.6166 -291.143877 
L 195.449914 -298.322805 
L 193.283228 -305.05305 
L 191.116542 -311.334612 
L 188.949857 -317.167491 
L 186.783171 -322.551686 
L 184.616485 -327.487199 
L 182.449799 -331.974029 
L 180.283114 -336.012176 
L 178.116428 -339.60164 
L 175.949742 -342.742421 
L 173.783056 -345.434519 
L 171.616371 -347.677934 
L 169.449685 -349.472666 
L 167.282999 -350.818715 
L 165.116313 -351.716081 
L 162.949627 -352.164764 
L 160.782942 -352.164764 
L 158.616256 -352.164764 
L 156.44957 -352.164764 
L 154.282884 -352.164764 
L 152.116199 -352.164764 
L 149.949513 -352.164764 
L 147.782827 -352.164764 
L 145.616141 -352.164764 
L 143.449455 -352.164764 
L 141.28277 -352.164764 
L 139.116084 -352.164764 
z
" style="stroke: #a157db; stroke-opacity: 0.65"/>
    </defs>
    <g clip-path="url(#peb2d3822ed)">
     <use xlink:href="#m0def7bb47f" x="0" y="432" style="fill: #a157db; fill-opacity: 0.65; stroke: #a157db; stroke-opacity: 0.65"/>
    </g>
   </g>
   <g id="PolyCollection_20">
    <defs>
     <path id="mdce75ef8c7" d="M 139.116084 -355.147301 
L 139.116084 -352.164764 
L 141.28277 -352.164764 
L 143.449455 -352.164764 
L 145.616141 -352.164764 
L 147.782827 -352.164764 
L 149.949513 -352.164764 
L 152.116199 -352.164764 
L 154.282884 -352.164764 
L 156.44957 -352.164764 
L 158.616256 -352.164764 
L 160.782942 -352.164764 
L 162.949627 -352.164764 
L 165.116313 -352.10385 
L 167.282999 -351.982024 
L 169.449685 -351.799284 
L 171.616371 -351.55563 
L 173.783056 -351.251063 
L 175.949742 -350.885583 
L 178.116428 -350.45919 
L 180.283114 -349.971883 
L 182.449799 -349.423663 
L 184.616485 -348.814529 
L 186.783171 -348.144482 
L 188.949857 -347.413522 
L 191.116542 -346.621648 
L 193.283228 -345.768861 
L 195.449914 -344.855161 
L 197.6166 -343.880547 
L 199.783286 -342.84502 
L 201.949971 -341.74858 
L 204.116657 -340.591226 
L 206.283343 -339.372959 
L 208.450029 -338.215605 
L 210.616714 -337.119165 
L 212.7834 -336.083638 
L 214.950086 -335.109024 
L 217.116772 -334.195324 
L 219.283458 -333.342537 
L 221.450143 -332.550663 
L 223.616829 -331.819703 
L 225.783515 -331.149656 
L 227.950201 -330.540522 
L 230.116886 -329.992302 
L 232.283572 -329.504995 
L 234.450258 -329.078602 
L 236.616944 -328.713122 
L 238.783629 -328.408555 
L 240.950315 -328.164901 
L 243.117001 -327.982161 
L 245.283687 -327.860335 
L 247.450373 -327.799421 
L 249.617058 -327.799421 
L 251.783744 -327.799421 
L 253.95043 -327.799421 
L 256.117116 -327.799421 
L 258.283801 -327.799421 
L 260.450487 -327.799421 
L 262.617173 -327.799421 
L 264.783859 -327.799421 
L 266.950545 -327.799421 
L 269.11723 -327.799421 
L 271.283916 -327.799421 
L 271.283916 -330.781959 
L 271.283916 -330.781959 
L 269.11723 -330.781959 
L 266.950545 -330.781959 
L 264.783859 -330.781959 
L 262.617173 -330.781959 
L 260.450487 -330.781959 
L 258.283801 -330.781959 
L 256.117116 -330.781959 
L 253.95043 -330.781959 
L 251.783744 -330.781959 
L 249.617058 -330.781959 
L 247.450373 -330.781959 
L 245.283687 -330.842872 
L 243.117001 -330.964699 
L 240.950315 -331.147439 
L 238.783629 -331.391092 
L 236.616944 -331.695659 
L 234.450258 -332.061139 
L 232.283572 -332.487533 
L 230.116886 -332.97484 
L 227.950201 -333.52306 
L 225.783515 -334.132193 
L 223.616829 -334.80224 
L 221.450143 -335.5332 
L 219.283458 -336.325074 
L 217.116772 -337.177861 
L 214.950086 -338.091561 
L 212.7834 -339.066175 
L 210.616714 -340.101702 
L 208.450029 -341.198143 
L 206.283343 -342.355496 
L 204.116657 -343.573763 
L 201.949971 -344.731117 
L 199.783286 -345.827558 
L 197.6166 -346.863085 
L 195.449914 -347.837698 
L 193.283228 -348.751399 
L 191.116542 -349.604186 
L 188.949857 -350.396059 
L 186.783171 -351.12702 
L 184.616485 -351.797067 
L 182.449799 -352.4062 
L 180.283114 -352.95442 
L 178.116428 -353.441727 
L 175.949742 -353.868121 
L 173.783056 -354.233601 
L 171.616371 -354.538168 
L 169.449685 -354.781821 
L 167.282999 -354.964561 
L 165.116313 -355.086388 
L 162.949627 -355.147301 
L 160.782942 -355.147301 
L 158.616256 -355.147301 
L 156.44957 -355.147301 
L 154.282884 -355.147301 
L 152.116199 -355.147301 
L 149.949513 -355.147301 
L 147.782827 -355.147301 
L 145.616141 -355.147301 
L 143.449455 -355.147301 
L 141.28277 -355.147301 
L 139.116084 -355.147301 
z
" style="stroke: #a157db; stroke-opacity: 0.65"/>
    </defs>
    <g clip-path="url(#peb2d3822ed)">
     <use xlink:href="#mdce75ef8c7" x="0" y="432" style="fill: #a157db; fill-opacity: 0.65; stroke: #a157db; stroke-opacity: 0.65"/>
    </g>
   </g>
   <g id="PolyCollection_21">
    <defs>
     <path id="m1647ec0b3b" d="M 139.116084 -392.727273 
L 139.116084 -355.147301 
L 141.28277 -355.147301 
L 143.449455 -355.147301 
L 145.616141 -355.147301 
L 147.782827 -355.147301 
L 149.949513 -355.147301 
L 152.116199 -355.147301 
L 154.282884 -355.147301 
L 156.44957 -355.147301 
L 158.616256 -355.147301 
L 160.782942 -355.147301 
L 162.949627 -355.147301 
L 165.116313 -355.147301 
L 167.282999 -355.147301 
L 169.449685 -355.147301 
L 171.616371 -355.147301 
L 173.783056 -355.147301 
L 175.949742 -355.147301 
L 178.116428 -355.147301 
L 180.283114 -355.147301 
L 182.449799 -355.147301 
L 184.616485 -355.147301 
L 186.783171 -355.147301 
L 188.949857 -355.147301 
L 191.116542 -355.147301 
L 193.283228 -355.147301 
L 195.449914 -355.147301 
L 197.6166 -355.147301 
L 199.783286 -355.147301 
L 201.949971 -355.147301 
L 204.116657 -355.147301 
L 206.283343 -355.147301 
L 208.450029 -355.147301 
L 210.616714 -355.147301 
L 212.7834 -355.147301 
L 214.950086 -355.147301 
L 217.116772 -355.147301 
L 219.283458 -355.147301 
L 221.450143 -355.147301 
L 223.616829 -355.147301 
L 225.783515 -355.147301 
L 227.950201 -355.147301 
L 230.116886 -355.147301 
L 232.283572 -355.147301 
L 234.450258 -355.147301 
L 236.616944 -355.147301 
L 238.783629 -355.147301 
L 240.950315 -355.147301 
L 243.117001 -355.147301 
L 245.283687 -355.147301 
L 247.450373 -355.147301 
L 249.617058 -355.147301 
L 251.783744 -355.147301 
L 253.95043 -355.147301 
L 256.117116 -355.147301 
L 258.283801 -355.147301 
L 260.450487 -355.147301 
L 262.617173 -355.147301 
L 264.783859 -355.147301 
L 266.950545 -355.147301 
L 269.11723 -355.147301 
L 271.283916 -355.147301 
L 271.283916 -392.727273 
L 271.283916 -392.727273 
L 269.11723 -392.727273 
L 266.950545 -392.727273 
L 264.783859 -392.727273 
L 262.617173 -392.727273 
L 260.450487 -392.727273 
L 258.283801 -392.727273 
L 256.117116 -392.727273 
L 253.95043 -392.727273 
L 251.783744 -392.727273 
L 249.617058 -392.727273 
L 247.450373 -392.727273 
L 245.283687 -392.727273 
L 243.117001 -392.727273 
L 240.950315 -392.727273 
L 238.783629 -392.727273 
L 236.616944 -392.727273 
L 234.450258 -392.727273 
L 232.283572 -392.727273 
L 230.116886 -392.727273 
L 227.950201 -392.727273 
L 225.783515 -392.727273 
L 223.616829 -392.727273 
L 221.450143 -392.727273 
L 219.283458 -392.727273 
L 217.116772 -392.727273 
L 214.950086 -392.727273 
L 212.7834 -392.727273 
L 210.616714 -392.727273 
L 208.450029 -392.727273 
L 206.283343 -392.727273 
L 204.116657 -392.727273 
L 201.949971 -392.727273 
L 199.783286 -392.727273 
L 197.6166 -392.727273 
L 195.449914 -392.727273 
L 193.283228 -392.727273 
L 191.116542 -392.727273 
L 188.949857 -392.727273 
L 186.783171 -392.727273 
L 184.616485 -392.727273 
L 182.449799 -392.727273 
L 180.283114 -392.727273 
L 178.116428 -392.727273 
L 175.949742 -392.727273 
L 173.783056 -392.727273 
L 171.616371 -392.727273 
L 169.449685 -392.727273 
L 167.282999 -392.727273 
L 165.116313 -392.727273 
L 162.949627 -392.727273 
L 160.782942 -392.727273 
L 158.616256 -392.727273 
L 156.44957 -392.727273 
L 154.282884 -392.727273 
L 152.116199 -392.727273 
L 149.949513 -392.727273 
L 147.782827 -392.727273 
L 145.616141 -392.727273 
L 143.449455 -392.727273 
L 141.28277 -392.727273 
L 139.116084 -392.727273 
z
" style="stroke: #a157db; stroke-opacity: 0.65"/>
    </defs>
    <g clip-path="url(#peb2d3822ed)">
     <use xlink:href="#m1647ec0b3b" x="0" y="432" style="fill: #a157db; fill-opacity: 0.65; stroke: #a157db; stroke-opacity: 0.65"/>
    </g>
   </g>
   <g id="text_1">
    <!-- Molecular layer -->
    <g transform="translate(52.46238 300.073774) scale(0.1 -0.1)">
     <defs>
      <path id="DejaVuSerif-4d" d="M 353 0 
L 353 331 
L 947 331 
L 947 4331 
L 319 4331 
L 319 4666 
L 1678 4666 
L 3316 1344 
L 4953 4666 
L 6228 4666 
L 6228 4331 
L 5606 4331 
L 5606 331 
L 6203 331 
L 6203 0 
L 4378 0 
L 4378 331 
L 4972 331 
L 4972 3938 
L 3372 684 
L 2931 684 
L 1331 3938 
L 1331 331 
L 1925 331 
L 1925 0 
L 353 0 
z
" transform="scale(0.015625)"/>
      <path id="DejaVuSerif-6f" d="M 1925 219 
Q 2388 219 2623 584 
Q 2859 950 2859 1663 
Q 2859 2375 2623 2739 
Q 2388 3103 1925 3103 
Q 1463 3103 1227 2739 
Q 991 2375 991 1663 
Q 991 950 1228 584 
Q 1466 219 1925 219 
z
M 1925 -91 
Q 1200 -91 759 389 
Q 319 869 319 1663 
Q 319 2456 758 2934 
Q 1197 3413 1925 3413 
Q 2653 3413 3092 2934 
Q 3531 2456 3531 1663 
Q 3531 869 3092 389 
Q 2653 -91 1925 -91 
z
" transform="scale(0.015625)"/>
      <path id="DejaVuSerif-6c" d="M 1313 331 
L 1856 331 
L 1856 0 
L 184 0 
L 184 331 
L 738 331 
L 738 4531 
L 184 4531 
L 184 4863 
L 1313 4863 
L 1313 331 
z
" transform="scale(0.015625)"/>
      <path id="DejaVuSerif-65" d="M 3469 1600 
L 991 1600 
L 991 1575 
Q 991 903 1244 561 
Q 1497 219 1991 219 
Q 2369 219 2611 417 
Q 2853 616 2950 1006 
L 3413 1006 
Q 3275 459 2904 184 
Q 2534 -91 1931 -91 
Q 1203 -91 761 389 
Q 319 869 319 1663 
Q 319 2450 753 2931 
Q 1188 3413 1894 3413 
Q 2647 3413 3050 2948 
Q 3453 2484 3469 1600 
z
M 2791 1931 
Q 2772 2513 2545 2808 
Q 2319 3103 1894 3103 
Q 1497 3103 1269 2806 
Q 1041 2509 991 1931 
L 2791 1931 
z
" transform="scale(0.015625)"/>
      <path id="DejaVuSerif-63" d="M 3291 997 
Q 3169 466 2822 187 
Q 2475 -91 1925 -91 
Q 1200 -91 759 389 
Q 319 869 319 1663 
Q 319 2459 759 2936 
Q 1200 3413 1925 3413 
Q 2241 3413 2553 3339 
Q 2866 3266 3181 3116 
L 3181 2266 
L 2847 2266 
Q 2781 2703 2561 2903 
Q 2341 3103 1931 3103 
Q 1466 3103 1228 2742 
Q 991 2381 991 1663 
Q 991 944 1227 581 
Q 1463 219 1931 219 
Q 2303 219 2525 412 
Q 2747 606 2828 997 
L 3291 997 
z
" transform="scale(0.015625)"/>
      <path id="DejaVuSerif-75" d="M 2266 3322 
L 3341 3322 
L 3341 331 
L 3884 331 
L 3884 0 
L 2766 0 
L 2766 588 
Q 2606 256 2353 82 
Q 2100 -91 1766 -91 
Q 1213 -91 952 223 
Q 691 538 691 1209 
L 691 2988 
L 172 2988 
L 172 3322 
L 1269 3322 
L 1269 1388 
Q 1269 781 1417 556 
Q 1566 331 1947 331 
Q 2347 331 2556 625 
Q 2766 919 2766 1478 
L 2766 2988 
L 2266 2988 
L 2266 3322 
z
" transform="scale(0.015625)"/>
      <path id="DejaVuSerif-61" d="M 2547 1044 
L 2547 1747 
L 1806 1747 
Q 1378 1747 1168 1562 
Q 959 1378 959 997 
Q 959 650 1171 447 
Q 1384 244 1747 244 
Q 2106 244 2326 466 
Q 2547 688 2547 1044 
z
M 3122 2075 
L 3122 331 
L 3634 331 
L 3634 0 
L 2547 0 
L 2547 359 
Q 2356 128 2106 18 
Q 1856 -91 1522 -91 
Q 969 -91 644 203 
Q 319 497 319 997 
Q 319 1513 691 1797 
Q 1063 2081 1741 2081 
L 2547 2081 
L 2547 2309 
Q 2547 2688 2317 2895 
Q 2088 3103 1672 3103 
Q 1328 3103 1125 2947 
Q 922 2791 872 2484 
L 575 2484 
L 575 3156 
Q 875 3284 1158 3348 
Q 1441 3413 1709 3413 
Q 2400 3413 2761 3070 
Q 3122 2728 3122 2075 
z
" transform="scale(0.015625)"/>
      <path id="DejaVuSerif-72" d="M 3059 3328 
L 3059 2497 
L 2728 2497 
Q 2713 2744 2591 2866 
Q 2469 2988 2234 2988 
Q 1809 2988 1582 2694 
Q 1356 2400 1356 1850 
L 1356 331 
L 2022 331 
L 2022 0 
L 263 0 
L 263 331 
L 781 331 
L 781 2994 
L 231 2994 
L 231 3322 
L 1356 3322 
L 1356 2731 
Q 1525 3078 1790 3245 
Q 2056 3413 2438 3413 
Q 2578 3413 2733 3391 
Q 2888 3369 3059 3328 
z
" transform="scale(0.015625)"/>
      <path id="DejaVuSerif-20" transform="scale(0.015625)"/>
      <path id="DejaVuSerif-79" d="M 1381 -609 
L 1600 -56 
L 359 2988 
L -19 2988 
L -19 3322 
L 1509 3322 
L 1509 2988 
L 978 2988 
L 1913 703 
L 2847 2988 
L 2350 2988 
L 2350 3322 
L 3597 3322 
L 3597 2988 
L 3225 2988 
L 1703 -750 
Q 1547 -1138 1356 -1280 
Q 1166 -1422 819 -1422 
Q 672 -1422 517 -1397 
Q 363 -1372 206 -1325 
L 206 -691 
L 500 -691 
Q 519 -903 608 -995 
Q 697 -1088 884 -1088 
Q 1056 -1088 1161 -992 
Q 1266 -897 1381 -609 
z
" transform="scale(0.015625)"/>
     </defs>
     <use xlink:href="#DejaVuSerif-4d"/>
     <use xlink:href="#DejaVuSerif-6f" x="102.392578"/>
     <use xlink:href="#DejaVuSerif-6c" x="162.597656"/>
     <use xlink:href="#DejaVuSerif-65" x="194.580078"/>
     <use xlink:href="#DejaVuSerif-63" x="253.759766"/>
     <use xlink:href="#DejaVuSerif-75" x="309.765625"/>
     <use xlink:href="#DejaVuSerif-6c" x="374.169922"/>
     <use xlink:href="#DejaVuSerif-61" x="406.152344"/>
     <use xlink:href="#DejaVuSerif-72" x="465.771484"/>
     <use xlink:href="#DejaVuSerif-20" x="513.574219"/>
     <use xlink:href="#DejaVuSerif-6c" x="545.361328"/>
     <use xlink:href="#DejaVuSerif-61" x="577.34375"/>
     <use xlink:href="#DejaVuSerif-79" x="636.962891"/>
     <use xlink:href="#DejaVuSerif-65" x="693.457031"/>
     <use xlink:href="#DejaVuSerif-72" x="752.636719"/>
    </g>
   </g>
   <g id="text_2">
    <!-- Lateral recess -->
    <g transform="translate(60.36863 191.174881) scale(0.1 -0.1)">
     <defs>
      <path id="DejaVuSerif-4c" d="M 353 0 
L 353 331 
L 947 331 
L 947 4331 
L 353 4331 
L 353 4666 
L 2175 4666 
L 2175 4331 
L 1581 4331 
L 1581 384 
L 3713 384 
L 3713 1166 
L 4097 1166 
L 4097 0 
L 353 0 
z
" transform="scale(0.015625)"/>
      <path id="DejaVuSerif-74" d="M 691 2988 
L 184 2988 
L 184 3322 
L 691 3322 
L 691 4353 
L 1269 4353 
L 1269 3322 
L 2350 3322 
L 2350 2988 
L 1269 2988 
L 1269 878 
Q 1269 456 1350 337 
Q 1431 219 1650 219 
Q 1875 219 1978 351 
Q 2081 484 2088 781 
L 2522 781 
Q 2497 328 2275 118 
Q 2053 -91 1600 -91 
Q 1103 -91 897 129 
Q 691 350 691 878 
L 691 2988 
z
" transform="scale(0.015625)"/>
      <path id="DejaVuSerif-73" d="M 359 184 
L 359 959 
L 691 959 
Q 703 588 923 403 
Q 1144 219 1575 219 
Q 1963 219 2166 364 
Q 2369 509 2369 788 
Q 2369 1006 2220 1140 
Q 2072 1275 1594 1428 
L 1178 1569 
Q 750 1706 558 1912 
Q 366 2119 366 2438 
Q 366 2894 700 3153 
Q 1034 3413 1625 3413 
Q 1888 3413 2178 3344 
Q 2469 3275 2778 3144 
L 2778 2419 
L 2447 2419 
Q 2434 2741 2221 2922 
Q 2009 3103 1644 3103 
Q 1281 3103 1095 2975 
Q 909 2847 909 2591 
Q 909 2381 1050 2254 
Q 1191 2128 1613 1997 
L 2069 1856 
Q 2541 1709 2748 1489 
Q 2956 1269 2956 922 
Q 2956 450 2595 179 
Q 2234 -91 1600 -91 
Q 1278 -91 972 -22 
Q 666 47 359 184 
z
" transform="scale(0.015625)"/>
     </defs>
     <use xlink:href="#DejaVuSerif-4c"/>
     <use xlink:href="#DejaVuSerif-61" x="66.40625"/>
     <use xlink:href="#DejaVuSerif-74" x="126.025391"/>
     <use xlink:href="#DejaVuSerif-65" x="166.210938"/>
     <use xlink:href="#DejaVuSerif-72" x="225.390625"/>
     <use xlink:href="#DejaVuSerif-61" x="273.193359"/>
     <use xlink:href="#DejaVuSerif-6c" x="332.8125"/>
     <use xlink:href="#DejaVuSerif-20" x="364.794922"/>
     <use xlink:href="#DejaVuSerif-72" x="396.582031"/>
     <use xlink:href="#DejaVuSerif-65" x="444.384766"/>
     <use xlink:href="#DejaVuSerif-63" x="503.564453"/>
     <use xlink:href="#DejaVuSerif-65" x="559.570312"/>
     <use xlink:href="#DejaVuSerif-73" x="618.75"/>
     <use xlink:href="#DejaVuSerif-73" x="670.068359"/>
    </g>
   </g>
   <g id="text_3">
    <!-- Granular layer -->
    <g transform="translate(58.267067 133.632279) scale(0.1 -0.1)">
     <defs>
      <path id="DejaVuSerif-47" d="M 4097 3272 
Q 3988 3856 3641 4136 
Q 3294 4416 2675 4416 
Q 1869 4416 1472 3897 
Q 1075 3378 1075 2328 
Q 1075 1300 1484 772 
Q 1894 244 2688 244 
Q 3041 244 3362 331 
Q 3684 419 3975 594 
L 3975 1797 
L 3097 1797 
L 3097 2131 
L 4609 2131 
L 4609 391 
Q 4194 150 3714 29 
Q 3234 -91 2688 -91 
Q 1631 -91 995 570 
Q 359 1231 359 2328 
Q 359 3434 996 4092 
Q 1634 4750 2713 4750 
Q 3113 4750 3539 4658 
Q 3966 4566 4447 4378 
L 4447 3272 
L 4097 3272 
z
" transform="scale(0.015625)"/>
      <path id="DejaVuSerif-6e" d="M 263 0 
L 263 331 
L 781 331 
L 781 2988 
L 231 2988 
L 231 3322 
L 1356 3322 
L 1356 2731 
Q 1516 3069 1770 3241 
Q 2025 3413 2363 3413 
Q 2913 3413 3172 3097 
Q 3431 2781 3431 2113 
L 3431 331 
L 3944 331 
L 3944 0 
L 2356 0 
L 2356 331 
L 2853 331 
L 2853 1931 
Q 2853 2541 2703 2767 
Q 2553 2994 2175 2994 
Q 1775 2994 1565 2701 
Q 1356 2409 1356 1850 
L 1356 331 
L 1856 331 
L 1856 0 
L 263 0 
z
" transform="scale(0.015625)"/>
     </defs>
     <use xlink:href="#DejaVuSerif-47"/>
     <use xlink:href="#DejaVuSerif-72" x="79.882812"/>
     <use xlink:href="#DejaVuSerif-61" x="127.685547"/>
     <use xlink:href="#DejaVuSerif-6e" x="187.304688"/>
     <use xlink:href="#DejaVuSerif-75" x="251.708984"/>
     <use xlink:href="#DejaVuSerif-6c" x="316.113281"/>
     <use xlink:href="#DejaVuSerif-61" x="348.095703"/>
     <use xlink:href="#DejaVuSerif-72" x="407.714844"/>
     <use xlink:href="#DejaVuSerif-20" x="455.517578"/>
     <use xlink:href="#DejaVuSerif-6c" x="487.304688"/>
     <use xlink:href="#DejaVuSerif-61" x="519.287109"/>
     <use xlink:href="#DejaVuSerif-79" x="578.90625"/>
     <use xlink:href="#DejaVuSerif-65" x="635.400391"/>
     <use xlink:href="#DejaVuSerif-72" x="694.580078"/>
    </g>
   </g>
   <g id="text_4">
    <!-- Fiber tracts -->
    <g transform="translate(72.58113 62.611611) scale(0.1 -0.1)">
     <defs>
      <path id="DejaVuSerif-46" d="M 353 0 
L 353 331 
L 947 331 
L 947 4331 
L 353 4331 
L 353 4666 
L 4172 4666 
L 4172 3628 
L 3788 3628 
L 3788 4281 
L 1581 4281 
L 1581 2719 
L 3175 2719 
L 3175 3303 
L 3559 3303 
L 3559 1753 
L 3175 1753 
L 3175 2338 
L 1581 2338 
L 1581 331 
L 2328 331 
L 2328 0 
L 353 0 
z
" transform="scale(0.015625)"/>
      <path id="DejaVuSerif-69" d="M 622 4353 
Q 622 4497 726 4603 
Q 831 4709 978 4709 
Q 1122 4709 1226 4603 
Q 1331 4497 1331 4353 
Q 1331 4206 1228 4103 
Q 1125 4000 978 4000 
Q 831 4000 726 4103 
Q 622 4206 622 4353 
z
M 1356 331 
L 1900 331 
L 1900 0 
L 231 0 
L 231 331 
L 781 331 
L 781 2988 
L 231 2988 
L 231 3322 
L 1356 3322 
L 1356 331 
z
" transform="scale(0.015625)"/>
      <path id="DejaVuSerif-62" d="M 738 331 
L 738 4531 
L 184 4531 
L 184 4863 
L 1313 4863 
L 1313 2803 
Q 1481 3116 1742 3264 
Q 2003 3413 2388 3413 
Q 3000 3413 3387 2928 
Q 3775 2444 3775 1663 
Q 3775 881 3387 395 
Q 3000 -91 2388 -91 
Q 2003 -91 1742 57 
Q 1481 206 1313 519 
L 1313 0 
L 184 0 
L 184 331 
L 738 331 
z
M 1313 1497 
Q 1313 897 1542 583 
Q 1772 269 2209 269 
Q 2650 269 2876 622 
Q 3103 975 3103 1663 
Q 3103 2353 2876 2703 
Q 2650 3053 2209 3053 
Q 1772 3053 1542 2737 
Q 1313 2422 1313 1825 
L 1313 1497 
z
" transform="scale(0.015625)"/>
     </defs>
     <use xlink:href="#DejaVuSerif-46"/>
     <use xlink:href="#DejaVuSerif-69" x="69.384766"/>
     <use xlink:href="#DejaVuSerif-62" x="101.367188"/>
     <use xlink:href="#DejaVuSerif-65" x="165.380859"/>
     <use xlink:href="#DejaVuSerif-72" x="224.560547"/>
     <use xlink:href="#DejaVuSerif-20" x="272.363281"/>
     <use xlink:href="#DejaVuSerif-74" x="304.150391"/>
     <use xlink:href="#DejaVuSerif-72" x="344.335938"/>
     <use xlink:href="#DejaVuSerif-61" x="392.138672"/>
     <use xlink:href="#DejaVuSerif-63" x="451.757812"/>
     <use xlink:href="#DejaVuSerif-74" x="507.763672"/>
     <use xlink:href="#DejaVuSerif-73" x="547.949219"/>
    </g>
   </g>
   <g id="text_5">
    <!-- Molecular layer -->
    <g transform="translate(277.892308 328.706134) scale(0.1 -0.1)">
     <use xlink:href="#DejaVuSerif-4d"/>
     <use xlink:href="#DejaVuSerif-6f" x="102.392578"/>
     <use xlink:href="#DejaVuSerif-6c" x="162.597656"/>
     <use xlink:href="#DejaVuSerif-65" x="194.580078"/>
     <use xlink:href="#DejaVuSerif-63" x="253.759766"/>
     <use xlink:href="#DejaVuSerif-75" x="309.765625"/>
     <use xlink:href="#DejaVuSerif-6c" x="374.169922"/>
     <use xlink:href="#DejaVuSerif-61" x="406.152344"/>
     <use xlink:href="#DejaVuSerif-72" x="465.771484"/>
     <use xlink:href="#DejaVuSerif-20" x="513.574219"/>
     <use xlink:href="#DejaVuSerif-6c" x="545.361328"/>
     <use xlink:href="#DejaVuSerif-61" x="577.34375"/>
     <use xlink:href="#DejaVuSerif-79" x="636.962891"/>
     <use xlink:href="#DejaVuSerif-65" x="693.457031"/>
     <use xlink:href="#DejaVuSerif-72" x="752.636719"/>
    </g>
   </g>
   <g id="text_6">
    <!-- Lateral recess -->
    <g transform="translate(277.892308 249.533196) scale(0.1 -0.1)">
     <use xlink:href="#DejaVuSerif-4c"/>
     <use xlink:href="#DejaVuSerif-61" x="66.40625"/>
     <use xlink:href="#DejaVuSerif-74" x="126.025391"/>
     <use xlink:href="#DejaVuSerif-65" x="166.210938"/>
     <use xlink:href="#DejaVuSerif-72" x="225.390625"/>
     <use xlink:href="#DejaVuSerif-61" x="273.193359"/>
     <use xlink:href="#DejaVuSerif-6c" x="332.8125"/>
     <use xlink:href="#DejaVuSerif-20" x="364.794922"/>
     <use xlink:href="#DejaVuSerif-72" x="396.582031"/>
     <use xlink:href="#DejaVuSerif-65" x="444.384766"/>
     <use xlink:href="#DejaVuSerif-63" x="503.564453"/>
     <use xlink:href="#DejaVuSerif-65" x="559.570312"/>
     <use xlink:href="#DejaVuSerif-73" x="618.75"/>
     <use xlink:href="#DejaVuSerif-73" x="670.068359"/>
    </g>
   </g>
   <g id="text_7">
    <!-- Granular layer -->
    <g transform="translate(277.892308 170.416907) scale(0.1 -0.1)">
     <use xlink:href="#DejaVuSerif-47"/>
     <use xlink:href="#DejaVuSerif-72" x="79.882812"/>
     <use xlink:href="#DejaVuSerif-61" x="127.685547"/>
     <use xlink:href="#DejaVuSerif-6e" x="187.304688"/>
     <use xlink:href="#DejaVuSerif-75" x="251.708984"/>
     <use xlink:href="#DejaVuSerif-6c" x="316.113281"/>
     <use xlink:href="#DejaVuSerif-61" x="348.095703"/>
     <use xlink:href="#DejaVuSerif-72" x="407.714844"/>
     <use xlink:href="#DejaVuSerif-20" x="455.517578"/>
     <use xlink:href="#DejaVuSerif-6c" x="487.304688"/>
     <use xlink:href="#DejaVuSerif-61" x="519.287109"/>
     <use xlink:href="#DejaVuSerif-79" x="578.90625"/>
     <use xlink:href="#DejaVuSerif-65" x="635.400391"/>
     <use xlink:href="#DejaVuSerif-72" x="694.580078"/>
    </g>
   </g>
   <g id="text_8">
    <!-- Fiber tracts -->
    <g transform="translate(277.892308 69.670282) scale(0.1 -0.1)">
     <use xlink:href="#DejaVuSerif-46"/>
     <use xlink:href="#DejaVuSerif-69" x="69.384766"/>
     <use xlink:href="#DejaVuSerif-62" x="101.367188"/>
     <use xlink:href="#DejaVuSerif-65" x="165.380859"/>
     <use xlink:href="#DejaVuSerif-72" x="224.560547"/>
     <use xlink:href="#DejaVuSerif-20" x="272.363281"/>
     <use xlink:href="#DejaVuSerif-74" x="304.150391"/>
     <use xlink:href="#DejaVuSerif-72" x="344.335938"/>
     <use xlink:href="#DejaVuSerif-61" x="392.138672"/>
     <use xlink:href="#DejaVuSerif-63" x="451.757812"/>
     <use xlink:href="#DejaVuSerif-74" x="507.763672"/>
     <use xlink:href="#DejaVuSerif-73" x="547.949219"/>
    </g>
   </g>
   <g id="text_9">
    <!-- Matching Number: 1677, Matching Accuracy: 74.90% -->
    <g transform="translate(40.429688 15.6) scale(0.12 -0.12)">
     <defs>
      <path id="DejaVuSerif-68" d="M 263 0 
L 263 331 
L 781 331 
L 781 4531 
L 231 4531 
L 231 4863 
L 1356 4863 
L 1356 2731 
Q 1516 3069 1770 3241 
Q 2025 3413 2363 3413 
Q 2913 3413 3172 3097 
Q 3431 2781 3431 2113 
L 3431 331 
L 3944 331 
L 3944 0 
L 2356 0 
L 2356 331 
L 2853 331 
L 2853 1931 
Q 2853 2541 2704 2764 
Q 2556 2988 2175 2988 
Q 1775 2988 1565 2697 
Q 1356 2406 1356 1850 
L 1356 331 
L 1856 331 
L 1856 0 
L 263 0 
z
" transform="scale(0.015625)"/>
      <path id="DejaVuSerif-67" d="M 3359 2988 
L 3359 72 
Q 3359 -644 2965 -1033 
Q 2572 -1422 1844 -1422 
Q 1516 -1422 1216 -1362 
Q 916 -1303 641 -1184 
L 641 -488 
L 941 -488 
Q 997 -813 1206 -963 
Q 1416 -1113 1806 -1113 
Q 2313 -1113 2548 -827 
Q 2784 -541 2784 72 
L 2784 519 
Q 2616 206 2355 57 
Q 2094 -91 1709 -91 
Q 1097 -91 708 395 
Q 319 881 319 1663 
Q 319 2444 706 2928 
Q 1094 3413 1709 3413 
Q 2094 3413 2355 3264 
Q 2616 3116 2784 2803 
L 2784 3322 
L 3909 3322 
L 3909 2988 
L 3359 2988 
z
M 2784 1825 
Q 2784 2422 2554 2737 
Q 2325 3053 1888 3053 
Q 1444 3053 1217 2703 
Q 991 2353 991 1663 
Q 991 975 1217 622 
Q 1444 269 1888 269 
Q 2325 269 2554 583 
Q 2784 897 2784 1497 
L 2784 1825 
z
" transform="scale(0.015625)"/>
      <path id="DejaVuSerif-4e" d="M 313 0 
L 313 331 
L 941 331 
L 941 4331 
L 313 4331 
L 313 4666 
L 1509 4666 
L 4306 984 
L 4306 4331 
L 3681 4331 
L 3681 4666 
L 5319 4666 
L 5319 4331 
L 4691 4331 
L 4691 -91 
L 4313 -91 
L 1325 3841 
L 1325 331 
L 1953 331 
L 1953 0 
L 313 0 
z
" transform="scale(0.015625)"/>
      <path id="DejaVuSerif-6d" d="M 3316 2675 
Q 3481 3041 3739 3227 
Q 3997 3413 4341 3413 
Q 4863 3413 5119 3089 
Q 5375 2766 5375 2113 
L 5375 331 
L 5894 331 
L 5894 0 
L 4300 0 
L 4300 331 
L 4800 331 
L 4800 2047 
Q 4800 2556 4650 2772 
Q 4500 2988 4153 2988 
Q 3769 2988 3567 2697 
Q 3366 2406 3366 1850 
L 3366 331 
L 3866 331 
L 3866 0 
L 2291 0 
L 2291 331 
L 2791 331 
L 2791 2069 
Q 2791 2566 2641 2777 
Q 2491 2988 2144 2988 
Q 1759 2988 1557 2697 
Q 1356 2406 1356 1850 
L 1356 331 
L 1856 331 
L 1856 0 
L 263 0 
L 263 331 
L 781 331 
L 781 2994 
L 231 2994 
L 231 3322 
L 1356 3322 
L 1356 2731 
Q 1516 3063 1762 3238 
Q 2009 3413 2322 3413 
Q 2709 3413 2968 3220 
Q 3228 3028 3316 2675 
z
" transform="scale(0.015625)"/>
      <path id="DejaVuSerif-3a" d="M 666 325 
Q 666 500 786 622 
Q 906 744 1081 744 
Q 1256 744 1376 622 
Q 1497 500 1497 325 
Q 1497 150 1378 29 
Q 1259 -91 1081 -91 
Q 903 -91 784 29 
Q 666 150 666 325 
z
M 666 2363 
Q 666 2538 786 2658 
Q 906 2778 1081 2778 
Q 1259 2778 1378 2659 
Q 1497 2541 1497 2363 
Q 1497 2184 1378 2065 
Q 1259 1947 1081 1947 
Q 906 1947 786 2067 
Q 666 2188 666 2363 
z
" transform="scale(0.015625)"/>
      <path id="DejaVuSerif-31" d="M 909 0 
L 909 331 
L 1722 331 
L 1722 4213 
L 781 3603 
L 781 4013 
L 1919 4750 
L 2350 4750 
L 2350 331 
L 3163 331 
L 3163 0 
L 909 0 
z
" transform="scale(0.015625)"/>
      <path id="DejaVuSerif-36" d="M 2094 219 
Q 2534 219 2771 542 
Q 3009 866 3009 1472 
Q 3009 2078 2771 2401 
Q 2534 2725 2094 2725 
Q 1647 2725 1412 2412 
Q 1178 2100 1178 1509 
Q 1178 888 1415 553 
Q 1653 219 2094 219 
z
M 1075 2569 
Q 1288 2803 1556 2918 
Q 1825 3034 2163 3034 
Q 2859 3034 3264 2615 
Q 3669 2197 3669 1472 
Q 3669 763 3233 336 
Q 2797 -91 2069 -91 
Q 1278 -91 853 498 
Q 428 1088 428 2181 
Q 428 3406 931 4078 
Q 1434 4750 2350 4750 
Q 2597 4750 2869 4703 
Q 3141 4656 3425 4563 
L 3425 3794 
L 3072 3794 
Q 3034 4109 2831 4275 
Q 2628 4441 2284 4441 
Q 1678 4441 1381 3981 
Q 1084 3522 1075 2569 
z
" transform="scale(0.015625)"/>
      <path id="DejaVuSerif-37" d="M 3609 4347 
L 1784 0 
L 1319 0 
L 3059 4153 
L 903 4153 
L 903 3578 
L 538 3578 
L 538 4666 
L 3609 4666 
L 3609 4347 
z
" transform="scale(0.015625)"/>
      <path id="DejaVuSerif-2c" d="M 231 -622 
Q 525 -406 662 -114 
Q 800 178 800 594 
L 800 709 
L 1416 709 
Q 1391 175 1164 -208 
Q 938 -591 481 -872 
L 231 -622 
z
" transform="scale(0.015625)"/>
      <path id="DejaVuSerif-41" d="M 1281 1691 
L 2994 1691 
L 2138 3909 
L 1281 1691 
z
M -38 0 
L -38 331 
L 372 331 
L 2034 4666 
L 2559 4666 
L 4225 331 
L 4684 331 
L 4684 0 
L 2988 0 
L 2988 331 
L 3506 331 
L 3116 1356 
L 1153 1356 
L 763 331 
L 1275 331 
L 1275 0 
L -38 0 
z
" transform="scale(0.015625)"/>
      <path id="DejaVuSerif-34" d="M 2234 1581 
L 2234 4063 
L 641 1581 
L 2234 1581 
z
M 3609 0 
L 1484 0 
L 1484 331 
L 2234 331 
L 2234 1247 
L 197 1247 
L 197 1588 
L 2241 4750 
L 2859 4750 
L 2859 1581 
L 3750 1581 
L 3750 1247 
L 2859 1247 
L 2859 331 
L 3609 331 
L 3609 0 
z
" transform="scale(0.015625)"/>
      <path id="DejaVuSerif-2e" d="M 603 325 
Q 603 500 722 622 
Q 841 744 1019 744 
Q 1191 744 1312 622 
Q 1434 500 1434 325 
Q 1434 153 1312 31 
Q 1191 -91 1019 -91 
Q 841 -91 722 29 
Q 603 150 603 325 
z
" transform="scale(0.015625)"/>
      <path id="DejaVuSerif-39" d="M 2994 2091 
Q 2784 1856 2512 1740 
Q 2241 1625 1900 1625 
Q 1206 1625 804 2044 
Q 403 2463 403 3188 
Q 403 3897 839 4323 
Q 1275 4750 2003 4750 
Q 2794 4750 3217 4161 
Q 3641 3572 3641 2478 
Q 3641 1253 3137 581 
Q 2634 -91 1722 -91 
Q 1475 -91 1203 -44 
Q 931 3 647 97 
L 647 872 
L 997 872 
Q 1038 556 1241 387 
Q 1444 219 1784 219 
Q 2391 219 2687 676 
Q 2984 1134 2994 2091 
z
M 1978 4441 
Q 1534 4441 1298 4117 
Q 1063 3794 1063 3188 
Q 1063 2581 1298 2256 
Q 1534 1931 1978 1931 
Q 2422 1931 2658 2245 
Q 2894 2559 2894 3150 
Q 2894 3772 2656 4106 
Q 2419 4441 1978 4441 
z
" transform="scale(0.015625)"/>
      <path id="DejaVuSerif-30" d="M 2034 219 
Q 2513 219 2750 744 
Q 2988 1269 2988 2328 
Q 2988 3391 2750 3916 
Q 2513 4441 2034 4441 
Q 1556 4441 1318 3916 
Q 1081 3391 1081 2328 
Q 1081 1269 1318 744 
Q 1556 219 2034 219 
z
M 2034 -91 
Q 1275 -91 848 546 
Q 422 1184 422 2328 
Q 422 3475 848 4112 
Q 1275 4750 2034 4750 
Q 2797 4750 3222 4112 
Q 3647 3475 3647 2328 
Q 3647 1184 3222 546 
Q 2797 -91 2034 -91 
z
" transform="scale(0.015625)"/>
      <path id="DejaVuSerif-25" d="M 1434 4459 
Q 1159 4459 1004 4200 
Q 850 3941 850 3475 
Q 850 3016 1008 2753 
Q 1166 2491 1434 2491 
Q 1700 2491 1854 2752 
Q 2009 3013 2009 3475 
Q 2009 3938 1854 4198 
Q 1700 4459 1434 4459 
z
M 4653 2169 
Q 4381 2169 4226 1906 
Q 4072 1644 4072 1178 
Q 4072 719 4228 458 
Q 4384 197 4653 197 
Q 4922 197 5075 458 
Q 5228 719 5228 1178 
Q 5228 1641 5073 1905 
Q 4919 2169 4653 2169 
z
M 4653 2450 
Q 5147 2450 5437 2106 
Q 5728 1763 5728 1178 
Q 5728 594 5436 251 
Q 5144 -91 4653 -91 
Q 4153 -91 3862 251 
Q 3572 594 3572 1178 
Q 3572 1766 3864 2108 
Q 4156 2450 4653 2450 
z
M 4263 4750 
L 4738 4750 
L 1819 -91 
L 1344 -91 
L 4263 4750 
z
M 1428 4750 
Q 1922 4750 2215 4408 
Q 2509 4066 2509 3481 
Q 2509 2891 2217 2550 
Q 1925 2209 1428 2209 
Q 931 2209 642 2551 
Q 353 2894 353 3481 
Q 353 4063 643 4406 
Q 934 4750 1428 4750 
z
" transform="scale(0.015625)"/>
     </defs>
     <use xlink:href="#DejaVuSerif-4d"/>
     <use xlink:href="#DejaVuSerif-61" x="102.392578"/>
     <use xlink:href="#DejaVuSerif-74" x="162.011719"/>
     <use xlink:href="#DejaVuSerif-63" x="202.197266"/>
     <use xlink:href="#DejaVuSerif-68" x="258.203125"/>
     <use xlink:href="#DejaVuSerif-69" x="322.607422"/>
     <use xlink:href="#DejaVuSerif-6e" x="354.589844"/>
     <use xlink:href="#DejaVuSerif-67" x="418.994141"/>
     <use xlink:href="#DejaVuSerif-20" x="483.007812"/>
     <use xlink:href="#DejaVuSerif-4e" x="514.794922"/>
     <use xlink:href="#DejaVuSerif-75" x="602.294922"/>
     <use xlink:href="#DejaVuSerif-6d" x="666.699219"/>
     <use xlink:href="#DejaVuSerif-62" x="761.523438"/>
     <use xlink:href="#DejaVuSerif-65" x="825.537109"/>
     <use xlink:href="#DejaVuSerif-72" x="884.716797"/>
     <use xlink:href="#DejaVuSerif-3a" x="932.519531"/>
     <use xlink:href="#DejaVuSerif-20" x="966.210938"/>
     <use xlink:href="#DejaVuSerif-31" x="997.998047"/>
     <use xlink:href="#DejaVuSerif-36" x="1061.621094"/>
     <use xlink:href="#DejaVuSerif-37" x="1125.244141"/>
     <use xlink:href="#DejaVuSerif-37" x="1188.867188"/>
     <use xlink:href="#DejaVuSerif-2c" x="1252.490234"/>
     <use xlink:href="#DejaVuSerif-20" x="1284.277344"/>
     <use xlink:href="#DejaVuSerif-4d" x="1316.064453"/>
     <use xlink:href="#DejaVuSerif-61" x="1418.457031"/>
     <use xlink:href="#DejaVuSerif-74" x="1478.076172"/>
     <use xlink:href="#DejaVuSerif-63" x="1518.261719"/>
     <use xlink:href="#DejaVuSerif-68" x="1574.267578"/>
     <use xlink:href="#DejaVuSerif-69" x="1638.671875"/>
     <use xlink:href="#DejaVuSerif-6e" x="1670.654297"/>
     <use xlink:href="#DejaVuSerif-67" x="1735.058594"/>
     <use xlink:href="#DejaVuSerif-20" x="1799.072266"/>
     <use xlink:href="#DejaVuSerif-41" x="1830.859375"/>
     <use xlink:href="#DejaVuSerif-63" x="1903.076172"/>
     <use xlink:href="#DejaVuSerif-63" x="1959.082031"/>
     <use xlink:href="#DejaVuSerif-75" x="2015.087891"/>
     <use xlink:href="#DejaVuSerif-72" x="2079.492188"/>
     <use xlink:href="#DejaVuSerif-61" x="2127.294922"/>
     <use xlink:href="#DejaVuSerif-63" x="2186.914062"/>
     <use xlink:href="#DejaVuSerif-79" x="2242.919922"/>
     <use xlink:href="#DejaVuSerif-3a" x="2299.414062"/>
     <use xlink:href="#DejaVuSerif-20" x="2333.105469"/>
     <use xlink:href="#DejaVuSerif-37" x="2364.892578"/>
     <use xlink:href="#DejaVuSerif-34" x="2428.515625"/>
     <use xlink:href="#DejaVuSerif-2e" x="2492.138672"/>
     <use xlink:href="#DejaVuSerif-39" x="2523.925781"/>
     <use xlink:href="#DejaVuSerif-30" x="2587.548828"/>
     <use xlink:href="#DejaVuSerif-25" x="2651.171875"/>
    </g>
   </g>
  </g>
 </g>
 <defs>
  <clipPath id="peb2d3822ed">
   <rect x="129.6" y="21.6" width="151.2" height="388.8"/>
  </clipPath>
 </defs>
</svg>
